<?xml version="1.0" encoding="UTF-8" standalone="no"?>
<!-- Created with Inkscape (http://www.inkscape.org/) -->

<svg
   xmlns:dc="http://purl.org/dc/elements/1.1/"
   xmlns:cc="http://creativecommons.org/ns#"
   xmlns:rdf="http://www.w3.org/1999/02/22-rdf-syntax-ns#"
   xmlns:svg="http://www.w3.org/2000/svg"
   xmlns="http://www.w3.org/2000/svg"
   xmlns:sodipodi="http://sodipodi.sourceforge.net/DTD/sodipodi-0.dtd"
   xmlns:inkscape="http://www.inkscape.org/namespaces/inkscape"
   width="744.09448819"
   height="1052.3622047"
   id="svg2"
   version="1.1"
   inkscape:version="0.48.4 r9939"
   sodipodi:docname="Xout.png">
  <defs
     id="defs4" />
  <sodipodi:namedview
     id="base"
     pagecolor="#ffffff"
     bordercolor="#666666"
     borderopacity="1.0"
     inkscape:pageopacity="0.0"
     inkscape:pageshadow="2"
     inkscape:zoom="1.4"
     inkscape:cx="303.14919"
     inkscape:cy="766.40358"
     inkscape:document-units="px"
     inkscape:current-layer="layer1"
     showgrid="false"
     inkscape:window-width="1673"
     inkscape:window-height="985"
     inkscape:window-x="189"
     inkscape:window-y="14"
     inkscape:window-maximized="0" />
  <metadata
     id="metadata7">
    <rdf:RDF>
      <cc:Work
         rdf:about="">
        <dc:format>image/svg+xml</dc:format>
        <dc:type
           rdf:resource="http://purl.org/dc/dcmitype/StillImage" />
        <dc:title></dc:title>
      </cc:Work>
    </rdf:RDF>
  </metadata>
  <g
     inkscape:label="Layer 1"
     inkscape:groupmode="layer"
     id="layer1">
    <path
       style="fill:#000000;fill-opacity:0.98941805999999999;stroke:none"
       d="m 583.75482,185.03852 -166.66804,55.71425 c -2.2871,0.14917 -4.21639,0.81875 -5.30416,1.78107 l -1.06773,0.36177 0.13777,4.14658 0,131.24295 c -1.55875,-0.10633 -3.15948,-0.16697 -4.75309,-0.16697 -30.00067,0 -54.31608,19.22737 -54.31608,42.94061 0,23.71325 24.31541,42.91278 54.31608,42.91278 30.00067,0 54.35053,-19.19953 54.35053,-42.91278 0,-13.01684 -7.33569,-24.68617 -18.90902,-32.56028 l 0,-119.83295 109.42433,-38.90535 0,81.59549 c -29.63291,0.33713 -53.52388,19.41005 -53.52388,42.91277 0,23.71326 24.3154,42.91277 54.31606,42.91277 30.00067,0 54.31608,-19.19951 54.31608,-42.91277 0,-14.97066 -9.68917,-28.15976 -24.38541,-35.84412 l 0,-99.60106 0.10325,-0.0278 c 0.15743,-0.41524 2.69446,-30.69656 1.96324,-33.75694 z"
       id="path2983"
       inkscape:connector-curvature="0" />
    <rect
       style="fill:#000000;fill-opacity:0;stroke:#000000;stroke-width:6.65072203;stroke-miterlimit:4;stroke-opacity:0.98941806;stroke-dasharray:none"
       id="rect2985"
       width="566.79211"
       height="385.36356"
       x="83.032501"
       y="109.6804"
       ry="58.192322"
       rx="85.262802" />
    <text
       xml:space="preserve"
       style="font-size:162.98925781px;font-style:normal;font-weight:normal;line-height:130.99999428%;letter-spacing:0px;word-spacing:0px;fill:#000000;fill-opacity:1;stroke:none;font-family:Sans"
       x="184.64034"
       y="221.34793"
       id="text2986"
       sodipodi:linespacing="130.99999%"
       transform="scale(0.5911011,1.691758)"><tspan
         sodipodi:role="line"
         id="tspan2988"
         x="184.64034"
         y="221.34793"
         style="font-style:normal;font-variant:normal;font-weight:bold;font-stretch:normal;line-height:130.99999428%;letter-spacing:5.90836048px;font-family:Segoe Print;-inkscape-font-specification:Segoe Print Bold"
         rotate="0 0 0 0 0">PLAY</tspan></text>
    <text
       transform="scale(0.5911011,1.691758)"
       sodipodi:linespacing="130.99999%"
       id="text2997"
       y="218.89908"
       x="195.27425"
       style="font-size:162.98925781px;font-style:normal;font-weight:normal;line-height:130.99999428%;letter-spacing:0px;word-spacing:0px;fill:#ff0000;fill-opacity:1;stroke:none;font-family:Sans"
       xml:space="preserve"><tspan
         rotate="0 0 0 0 0"
         style="font-style:normal;font-variant:normal;font-weight:bold;font-stretch:normal;line-height:130.99999428%;letter-spacing:5.90836048px;fill:#ff0000;font-family:Segoe Print;-inkscape-font-specification:Segoe Print Bold"
         y="218.89908"
         x="195.27425"
         id="tspan2999"
         sodipodi:role="line">PLAY</tspan></text>
    <path
       inkscape:connector-curvature="0"
       id="path3001"
       d="m 589.75482,179.03852 -166.66804,55.71425 c -2.2871,0.14917 -4.21639,0.81875 -5.30416,1.78107 l -1.06773,0.36177 0.13777,4.14658 0,131.24295 c -1.55875,-0.10633 -3.15948,-0.16697 -4.75309,-0.16697 -30.00067,0 -54.31608,19.22737 -54.31608,42.94061 0,23.71325 24.31541,42.91278 54.31608,42.91278 30.00067,0 54.35053,-19.19953 54.35053,-42.91278 0,-13.01684 -7.33569,-24.68617 -18.90902,-32.56028 l 0,-119.83295 109.42433,-38.90535 0,81.59549 c -29.63291,0.33713 -53.52388,19.41005 -53.52388,42.91277 0,23.71326 24.3154,42.91277 54.31606,42.91277 30.00067,0 54.31608,-19.19951 54.31608,-42.91277 0,-14.97066 -9.68917,-28.15976 -24.38541,-35.84412 l 0,-99.60106 0.10325,-0.0278 c 0.15743,-0.41524 2.69446,-30.69656 1.96324,-33.75694 z"
       style="fill:#800080;fill-opacity:0.98941806;stroke:none" />
  </g>
</svg>
