<?xml version="1.0" encoding="UTF-8" standalone="no"?>
<!-- Created with Inkscape (http://www.inkscape.org/) -->

<svg
   xmlns:dc="http://purl.org/dc/elements/1.1/"
   xmlns:cc="http://creativecommons.org/ns#"
   xmlns:rdf="http://www.w3.org/1999/02/22-rdf-syntax-ns#"
   xmlns:svg="http://www.w3.org/2000/svg"
   xmlns="http://www.w3.org/2000/svg"
   xmlns:sodipodi="http://sodipodi.sourceforge.net/DTD/sodipodi-0.dtd"
   xmlns:inkscape="http://www.inkscape.org/namespaces/inkscape"
   width="744.09448819"
   height="1052.3622047"
   id="svg2"
   version="1.1"
   inkscape:version="0.48.4 r9939"
   sodipodi:docname="playChord.svg">
  <defs
     id="defs4" />
  <sodipodi:namedview
     id="base"
     pagecolor="#ffffff"
     bordercolor="#666666"
     borderopacity="1.0"
     inkscape:pageopacity="0.0"
     inkscape:pageshadow="2"
     inkscape:zoom="1.4"
     inkscape:cx="303.14919"
     inkscape:cy="766.40358"
     inkscape:document-units="px"
     inkscape:current-layer="layer1"
     showgrid="false"
     inkscape:window-width="1673"
     inkscape:window-height="985"
     inkscape:window-x="189"
     inkscape:window-y="14"
     inkscape:window-maximized="0" />
  <metadata
     id="metadata7">
    <rdf:RDF>
      <cc:Work
         rdf:about="">
        <dc:format>image/svg+xml</dc:format>
        <dc:type
           rdf:resource="http://purl.org/dc/dcmitype/StillImage" />
        <dc:title></dc:title>
      </cc:Work>
    </rdf:RDF>
  </metadata>
  <g
     inkscape:label="Layer 1"
     inkscape:groupmode="layer"
     id="layer1">
    <rect
       style="fill:#000000;fill-opacity:0;stroke:#000000;stroke-width:5.59961605;stroke-miterlimit:4;stroke-opacity:0.98941806;stroke-dasharray:none"
       id="rect2985"
       width="400.70038"
       height="386.41467"
       x="82.50695"
       y="109.15485"
       ry="58.351044"
       rx="60.277542" />
    <path
       style="fill:#000000;stroke:none"
       d="m 263.83761,162.36607 c -73.91548,0 -133.84654,64.44727 -133.84654,143.9375 0,79.49023 59.93106,143.9375 133.84654,143.9375 1.72803,0 3.44255,-0.0383 5.15468,-0.1081 l 0,-38.83556 c -0.95766,0.0283 -1.91341,0.027 -2.87762,0.027 -55.27866,0 -100.09088,-46.74328 -100.09088,-104.39927 0,-57.656 44.81222,-104.39928 100.09088,-104.39928 38.96978,0 72.74518,23.22312 89.28107,57.13178 l -79.54723,0.29728 92.08362,123.56032 c 0,0 79.90074,-119.66861 80.64823,-124.18191 l -58.12779,0.21623 C 372.41186,203.00057 322.53925,162.36607 263.83761,162.36607 z"
       id="path2989"
       inkscape:connector-curvature="0" />
    <path
       inkscape:connector-curvature="0"
       id="path3001"
       d="m 270.98047,154.50893 c -73.91548,0 -133.84654,64.44727 -133.84654,143.9375 0,79.49023 59.93106,143.9375 133.84654,143.9375 1.72803,0 3.44255,-0.0383 5.15468,-0.1081 l 0,-38.83556 c -0.95766,0.0283 -1.91341,0.027 -2.87762,0.027 -55.27866,0 -100.09088,-46.74328 -100.09088,-104.39927 0,-57.656 44.81222,-104.39928 100.09088,-104.39928 38.96978,0 72.74518,23.22312 89.28107,57.13178 l -79.54723,0.29728 92.08362,123.56032 c 0,0 79.90074,-119.66861 80.64823,-124.18191 l -58.12779,0.21623 C 379.55472,195.14343 329.68211,154.50893 270.98047,154.50893 z"
       style="fill:#00ff00;stroke:none" />
  </g>
</svg>
