<?xml version="1.0" encoding="UTF-8" standalone="no"?>
<!-- Created with Inkscape (http://www.inkscape.org/) -->

<svg
   xmlns:dc="http://purl.org/dc/elements/1.1/"
   xmlns:cc="http://creativecommons.org/ns#"
   xmlns:rdf="http://www.w3.org/1999/02/22-rdf-syntax-ns#"
   xmlns:svg="http://www.w3.org/2000/svg"
   xmlns="http://www.w3.org/2000/svg"
   xmlns:sodipodi="http://sodipodi.sourceforge.net/DTD/sodipodi-0.dtd"
   xmlns:inkscape="http://www.inkscape.org/namespaces/inkscape"
   width="744.09448819"
   height="1052.3622047"
   id="svg2995"
   version="1.1"
   inkscape:version="0.48.4 r9939"
   sodipodi:docname="goat.svg">
  <defs
     id="defs2997" />
  <sodipodi:namedview
     id="base"
     pagecolor="#ffffff"
     bordercolor="#666666"
     borderopacity="1.0"
     inkscape:pageopacity="0.0"
     inkscape:pageshadow="2"
     inkscape:zoom="1.4142136"
     inkscape:cx="316.41711"
     inkscape:cy="507.92617"
     inkscape:document-units="px"
     inkscape:current-layer="layer1"
     showgrid="false"
     inkscape:window-width="1457"
     inkscape:window-height="1003"
     inkscape:window-x="-4"
     inkscape:window-y="4"
     inkscape:window-maximized="0" />
  <metadata
     id="metadata3000">
    <rdf:RDF>
      <cc:Work
         rdf:about="">
        <dc:format>image/svg+xml</dc:format>
        <dc:type
           rdf:resource="http://purl.org/dc/dcmitype/StillImage" />
        <dc:title></dc:title>
      </cc:Work>
    </rdf:RDF>
  </metadata>
  <g
     inkscape:label="Layer 1"
     inkscape:groupmode="layer"
     id="layer1">
    <path
       sodipodi:nodetypes="sssscs"
       inkscape:connector-curvature="0"
       id="path3024"
       d="m 201.94372,321.10538 c 2.55395,19.65484 8.69021,21.32862 4.14054,32.43332 -3.89357,9.50327 -16.97071,5.63415 -20.97399,6.10963 -8.68116,1.03108 -9.13467,-5.6489 -13.87425,-42.12412 -4.7396,-36.47523 7.76152,-66.37906 41.18428,-103.27817 -6.98051,59.45948 -15.21619,70.38411 -10.47661,106.85934 z"
       style="fill:#917c6f;stroke:none" />
    <path
       style="fill:#c8b7b7;stroke:none"
       d="m 181.64181,322.71353 c 1.09213,12.61465 4.78673,22.59541 12.84364,34.61227 5.45528,8.13651 -13.64976,2.02708 -16.60608,2.37821 -6.41085,0.76143 -2.93738,-7.18813 -7.67697,-43.66336 -4.73959,-36.47522 11.79597,-68.94088 42.21792,-101.79461 -41.76238,59.57483 -32.29436,90.95861 -30.77851,108.46749 z"
       id="path3026"
       inkscape:connector-curvature="0"
       sodipodi:nodetypes="sssscs" />
    <path
       style="fill:#dde9af;stroke:none"
       d="m 250.40244,317.24762 c -30.32229,1.20217 -73.20344,28.36413 -77.74619,40.06488 -0.84338,2.17228 -23.01681,38.93808 -9.39016,54.13278 10.05728,11.21459 -13.40586,64.01703 -8.87744,91.77168 2.17702,13.34293 19.99021,20.84085 24.37675,19.90825 10.88621,-2.31448 11.96217,-2.57854 20.2366,-11.05711 13.94175,-14.28574 44.38706,-52.86147 53.28035,-62.09817 2.05792,-2.13739 -2.8548,13.15779 -2.06936,11.67135 1.65826,6.03779 -13.35865,39.47853 -13.31689,43.61729 0.10336,10.24229 -13.70538,24.17571 -11.24604,33.54061 -3.52219,17.38649 0.78216,37.15775 11.70218,59.32326 7.67908,15.58703 8.38811,24.21831 9.27276,38.87756 0.49267,8.16388 -2.15691,44.44378 4.81057,75.74666 1.72396,7.74529 18.05537,5.25722 20.67897,12.55149 8.30341,23.08563 6.9213,61.80261 18.97099,75.39276 3.99632,4.50721 33.73211,-5.17077 39.06597,-2.07685 7.34616,4.26116 -25.08014,-33.61111 -40.59999,-76.07011 -9.11423,-24.93461 -5.79577,-47.4615 -1.48044,-76.06426 8.64811,-57.32122 -4.10613,-56.29598 7.61643,-50.47969 11.30061,5.42314 23.72135,8.39716 36.71875,8.34375 14.25758,-0.0586 19.64487,-1.72933 31.66878,-8.29219 4.64468,17.38844 15.68277,45.33796 19.15466,64.96637 0.9868,5.57888 6.4142,7.06962 6.2843,12.52741 -1.19546,50.22568 -52.94988,103.3822 -54.58901,121.04416 -0.72958,7.86141 26.16275,-1.77543 39.15149,3.89956 6.06719,2.65085 31.38953,-80.85557 46.04853,-158.58281 5.0409,-26.72863 9.01523,-51.63758 10.4375,-72.9375 14.80845,10.93014 32.45627,17.26512 51.34375,17.1875 2.95957,-0.0122 5.8951,-0.18115 8.78125,-0.5 -0.61789,18.7377 -1.4579,38.6719 -3.84375,58.9375 -8.91835,75.75323 -108.42502,136.45228 -101.00454,153.92584 1.30267,3.06749 27.73291,4.86237 36.94585,3.72803 12.98874,-1.59922 16.2473,-31.31479 47.61167,-73.93414 3.5932,-4.88261 19.29263,-4.91033 22.80976,-10.16334 14.37392,-21.46815 7.87307,-50.99721 35.07476,-72.99389 6.43858,-5.20656 5.18151,-52.01857 34.0208,-74.77234 23.48948,-18.53285 15.47881,-57.4547 10.38545,-70.38391 1.09875,-6.7311 1.66557,-13.69566 1.59375,-20.8125 -0.2304,-22.83218 -8.76363,-42.8378 -17.64006,-61.25113 -0.018,-0.0373 5.35977,0.75793 4.08617,-0.55534 -1.24616,-1.28498 2.21519,-0.9272 1.82729,-1.90719 -0.98071,-2.47771 2.9547,-1.88216 2.35678,-2.77214 -1.5571,-2.31767 0.17034,-1.77369 -0.77518,-2.47682 -2.8985,-2.15544 3.93137,-2.9756 2.80624,-3.28955 -2.297,-0.64095 -2.82506,-1.07322 -3.57301,-1.55661 -2.32127,-1.5002 5.29167,-3.36195 4.16083,-3.49968 -3.13394,-0.38169 -3.59943,-0.86842 -4.63647,-0.88634 -2.92885,-0.0506 4.64997,-3.09666 3.41845,-2.43061 -1.75372,0.94847 -2.69702,-2.31977 -4.08106,-1.35031 -0.89607,0.62766 3.48189,-5.24564 2.21709,-3.59771 -1.08785,1.41736 -2.44945,-3.26129 -3.96473,-0.62891 -0.60658,1.05377 0.85615,-7.97674 -0.53557,-5.3139 -0.6481,1.24004 -3.72294,-4.88933 -4.5332,-2.87323 -1.22218,3.04099 -0.70894,-8.20753 -1.85556,-5.09202 -1.11697,3.03495 -2.75177,-5.10451 -3.53809,-3.62003 -1.3442,2.53768 -3.83536,-6.45873 -4.64993,-4.02229 -0.59068,1.76678 1.72713,8.62502 1.18499,10.37838 -3.11294,10.06767 -8.6048,13.67558 -14.2178,7.44337 -11.57942,-12.85684 -41.26232,-21.46095 -56.12396,-21.39988 -34.74762,0.14279 -69.3649,29.47039 -71.50238,32.34422 -2.05252,2.16558 -7.69778,11.45949 -9.35819,9.71479 0,0 -6.13486,-10.02916 -16.06139,-22.40561 -9.04438,-11.27657 -21.23891,-25.42586 -35.15196,-29.72144 -1.93874,-6.51051 -21.27068,-12.31316 -28.8179,-24.22732 -7.23507,-11.4214 -36.90312,-16.05335 -64.92021,-14.94258 z"
       id="path3003"
       inkscape:connector-curvature="0"
       sodipodi:nodetypes="ssssssscscsssssssscscssssscscssssssscssssssssssssssssssssssccscss" />
    <path
       sodipodi:nodetypes="sscsss"
       inkscape:connector-curvature="0"
       id="path3144"
       d="m 253.11215,451.808 c -10.38718,9.59534 -31.74312,32.21398 -43.97386,51.99781 -6.80702,11.01069 -23.17384,-12.57101 -34.6668,-13.91327 43.50604,-60.91456 12.88809,-86.32666 43.47993,-121.22096 14.04247,-16.01742 42.49305,-8.50479 47.5111,10.79824 5.01806,19.30303 3.09405,58.07112 -12.35037,72.33818 z"
       style="fill:#93ac93;stroke:none" />
    <path
       style="fill:#917c6f;stroke:none"
       d="m 256.44808,334.30286 c -7.25295,24.03131 -1.31249,28.98067 -12.05024,39.61892 -9.18924,9.10409 -21.69411,-1.79371 -26.37373,-3.20608 -10.14783,-3.06274 -7.22354,-11.02684 6.23641,-55.62388 13.45994,-44.59705 42.65181,-73.1225 98.61378,-99.49396 -38.23677,65.48619 -52.96629,74.10794 -66.42624,118.70499 z"
       id="path3019"
       inkscape:connector-curvature="0"
       sodipodi:nodetypes="sssscs" />
    <path
       sodipodi:nodetypes="sssscs"
       inkscape:connector-curvature="0"
       id="path3022"
       d="m 233.12824,326.20948 c -5.95482,15.90031 -10.15915,40.84091 0.40374,50.3412 9.10728,8.19111 -20.09262,-8.27387 -23.54841,-9.31687 -7.49393,-2.26176 0.43278,-9.77123 13.89273,-54.36827 13.45995,-44.59705 45.64739,-70.81713 98.99802,-97.26767 -78.97773,47.13244 -81.93672,89.75938 -89.74608,110.61161 z"
       style="fill:#c8b7b7;stroke:none" />
    <path
       style="fill:#808080;stroke:none"
       d="m -23.158432,303.03791 c 0,8.89982 -13.001111,16.11456 -29.038802,16.11456 -16.037689,0 -29.038809,-7.21474 -29.038809,-16.11456 0,-8.89982 18.993204,-27.24333 35.030894,-27.24333 16.03769,0 23.046717,18.34351 23.046717,27.24333 z"
       id="path3072"
       inkscape:connector-curvature="0"
       sodipodi:nodetypes="sssss" />
    <path
       d="m 105.05586,402.32901 a 39.39595,24.748737 0 1 1 -78.791898,0 39.39595,24.748737 0 1 1 78.791898,0 z"
       sodipodi:ry="24.748737"
       sodipodi:rx="39.39595"
       sodipodi:cy="402.32901"
       sodipodi:cx="65.659912"
       id="path3054"
       style="fill:#000000;stroke:none"
       sodipodi:type="arc"
       transform="matrix(0.73710131,0,0,0.65112638,-100.59524,43.639059)" />
    <path
       sodipodi:type="arc"
       style="fill:#c8b7b7;stroke:none"
       id="path3028"
       sodipodi:cx="65.659912"
       sodipodi:cy="402.32901"
       sodipodi:rx="39.39595"
       sodipodi:ry="24.748737"
       d="m 105.05586,402.32901 a 39.39595,24.748737 0 1 1 -78.791898,0 39.39595,24.748737 0 1 1 78.791898,0 z"
       transform="matrix(0.69907658,0,0,0.59924131,-98.098543,65.155953)" />
    <path
       d="m 105.05586,402.32901 a 39.39595,24.748737 0 1 1 -78.791898,0 39.39595,24.748737 0 1 1 78.791898,0 z"
       sodipodi:ry="24.748737"
       sodipodi:rx="39.39595"
       sodipodi:cy="402.32901"
       sodipodi:cx="65.659912"
       id="path3030"
       style="fill:#e3dedb;stroke:none"
       sodipodi:type="arc"
       transform="matrix(0.6578831,0,0,0.53006129,-95.268943,92.133013)" />
    <path
       transform="matrix(0.40438476,0,0,0.48682378,-79.123603,108.24463)"
       sodipodi:type="arc"
       style="fill:#0000ff;stroke:none"
       id="path3032"
       sodipodi:cx="65.659912"
       sodipodi:cy="402.32901"
       sodipodi:rx="39.39595"
       sodipodi:ry="24.748737"
       d="m 105.05586,402.32901 a 39.39595,24.748737 0 1 1 -78.791898,0 39.39595,24.748737 0 1 1 78.791898,0 z" />
    <path
       d="m 105.05586,402.32901 a 39.39595,24.748737 0 1 1 -78.791898,0 39.39595,24.748737 0 1 1 78.791898,0 z"
       sodipodi:ry="24.748737"
       sodipodi:rx="39.39595"
       sodipodi:cy="402.32901"
       sodipodi:cx="65.659912"
       id="path3034"
       style="fill:#00ffff;stroke:none"
       sodipodi:type="arc"
       transform="matrix(0.36002254,0,0,0.42196751,-76.460453,133.80315)" />
    <path
       id="path3045"
       d="m -46.663901,295.35289 c -1.310308,0 -2.471816,1.2779 -3.200504,3.24552 -0.76343,-0.0779 -1.584232,-0.12526 -2.438479,-0.12526 -1.135198,0 -2.202689,0.0826 -3.164644,0.21637 -0.729565,-1.9454 -1.880957,-3.21136 -3.182574,-3.21136 -2.206835,0 -3.998389,3.61752 -3.998389,8.07394 0,4.45642 1.791554,8.07394 3.998389,8.07394 1.488465,0 2.781879,-1.65086 3.469454,-4.08822 0.886169,0.10977 1.855214,0.18221 2.877764,0.18221 0.77692,0 1.528825,-0.0376 2.232285,-0.10249 0.701958,2.31884 1.962307,3.87185 3.406698,3.87185 2.206835,0 3.998389,-3.60614 3.998389,-8.06256 0,-4.45641 -1.791554,-8.07394 -3.998389,-8.07394 z"
       style="fill:#000000;stroke:none"
       inkscape:connector-curvature="0" />
    <path
       sodipodi:nodetypes="scsss"
       inkscape:connector-curvature="0"
       id="path3050"
       d="m -41.368536,313.71063 c -2.089488,-1.20022 -6.7414,-4.25446 -7.673039,-7.27624 7.697393,2.90405 7.643922,1.32018 12.279905,3.49738 2.128036,0.99938 2.530242,3.70466 0.8426,4.48793 -1.687639,0.78326 -3.436616,0.44711 -5.449466,-0.70907 z"
       style="fill:#ffffff;stroke:none" />
    <path
       style="fill:#ffffff;stroke:none"
       d="m -53.663548,305.88344 c -0.985005,-0.65045 -3.17796,-2.3057 -3.617143,-3.94336 3.628624,1.57386 3.603418,0.71547 5.788864,1.89541 1.003176,0.54161 1.19278,2.00775 0.39721,2.43224 -0.795569,0.42449 -1.620054,0.24231 -2.568931,-0.38429 z"
       id="path3052"
       inkscape:connector-curvature="0"
       sodipodi:nodetypes="scsss" />
    <path
       sodipodi:nodetypes="sssss"
       inkscape:connector-curvature="0"
       id="path3075"
       d="m 246.84157,429.47863 c 0,8.55377 -10.44274,15.48798 -23.32452,15.48798 -12.88177,0 -23.32452,-6.93421 -23.32452,-15.48798 0,-8.55378 15.2557,-26.18405 28.13747,-26.18405 12.88178,0 18.51157,17.63027 18.51157,26.18405 z"
       style="fill:#808080;stroke:none" />
    <path
       transform="matrix(0.59205378,0,0,0.62580906,184.64285,180.16581)"
       sodipodi:type="arc"
       style="fill:#000000;stroke:none"
       id="path3077"
       sodipodi:cx="65.659912"
       sodipodi:cy="402.32901"
       sodipodi:rx="39.39595"
       sodipodi:ry="24.748737"
       d="m 105.05586,402.32901 a 39.39595,24.748737 0 1 1 -78.791898,0 39.39595,24.748737 0 1 1 78.791898,0 z" />
    <path
       d="m 105.05586,402.32901 a 39.39595,24.748737 0 1 1 -78.791898,0 39.39595,24.748737 0 1 1 78.791898,0 z"
       sodipodi:ry="24.748737"
       sodipodi:rx="39.39595"
       sodipodi:cy="402.32901"
       sodipodi:cx="65.659912"
       id="path3079"
       style="fill:#c8b7b7;stroke:none"
       sodipodi:type="arc"
       transform="matrix(0.56151159,0,0,0.5759414,186.64825,200.84607)" />
    <path
       transform="matrix(0.5284242,0,0,0.50945127,188.92103,226.77421)"
       sodipodi:type="arc"
       style="fill:#e3dedb;stroke:none"
       id="path3081"
       sodipodi:cx="65.659912"
       sodipodi:cy="402.32901"
       sodipodi:rx="39.39595"
       sodipodi:ry="24.748737"
       d="m 105.05586,402.32901 a 39.39595,24.748737 0 1 1 -78.791898,0 39.39595,24.748737 0 1 1 78.791898,0 z" />
    <path
       d="m 105.05586,402.32901 a 39.39595,24.748737 0 1 1 -78.791898,0 39.39595,24.748737 0 1 1 78.791898,0 z"
       sodipodi:ry="24.748737"
       sodipodi:rx="39.39595"
       sodipodi:cy="402.32901"
       sodipodi:cx="65.659912"
       id="path3083"
       style="fill:#0000ff;stroke:none"
       sodipodi:type="arc"
       transform="matrix(0.32480952,0,0,0.46789493,201.88928,242.25937)" />
    <path
       transform="matrix(0.28917695,0,0,0.40556043,204.02837,266.82411)"
       sodipodi:type="arc"
       style="fill:#00ffff;stroke:none"
       id="path3085"
       sodipodi:cx="65.659912"
       sodipodi:cy="402.32901"
       sodipodi:rx="39.39595"
       sodipodi:ry="24.748737"
       d="m 105.05586,402.32901 a 39.39595,24.748737 0 1 1 -78.791898,0 39.39595,24.748737 0 1 1 78.791898,0 z" />
    <path
       inkscape:connector-curvature="0"
       style="fill:#000000;stroke:none"
       d="m 227.96153,422.09242 c -1.05246,0 -1.98541,1.22821 -2.57071,3.11933 -0.6132,-0.0749 -1.27248,-0.1204 -1.95863,-0.1204 -0.91181,0 -1.76924,0.0794 -2.5419,0.20796 -0.586,-1.86976 -1.51082,-3.08649 -2.5563,-3.08649 -1.77258,0 -3.21159,3.47686 -3.21159,7.76001 0,4.28313 1.43901,7.76 3.21159,7.76 1.19556,0 2.23445,-1.58667 2.78673,-3.92926 0.71178,0.1055 1.49014,0.17512 2.31147,0.17512 0.62404,0 1.22798,-0.0361 1.79302,-0.0985 0.56382,2.22868 1.57616,3.7213 2.73632,3.7213 1.77257,0 3.21158,-3.46592 3.21158,-7.74907 0,-4.28313 -1.43901,-7.76 -3.21158,-7.76 z"
       id="path3087" />
    <path
       style="fill:#ffffff;stroke:none"
       d="m 232.21487,439.73636 c -1.67832,-1.15355 -5.41482,-4.08903 -6.16314,-6.99331 6.1827,2.79113 6.13975,1.26884 9.86346,3.36139 1.70928,0.96052 2.03233,3.56061 0.67679,4.31342 -1.35554,0.75281 -2.76035,0.42973 -4.37711,-0.6815 z"
       id="path3089"
       inkscape:connector-curvature="0"
       sodipodi:nodetypes="scsss" />
    <path
       sodipodi:nodetypes="scsss"
       inkscape:connector-curvature="0"
       id="path3091"
       d="m 222.33928,432.21352 c -0.79117,-0.62517 -2.5526,-2.21606 -2.90536,-3.79003 2.91458,1.51265 2.89433,0.68765 4.64973,1.8217 0.80577,0.52056 0.95806,1.92968 0.31904,2.33767 -0.63902,0.40798 -1.30126,0.23289 -2.06341,-0.36934 z"
       style="fill:#ffffff;stroke:none" />
    <path
       transform="matrix(1.6903226,0,0,2.0928962,-205.73041,-118.82284)"
       style="fill:#cdde87;stroke:none"
       d="m 113.68184,279.14462 c 0,18.04788 10.00428,25.51147 -5.28217,25.51147 -15.28645,0 -49.112957,-44.33893 -48.173389,-62.37085 0.184888,-3.54831 14.853482,-10.73592 24.084429,-11.09069 12.136497,-0.46643 15.417818,2.98504 20.49709,6.2273 7.21447,4.60522 6.76004,3.36894 6.31966,10.88273 -0.9713,16.57236 2.55438,23.64907 2.55438,30.84004 z"
       id="path3093"
       inkscape:connector-curvature="0"
       sodipodi:nodetypes="sssssss" />
    <path
       sodipodi:nodetypes="ssssss"
       inkscape:connector-curvature="0"
       id="path3096"
       d="m -41.816703,483.61216 c 10.357143,23.48662 45.6962399,31.10695 26.938998,35.17857 -34.55121,7.5 -90.238945,-92.79678 -89.059195,-130.53571 0.26529,-8.48661 25.63232,-28.73201 41.569751,-18.03571 9.0464,6.07143 16.110338,29.55084 15.557386,45.27642 -1.21959,34.68423 -1.079445,54.34596 4.99306,68.11643 z"
       style="fill:#f4eed7;stroke:none" />
    <path
       sodipodi:nodetypes="ssssssssssssssssssssss"
       inkscape:connector-curvature="0"
       id="path3098"
       d="m 348.2271,449.67701 c 0,21.29253 9.87614,55.45695 5.48134,46.44011 -7.68958,-15.77682 0.0897,13.39495 -1.21233,10.73866 -5.09428,-10.39253 2.29967,16.07165 0.0184,11.85446 -8.68471,-16.05455 -10.59484,-7.48047 -13.78168,-7.48047 -27.47619,0 -88.27674,-106.9787 -86.5879,-150.48518 0.0908,-2.33929 -1.89938,-6.86726 4.89865,-14.84529 2.10173,-2.46655 16.28141,-20.12575 14.43695,-16.61039 -3.64991,6.9564 23.50812,-8.74329 21.65789,-5.07053 -4.21991,8.37666 26.57959,-7.37836 23.04638,-0.48285 -3.82511,7.46518 16.09812,1.85573 12.42232,3.89751 -7.38382,4.10144 13.45248,5.64604 9.9077,6.5888 -14.81199,3.93935 0.65146,5.65336 -2.43646,5.79501 -10.88111,0.49912 11.69659,5.5936 5.51427,5.27863 -8.11088,-0.41322 -10.31112,-0.70886 -8.0659,1.21497 1.36576,1.17026 17.88569,12.10935 16.1989,11.62665 -10.30779,-2.94967 2.73489,16.04719 -0.79958,13.25426 -11.51102,-9.096 -5.02703,-2.15204 -5.29024,3.87638 -0.11374,2.60508 14.15379,24.02626 10.73509,21.61632 -7.63818,-5.38437 2.39705,35.13339 -1.64789,24.62081 -6.27084,-16.29755 3.97277,28.04534 0.55076,20.82696 -9.32546,-19.67109 -5.04665,3.70598 -5.04665,7.34518 z"
       style="fill:#9dac93;stroke:none" />
    <path
       style="fill:#f4eed7;stroke:none"
       d="m 318.19219,470.67494 c 4.60239,11.31487 30.08404,30.22916 21.58791,25.39815 -13.7797,-7.83533 6.56115,5.52778 -2.46425,2.6699 -4.16628,-1.31924 9.45263,7.80243 4.13773,6.37185 -9.67946,-2.60537 9.32696,14.20646 6.88447,14.86493 -2.02044,0.54469 -23.01578,-13.1799 -17.84151,-3.36091 3.9807,7.55401 -15.98752,-20.5708 -13.32028,-14.84189 4.47219,9.60573 -10.99839,-18.27035 -9.35725,-11.69505 4.24497,17.00765 -15.72922,-27.46205 -12.44096,-10.88279 1.69474,8.5448 -7.4388,-16.18289 -12.00923,-24.40301 -18.46411,-33.20846 -31.85069,-72.62152 -31.23276,-94.05153 0.28211,-9.7836 27.25639,-33.12307 44.20361,-20.79207 4.36542,3.17633 18.71885,24.58665 11.23392,19.21671 -5.21482,-3.74129 5.63034,23.07731 5.30918,32.97921 -0.25891,7.98262 4.65298,26.14218 -0.56515,21.96088 -4.12033,-3.30163 20.54668,41.80056 12.85106,28.51518 -0.98668,-1.70338 -7.76827,-4.30816 -9.18704,-0.0184 -1.0988,3.32235 8.4449,15.00526 3.24909,14.2071 -8.36693,-1.28528 -1.82356,11.93178 -1.03854,13.86173 z"
       id="path3100"
       inkscape:connector-curvature="0"
       sodipodi:nodetypes="cssssssssssssssssssc" />
    <path
       sodipodi:nodetypes="scsss"
       inkscape:connector-curvature="0"
       id="path3108"
       d="m 189.69469,554.40425 c 0.48742,15.96713 -5.92465,45.39879 -8.01326,70.81508 -3.20273,-47.65556 6.08374,-36.89 4.55183,-68.74233 -0.70318,-14.62105 -9.21684,-34.82909 -7.19786,-34.82909 2.01898,0 10.18974,17.37485 10.65929,32.75634 z"
       style="fill:#000000;stroke:none" />
    <path
       style="fill:#cdde87;stroke:none"
       d="m 165.18146,555.11853 c -0.48743,15.96713 5.92464,45.39879 8.01325,70.81508 3.20273,-47.65556 -6.08374,-36.89 -4.55183,-68.74233 0.70318,-14.62105 9.21684,-34.82909 7.19786,-34.82909 -2.01898,0 -10.18974,17.37485 -10.65928,32.75634 z"
       id="path3110"
       inkscape:connector-curvature="0"
       sodipodi:nodetypes="scsss" />
    <path
       sodipodi:nodetypes="scsss"
       inkscape:connector-curvature="0"
       id="path3112"
       d="m 176.82297,554.27988 c -0.99667,15.94345 -10.11276,44.65293 -14.55137,69.76565 1.23425,-47.74711 9.48143,-36.1661 10.91251,-68.02311 0.65691,-14.62321 -5.94439,-35.53421 -3.93413,-35.34682 2.01027,0.18739 8.53311,18.24561 7.57299,33.60428 z"
       style="fill:#445016;stroke:none" />
    <path
       style="fill:#eeffaa;stroke:none"
       d="m 180.88634,541.66211 c -0.31326,10.6264 3.80764,30.21367 5.14994,47.12865 2.05833,-31.71559 -3.90988,-24.55093 -2.92536,-45.7492 0.45192,-9.73056 5.92346,-23.17936 4.62591,-23.17936 -1.29755,0 -6.54872,11.56326 -6.85049,21.79991 z"
       id="path3114"
       inkscape:connector-curvature="0"
       sodipodi:nodetypes="scsss" />
    <path
       sodipodi:nodetypes="scsss"
       inkscape:connector-curvature="0"
       id="path3116"
       d="m 158.38634,540.59068 c -0.31326,10.6264 3.80764,30.21367 5.14994,47.12865 2.05833,-31.71559 -3.90988,-24.55093 -2.92536,-45.7492 0.45192,-9.73056 5.92346,-23.17936 4.62591,-23.17936 -1.29755,0 -6.54872,11.56326 -6.85049,21.79991 z"
       style="fill:#eeffaa;stroke:none" />
    <path
       style="fill:#d3bc5f;stroke:none"
       d="m 168.27553,537.01925 c 0.31326,10.6264 -3.80764,30.21367 -5.14994,47.12865 -2.05833,-31.71559 3.90988,-24.55093 2.92536,-45.7492 -0.45192,-9.73056 -5.92346,-23.17936 -4.62591,-23.17936 1.29755,0 6.54872,11.56326 6.85049,21.79991 z"
       id="path3118"
       inkscape:connector-curvature="0"
       sodipodi:nodetypes="scsss" />
    <path
       sodipodi:nodetypes="scsss"
       inkscape:connector-curvature="0"
       id="path3120"
       d="m 181.48982,550.90271 c 0.31326,14.2603 -3.80764,40.54581 -5.14994,63.24519 -2.05833,-42.56134 3.90988,-32.94659 2.92536,-61.39401 -0.45192,-13.05811 -5.92346,-31.10598 -4.62591,-31.10598 1.29755,0 6.54872,15.51754 6.85049,29.2548 z"
       style="fill:#d3bc5f;stroke:none" />
    <path
       style="fill:#d3bc5f;stroke:none"
       d="m 167.31491,556.56864 c -0.31326,16.84807 3.80764,47.90354 5.14994,74.72211 2.05833,-50.28482 -3.90988,-38.92531 -2.92536,-72.535 0.45192,-15.42773 5.92346,-36.7507 4.62591,-36.7507 -1.29755,0 -6.54872,18.33346 -6.85049,34.56359 z"
       id="path3122"
       inkscape:connector-curvature="0"
       sodipodi:nodetypes="scsss" />
    <path
       style="fill:#000000;stroke:none"
       d="m 195.76102,535.69661 c 0.58181,8.34411 -7.072,23.72453 -9.56508,37.00659 -3.82296,-24.90387 7.26189,-19.278 5.43332,-35.92341 -0.83935,-7.64067 -11.00174,-18.201 -8.59177,-18.201 2.40997,0 12.16305,9.07975 12.72353,17.11782 z"
       id="path3124"
       inkscape:connector-curvature="0"
       sodipodi:nodetypes="scsss" />
    <path
       sodipodi:nodetypes="scsss"
       inkscape:connector-curvature="0"
       id="path3126"
       d="m 166.50065,536.06988 c -0.58182,8.34411 7.07199,23.72453 9.56507,37.00659 3.82296,-24.90387 -7.26189,-19.278 -5.43332,-35.92341 0.83935,-7.64068 11.00173,-18.20101 8.59177,-18.20101 -2.40997,0 -12.16305,9.07976 -12.72352,17.11783 z"
       style="fill:#cdde87;stroke:none" />
    <path
       sodipodi:nodetypes="scsss"
       inkscape:connector-curvature="0"
       id="path3160"
       d="m 136.42352,514.49259 c -8.24032,13.14554 -5.89865,52.53394 -8.23591,76.84749 7.9997,-19.83178 0.7966,-54.97886 11.68438,-76.5991 6.27137,-12.45329 30.97814,-25.82845 28.80468,-26.54061 -2.17347,-0.71216 -24.31509,13.62885 -32.25315,26.29222 z"
       style="fill:#7c916f;stroke:none" />
    <path
       style="fill:#445016;stroke:none"
       d="m 180.39661,535.63162 c -1.18968,8.33174 -12.07115,23.33475 -17.36933,36.45817 1.47327,-24.95171 11.31757,-18.8997 13.02578,-35.54755 0.78413,-7.64181 -7.09555,-18.56949 -4.69599,-18.47156 2.39957,0.0979 10.18559,9.5348 9.03954,17.56094 z"
       id="path3128"
       inkscape:connector-curvature="0"
       sodipodi:nodetypes="scsss" />
    <path
       sodipodi:nodetypes="scsss"
       inkscape:connector-curvature="0"
       id="path3130"
       d="m 185.24688,529.03782 c -0.37393,5.55315 4.54501,15.78908 6.14725,24.62852 2.45694,-16.57396 -4.66705,-12.82984 -3.49187,-23.90765 0.53944,-5.085 7.07057,-12.11308 5.52175,-12.11308 -1.54883,0 -7.81692,6.04273 -8.17713,11.39221 z"
       style="fill:#eeffaa;stroke:none" />
    <path
       style="fill:#eeffaa;stroke:none"
       d="m 158.38962,528.47791 c -0.37393,5.55315 4.54501,15.78908 6.14726,24.62852 2.45693,-16.57395 -4.66706,-12.82984 -3.49188,-23.90765 0.53944,-5.085 7.07058,-12.11308 5.52175,-12.11308 -1.54883,0 -7.81692,6.04274 -8.17713,11.39221 z"
       id="path3132"
       inkscape:connector-curvature="0"
       sodipodi:nodetypes="scsss" />
    <path
       sodipodi:nodetypes="scsss"
       inkscape:connector-curvature="0"
       id="path3134"
       d="m 170.19391,526.61155 c 0.37392,5.55315 -4.54501,15.78908 -6.14726,24.62852 -2.45694,-16.57395 4.66705,-12.82984 3.49188,-23.90765 -0.53944,-5.085 -7.07058,-12.11308 -5.52175,-12.11308 1.54883,0 7.81692,6.04274 8.17713,11.39221 z"
       style="fill:#d3bc5f;stroke:none" />
    <path
       style="fill:#d3bc5f;stroke:none"
       d="m 185.96723,533.86678 c 0.37392,7.45215 -4.54502,21.18845 -6.14726,33.0507 -2.45694,-22.24173 4.66705,-17.21724 3.49187,-32.08331 -0.53943,-6.82392 -7.07057,-16.25538 -5.52174,-16.25538 1.54883,0 7.81692,8.10916 8.17713,15.28799 z"
       id="path3136"
       inkscape:connector-curvature="0"
       sodipodi:nodetypes="scsss" />
    <path
       sodipodi:nodetypes="scsss"
       inkscape:connector-curvature="0"
       id="path3138"
       d="m 169.04726,534.05341 c -0.37393,7.45216 4.54501,21.18845 6.14726,33.05071 2.45693,-22.24173 -4.66706,-17.21725 -3.49188,-32.08332 0.53944,-6.82391 7.07058,-16.25538 5.52175,-16.25538 -1.54883,0 -7.81692,8.10917 -8.17713,15.28799 z"
       style="fill:#d3bc5f;stroke:none" />
    <path
       style="fill:#000000;stroke:none"
       d="m 170.52491,562.32923 c -0.23409,19.65609 2.84536,55.88748 3.84844,87.17581 1.53814,-58.66564 -2.92177,-45.41286 -2.18606,-84.62418 0.33771,-17.99902 4.42647,-42.87581 3.45684,-42.87581 -0.96964,0 -4.89372,21.38904 -5.11922,40.32418 z"
       id="path3140"
       inkscape:connector-curvature="0"
       sodipodi:nodetypes="scsss" />
    <path
       sodipodi:nodetypes="scsss"
       inkscape:connector-curvature="0"
       id="path3164"
       d="m 130.13965,509.57507 c -9.05045,12.60148 -3.83252,45.98775 -4.12228,68.32056 9.94495,-21.78963 -2.60625,-41.27057 5.40546,-63.57016 5.72288,-15.92895 39.32635,-24.18697 37.20196,-25.03436 -2.1244,-0.84739 -29.76667,8.14469 -38.48514,20.28396 z"
       style="fill:#aa8800;stroke:none" />
    <path
       style="fill:#1a1a1a;stroke:none"
       d="m 137.13942,517.3683 c -6.44301,14.11367 1.04999,52.85363 1.92527,77.26358 5.32658,-20.71044 -6.42889,-54.6075 1.52596,-77.47012 4.58199,-13.16889 27.31875,-29.6722 25.0706,-30.09283 -2.24816,-0.42062 -22.31516,16.70338 -28.52183,30.29937 z"
       id="path3162"
       inkscape:connector-curvature="0"
       sodipodi:nodetypes="scsss" />
    <path
       sodipodi:nodetypes="scsss"
       inkscape:connector-curvature="0"
       id="path3102"
       d="m 161.58465,520.41617 c -5.62833,-6.86066 -16.36022,-24.24453 -7.16608,-41.03099 13.59004,3.68271 59.89572,16.91841 56.24424,22.83037 -2.67639,4.33323 -10.2089,18.59321 -23.00388,22.72756 -12.79498,4.13435 -20.65237,2.08209 -26.07428,-4.52694 z"
       style="fill:#c8c4b7;stroke:none" />
    <path
       sodipodi:nodetypes="scsss"
       inkscape:connector-curvature="0"
       id="path3106"
       d="m 173.70862,496.10443 c -0.38751,2.12702 -1.96371,6.96331 -6.77888,8.56777 -1.40532,-7.43528 -4.31487,-6.97104 -4.36195,-11.56213 -0.0216,-2.10743 4.67225,-3.16969 7.63136,-1.91417 2.95912,1.25551 3.88277,2.85952 3.50947,4.90853 z"
       style="fill:#6c6753;stroke:none" />
    <path
       style="fill:#241f1c;stroke:none"
       d="m 170.87897,496.26348 c -0.25182,1.9102 -1.2761,6.25352 -4.4052,7.69444 -0.91323,-6.67739 -2.80398,-6.26047 -2.83458,-10.38358 -0.014,-1.89262 3.03623,-2.8466 4.95918,-1.71906 1.92296,1.12753 2.52318,2.56804 2.2806,4.4082 z"
       id="path3142"
       inkscape:connector-curvature="0"
       sodipodi:nodetypes="scsss" />
    <path
       style="fill:#7c916f;stroke:none"
       d="m 156.9044,539.41055 c -0.37393,7.45216 4.54501,21.18845 6.14726,33.05071 2.45693,-22.24173 -4.66706,-17.21725 -3.49188,-32.08332 0.53944,-6.82391 7.07058,-16.25538 5.52175,-16.25538 -1.54883,0 -7.81692,8.10917 -8.17713,15.28799 z"
       id="path3146"
       inkscape:connector-curvature="0"
       sodipodi:nodetypes="scsss" />
    <path
       sodipodi:nodetypes="scsss"
       inkscape:connector-curvature="0"
       id="path3148"
       d="m 185.29825,554.12774 c 0.37393,13.23337 -4.54501,37.62594 -6.14726,58.69066 -2.45693,-39.49633 4.66706,-30.57398 3.49188,-56.97279 -0.53944,-12.11773 -7.07058,-28.86591 -5.52175,-28.86591 1.54883,0 7.81692,14.40007 8.17713,27.14804 z"
       style="fill:#7c916f;stroke:none" />
    <path
       style="fill:#7c916f;stroke:none"
       d="m 187.86728,543.39716 c 2.29396,8.87366 11.44075,23.76071 17.01944,37.30993 -5.67058,-26.83573 -10.15059,-19.05224 -14.3503,-36.8665 -1.92776,-8.17721 0.48181,-20.99504 -0.87652,-20.58922 -1.35834,0.40583 -4.00244,11.59759 -1.79262,20.14579 z"
       id="path3150"
       inkscape:connector-curvature="0"
       sodipodi:nodetypes="scsss" />
    <path
       sodipodi:nodetypes="scsss"
       inkscape:connector-curvature="0"
       id="path3154"
       d="m 192.15649,500.93106 c 5.24816,7.51404 10.60672,24.14455 17.26985,37.19468 -16.69546,-21.76175 -7.86943,-20.1021 -18.66909,-34.87886 -4.95734,-6.7829 -16.26067,-13.28964 -15.06893,-14.05745 1.19175,-0.76779 11.4125,4.50317 16.46817,11.74163 z"
       style="fill:#7c916f;stroke:none" />
    <path
       sodipodi:nodetypes="scsss"
       inkscape:connector-curvature="0"
       id="path3156"
       d="m 205.78925,521.01092 c 9.99445,16.93553 12.55138,70.22426 17.96244,102.76214 -10.58746,-25.96661 -7.68787,-73.99852 -21.42542,-102.10292 -7.91285,-16.18818 -34.62019,-31.88328 -32.50713,-33.04734 2.11308,-1.16406 26.34224,16.07376 35.97011,32.38812 z"
       style="fill:#000000;stroke:none" />
    <path
       style="fill:#c8ab37;stroke:none"
       d="m 204.35949,523.78562 c 8.3852,17.78734 6.00236,71.08414 8.38072,103.98303 -8.14036,-26.83456 -0.81061,-74.39239 -11.88983,-103.64694 -6.38164,-16.85066 -31.52282,-34.94871 -29.31115,-35.91234 2.21169,-0.96363 24.74262,18.44132 32.82026,35.57625 z"
       id="path3158"
       inkscape:connector-curvature="0"
       sodipodi:nodetypes="scsss" />
    <path
       style="fill:#93ac93;stroke:none"
       d="m 449.08174,493.22425 c -10.38718,9.59534 -18.06344,70.43309 -18.06344,70.43309 -4.16155,0.13457 0.49094,-30.53895 -11.63099,-33.58953 -2.29772,-0.57824 -5.83606,-8.03347 -13.12273,-4.71486 -5.14691,2.3441 -11.48342,0.43378 -16.91726,4.56907 -9.44834,7.19043 -24.13168,26.51761 -24.21424,24.51153 -0.28192,-6.84987 12.61923,-21.11978 17.41855,-26.03945 5.64823,-5.78987 16.28762,-6.98233 21.3255,-11.68202 3.55099,-3.31262 17.09151,-6.43336 18.3575,-12.54572 4.23222,-20.43349 -20.30431,-61.96867 -23.97098,-96.60391 -0.99244,-9.37456 21.39404,-17.68367 29.1518,-24.69534 6.9435,-6.27572 20.47002,-7.58621 34.79117,10.70862 5.24043,6.6945 -20.21211,17.43251 -0.77451,27.31034 6.8389,3.4754 1.80357,16.90901 7.91152,23.92448 11.65903,13.39135 -10.75787,39.63419 -20.26189,48.4137 z"
       id="path3166"
       inkscape:connector-curvature="0"
       sodipodi:nodetypes="sssssssssssssss" />
    <path
       sodipodi:nodetypes="csscssssccc"
       inkscape:connector-curvature="0"
       id="path3168"
       d="m 577.67416,515.54862 c 2.79849,10.98839 1.37117,25.99745 -3.18592,37.50831 -5.91936,14.95187 -18.97592,22.85204 -22.08346,20.49199 -11.48339,-8.72117 -14.85174,-30.18265 -28.26465,-32.26842 -6.74277,-1.69687 -40.04085,21.57395 -37.28367,17.64822 9.3917,-13.37207 27.72169,-39.66699 44.75445,-58.22756 13.86957,-15.11364 21.07034,-14.65634 16.30684,-59.65216 -0.99244,-9.37456 5.83769,-24.04763 -9.73908,-45.55499 -5.4899,-7.58009 2.13575,-6.57605 16.4569,11.71878 0.94144,3.09522 15.72331,41.63837 15.72331,41.63837 11.65903,13.39135 7.21253,63.40985 7.31528,66.69746 z"
       style="fill:#93ac93;stroke:none" />
    <path
       style="fill:#9dac93;stroke:none"
       d="m 285.87824,666.79968 c 0,0 -1.26182,35.14659 -5.23587,17.20255 -5.54953,-25.05781 -37.5177,-110.43495 -34.72839,-109.14019 16.15047,8.88868 42.94703,12.99185 45.10287,18.94676 3.68142,24.26144 -3.45243,51.8274 -5.13861,72.99088 z"
       id="path3170"
       inkscape:connector-curvature="0"
       sodipodi:nodetypes="csccc" />
    <path
       sodipodi:nodetypes="ccsccc"
       inkscape:connector-curvature="0"
       id="path3172"
       d="m 300.00655,753.61461 c -11.79288,-21.06802 -10.50048,-23.58854 -26.6662,-33.19714 -6.4274,-2.5827 -11.96912,-3.35191 -17.68698,-4.03336 -4.24206,-0.50557 -7.84058,-7.90324 -4.66604,-7.17824 18.381,4.97715 32.52737,-1.18217 34.98095,2.15224 4.18986,13.58502 15.95733,30.40617 14.03827,42.2565 z"
       style="fill:#9dac93;stroke:none" />
    <path
       style="fill:#9dac93;stroke:none"
       d="m 307.73387,777.04263 c -2.07061,27.39743 17.8057,12.81694 17.8057,12.81694 4.2381,0.53771 6.77027,8.9726 3.60132,8.22355 -21.3732,-0.0656 -36.07093,4.97617 -38.49916,1.62326 0,0 -4.86136,-4.81076 -4.3625,-8.31799 0.57167,-4.01914 14.36251,4.8277 21.45464,-14.34576 z"
       id="path3174"
       inkscape:connector-curvature="0"
       sodipodi:nodetypes="ccccsc" />
    <path
       sodipodi:nodetypes="ccccc"
       inkscape:connector-curvature="0"
       id="path3176"
       d="m 351.17043,778.55786 c -11.66706,29.92281 23.86662,9.78648 23.86662,9.78648 4.2381,0.53771 4.24489,9.47768 1.07594,8.72863 -21.3732,-0.0656 -39.10139,1.94571 -41.52962,-1.4072 2.47924,-3.51489 7.00207,-3.25217 16.58706,-17.10791 z"
       style="fill:#9dac93;stroke:none" />
    <path
       sodipodi:nodetypes="ccccsc"
       inkscape:connector-curvature="0"
       id="path3178"
       d="m 406.72882,777.5477 c -11.66706,29.92281 27.90723,8.77633 27.90723,8.77633 4.2381,0.53771 -4.34141,13.51829 -7.51036,12.76924 -21.3732,-0.0656 -37.58615,1.44063 -40.01438,-1.91228 0,0 0.18939,-6.32598 1.6984,-8.82306 2.09964,-3.47445 12.34221,-2.74845 17.91911,-10.81023 z"
       style="fill:#9dac93;stroke:none" />
    <path
       style="fill:#9dac93;stroke:none"
       d="m 380.80094,712.60241 c 11.79288,-21.06802 10.50048,-31.01316 17.47381,-36.02556 6.4274,-2.5827 8.86275,1.07277 14.15145,-1.20494 0,0 1.12306,-6.84257 1.1305,-6.82468 -18.381,4.97715 -26.16341,-7.54613 -28.61699,-4.21172 -0.40586,0.91463 5.25034,7.00744 4.25259,14.31118 -1.47999,10.83371 -9.53764,26.87738 -8.39136,33.95572 z"
       id="path3180"
       inkscape:connector-curvature="0"
       sodipodi:nodetypes="ccsccsc" />
  </g>
</svg>
