<?xml version="1.0" encoding="UTF-8" standalone="no"?>
<!-- Created with Inkscape (http://www.inkscape.org/) -->

<svg
   xmlns:dc="http://purl.org/dc/elements/1.1/"
   xmlns:cc="http://creativecommons.org/ns#"
   xmlns:rdf="http://www.w3.org/1999/02/22-rdf-syntax-ns#"
   xmlns:svg="http://www.w3.org/2000/svg"
   xmlns="http://www.w3.org/2000/svg"
   xmlns:xlink="http://www.w3.org/1999/xlink"
   xmlns:sodipodi="http://sodipodi.sourceforge.net/DTD/sodipodi-0.dtd"
   xmlns:inkscape="http://www.inkscape.org/namespaces/inkscape"
   width="744.09448819"
   height="1052.3622047"
   id="svg2995"
   version="1.1"
   inkscape:version="0.48.4 r9939"
   sodipodi:docname="Title.png">
  <defs
     id="defs2997">
    <linearGradient
       inkscape:collect="always"
       id="linearGradient3228">
      <stop
         style="stop-color:#d5e5ff;stop-opacity:1;"
         offset="0"
         id="stop3230" />
      <stop
         style="stop-color:#d5e5ff;stop-opacity:0;"
         offset="1"
         id="stop3232" />
    </linearGradient>
    <linearGradient
       inkscape:collect="always"
       xlink:href="#linearGradient3228"
       id="linearGradient3234"
       x1="90"
       y1="675.36218"
       x2="129"
       y2="344.36218"
       gradientUnits="userSpaceOnUse"
       gradientTransform="matrix(1,0,0,1.606264,0,-527.06298)" />
  </defs>
  <sodipodi:namedview
     id="base"
     pagecolor="#ffffff"
     bordercolor="#666666"
     borderopacity="1.0"
     inkscape:pageopacity="0.0"
     inkscape:pageshadow="2"
     inkscape:zoom="1"
     inkscape:cx="125.26174"
     inkscape:cy="630.96143"
     inkscape:document-units="px"
     inkscape:current-layer="layer1"
     showgrid="false"
     inkscape:window-width="1457"
     inkscape:window-height="1003"
     inkscape:window-x="444"
     inkscape:window-y="-10"
     inkscape:window-maximized="0" />
  <metadata
     id="metadata3000">
    <rdf:RDF>
      <cc:Work
         rdf:about="">
        <dc:format>image/svg+xml</dc:format>
        <dc:type
           rdf:resource="http://purl.org/dc/dcmitype/StillImage" />
        <dc:title></dc:title>
      </cc:Work>
    </rdf:RDF>
  </metadata>
  <g
     inkscape:label="Layer 1"
     inkscape:groupmode="layer"
     id="layer1">
    <rect
       ry="5.6555486"
       rx="436.80615"
       y="145.36218"
       x="-4"
       height="662"
       width="748"
       id="rect3226"
       style="fill:#0b1728;stroke:none" />
    <rect
       style="fill:url(#linearGradient3234);fill-opacity:1;stroke:none"
       id="rect3224"
       width="748"
       height="718"
       x="-2"
       y="151.36218"
       rx="436.80615"
       ry="6.1339631" />
    <path
       sodipodi:nodetypes="sssscs"
       inkscape:connector-curvature="0"
       id="path3024"
       d="m 535.2392,562.82714 c 1.306,10.22314 4.44386,11.09373 2.11733,16.86966 -1.99104,4.94296 -8.67821,2.93051 -10.72535,3.17782 -4.43923,0.5363 -4.67114,-2.93818 -7.09479,-21.91015 -2.42365,-18.97199 3.96896,-34.52597 21.06016,-53.71843 -3.56959,30.92686 -7.78102,36.60913 -5.35736,55.5811 z"
       style="fill:#917c6f;stroke:none" />
    <path
       style="fill:#c8b7b7;stroke:none"
       d="m 524.85754,563.6636 c 0.55847,6.5613 2.44776,11.75263 6.56777,18.003 2.78964,4.23207 -6.97999,1.05435 -8.49175,1.23698 -3.27828,0.39605 -1.50207,-3.73878 -3.92573,-22.71077 -2.42365,-18.97197 6.03204,-35.85845 21.58872,-52.94677 -21.35577,30.98686 -16.51417,47.31061 -15.73901,56.41756 z"
       id="path3026"
       inkscape:connector-curvature="0"
       sodipodi:nodetypes="sssscs" />
    <path
       style="fill:#dde9af;stroke:none"
       d="m 560.01923,560.8206 c -15.50572,0.62529 -37.43358,14.75313 -39.75659,20.83908 -0.43127,1.12987 -11.76995,20.25299 -4.80178,28.15627 5.14293,5.83308 -6.85527,33.29739 -4.5396,47.73351 1.11324,6.94011 10.22227,10.84002 12.46538,10.35495 5.56682,-1.20384 6.11703,-1.34118 10.34827,-5.75118 7.12931,-7.43048 22.69794,-27.49501 27.24565,-32.29933 1.05234,-1.11173 -1.45984,6.8438 -1.0582,6.07066 0.84797,3.14046 -6.83113,20.5341 -6.80978,22.68681 0.0529,5.32736 -7.00844,12.57459 -5.75082,17.44559 -1.80111,9.04329 0.39997,19.32699 5.98407,30.85601 3.92681,8.10733 4.28938,12.59675 4.74176,20.22152 0.25193,4.2463 -1.10296,23.11668 2.45995,39.39836 0.88158,4.02859 9.23286,2.73445 10.57448,6.52845 4.24606,12.00761 3.5393,32.1456 9.70108,39.2143 2.04357,2.34434 17.24937,-2.6895 19.97692,-1.08025 3.75656,2.21638 -12.82507,-17.48225 -20.76137,-39.5666 -4.66069,-12.96933 -2.96374,-24.68631 -0.75704,-39.56356 4.42233,-29.81468 -2.09972,-29.28142 3.89476,-26.25618 5.77873,2.82076 12.13025,4.36765 18.77664,4.33987 7.29082,-0.0305 10.04569,-0.89948 16.19427,-4.31304 2.37513,9.0443 8.01961,23.58178 9.795,33.79117 0.50462,2.90176 3.27999,3.67715 3.21357,6.51592 -0.61131,26.12406 -27.07666,53.77254 -27.91484,62.95912 -0.37309,4.08898 13.37868,-0.92347 20.02065,2.02829 3.10254,1.37879 16.05147,-42.05569 23.54756,-82.48421 2.57773,-13.90246 4.61005,-26.85844 5.33735,-37.93723 7.57251,5.68512 16.59697,8.98016 26.25534,8.93979 1.51342,-0.006 3.01454,-0.0943 4.49041,-0.26007 -0.31596,9.74611 -0.74551,20.11454 -1.96555,30.65536 -4.56052,39.40179 -55.44464,70.97339 -51.65007,80.06197 0.66614,1.5955 14.18161,2.52908 18.89277,1.93908 6.64198,-0.83181 8.30829,-16.28787 24.34689,-38.45563 1.83743,-2.5396 9.86555,-2.55402 11.66409,-5.28629 7.3503,-11.1663 4.02599,-26.52535 17.93595,-37.96655 3.29246,-2.70811 2.64965,-27.05659 17.39701,-38.8916 12.01168,-9.63954 7.91531,-29.8841 5.31074,-36.60901 0.56187,-3.50108 0.85172,-7.12358 0.81499,-10.82528 -0.11781,-11.87578 -4.4814,-22.28137 -9.02049,-31.85876 -0.009,-0.0194 2.7408,0.39423 2.08952,-0.28884 -0.63724,-0.66837 1.13277,-0.48228 0.93441,-0.992 -0.5015,-1.28875 1.51093,-0.97898 1.20517,-1.44188 -0.79624,-1.2055 0.0871,-0.92256 -0.39639,-1.28829 -1.48219,-1.12111 2.01036,-1.5477 1.43501,-1.711 -1.17461,-0.33337 -1.44464,-0.55821 -1.82711,-0.80964 -1.18701,-0.7803 2.70597,-1.74867 2.12769,-1.8203 -1.60258,-0.19853 -1.84061,-0.45169 -2.37091,-0.46101 -1.49772,-0.0263 2.37782,-1.61068 1.74807,-1.26425 -0.8968,0.49333 -1.37916,-1.20659 -2.08691,-0.70234 -0.45822,0.32646 1.78051,-2.72844 1.13374,-1.87129 -0.55629,0.73722 -1.25257,-1.6963 -2.02742,-0.32712 -0.31019,0.5481 0.43781,-4.14896 -0.27387,-2.76393 -0.33142,0.64499 -1.90378,-2.5431 -2.31812,-1.49447 -0.62498,1.58172 -0.36253,-4.269 -0.94886,-2.64852 -0.57118,1.57858 -1.40716,-2.65503 -1.80926,-1.8829 -0.68737,1.31992 -1.96126,-3.35941 -2.3778,-2.09213 -0.30205,0.91896 0.88319,4.48616 0.60596,5.39814 -1.59185,5.23653 -4.40018,7.11313 -7.27047,3.87155 -5.92129,-6.68728 -21.10005,-11.16256 -28.69976,-11.1308 -17.76868,0.0743 -35.4707,15.32854 -36.56373,16.82331 -1.04959,1.12639 -3.93637,5.96047 -4.78544,5.05299 0,0 -3.13714,-5.2165 -8.21322,-11.6539 -4.62497,-5.86533 -10.86081,-13.22485 -17.97543,-15.45912 -0.99141,-3.38633 -10.87706,-6.40448 -14.73643,-12.60144 -3.69976,-5.94065 -18.87093,-8.34988 -33.19786,-7.77213 z"
       id="path3003"
       inkscape:connector-curvature="0"
       sodipodi:nodetypes="ssssssscscsssssssscscssssscscssssssscssssssssssssssssssssssccscss" />
    <path
       sodipodi:nodetypes="sscsss"
       inkscape:connector-curvature="0"
       id="path3144"
       d="m 561.40488,630.80995 c -5.31162,4.99085 -16.23228,16.75556 -22.48664,27.0458 -3.48087,5.72702 -11.85026,-6.53862 -17.72734,-7.23676 22.24741,-31.6837 6.59049,-44.90138 22.23406,-63.05108 7.18081,-8.33119 21.72941,-4.42362 24.29546,5.61654 2.56605,10.04015 1.58218,30.20472 -6.31554,37.6255 z"
       style="fill:#93ac93;stroke:none" />
    <path
       style="fill:#917c6f;stroke:none"
       d="m 563.11076,569.6916 c -3.7089,12.49949 -0.67117,15.07381 -6.16206,20.60712 -4.69904,4.73534 -11.09358,-0.93297 -13.48657,-1.66759 -5.18923,-1.59303 -3.69386,-5.73543 3.18907,-28.93184 6.88293,-23.19641 21.81059,-38.03345 50.42753,-51.75013 -19.55291,34.06156 -27.08505,38.54602 -33.96798,61.74244 z"
       id="path3019"
       inkscape:connector-curvature="0"
       sodipodi:nodetypes="sssscs" />
    <path
       sodipodi:nodetypes="sssscs"
       inkscape:connector-curvature="0"
       id="path3022"
       d="m 551.18583,565.48196 c -3.04507,8.27028 -5.19502,21.24272 0.20646,26.18414 4.65714,4.26047 -10.27463,-4.30352 -12.0418,-4.84601 -3.83212,-1.17642 0.22131,-5.08234 7.10423,-28.27876 6.88294,-23.19641 23.34243,-36.83435 50.62402,-50.59216 -40.38636,24.51515 -41.89948,46.68685 -45.89291,57.53279 z"
       style="fill:#c8b7b7;stroke:none" />
    <path
       sodipodi:nodetypes="sssss"
       inkscape:connector-curvature="0"
       id="path3075"
       d="m 558.19833,619.19569 c 0,4.44911 -5.34003,8.05582 -11.92731,8.05582 -6.58728,0 -11.92731,-3.60671 -11.92731,-8.05582 0,-4.4491 7.80121,-13.61919 14.38848,-13.61919 6.58728,0 9.46614,9.17009 9.46614,13.61919 z"
       style="fill:#808080;stroke:none" />
    <path
       transform="matrix(0.30275489,0,0,0.32550419,526.39216,489.51977)"
       sodipodi:type="arc"
       style="fill:#000000;stroke:none"
       id="path3077"
       sodipodi:cx="65.659912"
       sodipodi:cy="402.32901"
       sodipodi:rx="39.39595"
       sodipodi:ry="24.748737"
       d="m 105.05586,402.32901 a 39.39595,24.748737 0 1 1 -78.791898,0 39.39595,24.748737 0 1 1 78.791898,0 z" />
    <path
       d="m 105.05586,402.32901 a 39.39595,24.748737 0 1 1 -78.791898,0 39.39595,24.748737 0 1 1 78.791898,0 z"
       sodipodi:ry="24.748737"
       sodipodi:rx="39.39595"
       sodipodi:cy="402.32901"
       sodipodi:cx="65.659912"
       id="path3079"
       style="fill:#c8b7b7;stroke:none"
       sodipodi:type="arc"
       transform="matrix(0.28713671,0,0,0.29956634,527.41765,500.27627)" />
    <path
       transform="matrix(0.27021702,0,0,0.26498261,528.57987,513.76236)"
       sodipodi:type="arc"
       style="fill:#e3dedb;stroke:none"
       id="path3081"
       sodipodi:cx="65.659912"
       sodipodi:cy="402.32901"
       sodipodi:rx="39.39595"
       sodipodi:ry="24.748737"
       d="m 105.05586,402.32901 a 39.39595,24.748737 0 1 1 -78.791898,0 39.39595,24.748737 0 1 1 78.791898,0 z" />
    <path
       d="m 105.05586,402.32901 a 39.39595,24.748737 0 1 1 -78.791898,0 39.39595,24.748737 0 1 1 78.791898,0 z"
       sodipodi:ry="24.748737"
       sodipodi:rx="39.39595"
       sodipodi:cy="402.32901"
       sodipodi:cx="65.659912"
       id="path3083"
       style="fill:#0000ff;stroke:none"
       sodipodi:type="arc"
       transform="matrix(0.16609584,0,0,0.24336777,535.21136,521.8167)" />
    <path
       transform="matrix(0.14787463,0,0,0.21094552,536.30521,534.59365)"
       sodipodi:type="arc"
       style="fill:#00ffff;stroke:none"
       id="path3085"
       sodipodi:cx="65.659912"
       sodipodi:cy="402.32901"
       sodipodi:rx="39.39595"
       sodipodi:ry="24.748737"
       d="m 105.05586,402.32901 a 39.39595,24.748737 0 1 1 -78.791898,0 39.39595,24.748737 0 1 1 78.791898,0 z" />
    <path
       inkscape:connector-curvature="0"
       style="fill:#000000;stroke:none"
       d="m 548.54377,615.35388 c -0.5382,0 -1.01527,0.63883 -1.31457,1.62247 -0.31357,-0.039 -0.6507,-0.0626 -1.00157,-0.0626 -0.46627,0 -0.90473,0.0412 -1.29984,0.10817 -0.29966,-0.97252 -0.77258,-1.60539 -1.3072,-1.60539 -0.90643,0 -1.64229,1.80844 -1.64229,4.03625 0,2.2278 0.73586,4.03623 1.64229,4.03623 0.61137,0 1.14262,-0.82528 1.42503,-2.04374 0.36398,0.0548 0.762,0.0911 1.18201,0.0911 0.3191,0 0.62794,-0.0187 0.91688,-0.0513 0.28832,1.15922 0.806,1.93558 1.39926,1.93558 0.90642,0 1.64228,-1.80275 1.64228,-4.03056 0,-2.2278 -0.73586,-4.03623 -1.64228,-4.03623 z"
       id="path3087" />
    <path
       style="fill:#ffffff;stroke:none"
       d="m 550.71877,624.53108 c -0.85823,-0.59999 -2.76895,-2.12684 -3.1516,-3.63745 3.1616,1.45176 3.13964,0.65996 5.04381,1.74836 0.87407,0.49961 1.03926,1.852 0.34608,2.24356 -0.69317,0.39156 -1.41154,0.22352 -2.23829,-0.35447 z"
       id="path3089"
       inkscape:connector-curvature="0"
       sodipodi:nodetypes="scsss" />
    <path
       sodipodi:nodetypes="scsss"
       inkscape:connector-curvature="0"
       id="path3091"
       d="m 545.66875,620.6182 c -0.40457,-0.32517 -1.30531,-1.15265 -1.4857,-1.97132 1.49042,0.78678 1.48006,0.35767 2.37771,0.94753 0.41204,0.27076 0.48992,1.00369 0.16315,1.2159 -0.32678,0.2122 -0.66542,0.12113 -1.05516,-0.19211 z"
       style="fill:#ffffff;stroke:none" />
    <path
       sodipodi:nodetypes="ssssssssssssssssssssss"
       inkscape:connector-curvature="0"
       id="path3098"
       d="m 610.04323,629.70155 c 0,11.07495 5.0503,28.84501 2.80296,24.15505 -3.93217,-8.20606 0.0459,6.96716 -0.61995,5.58554 -2.60502,-5.40551 1.17597,8.35939 0.009,6.16589 -4.44105,-8.3505 -5.41782,-3.89084 -7.04746,-3.89084 -14.05032,0 -45.14153,-55.64319 -44.27791,-78.27236 0.0464,-1.21674 -0.97127,-3.5719 2.50499,-7.72153 1.07475,-1.28294 8.32573,-10.46808 7.38253,-8.63963 -1.86643,3.61826 12.0212,-4.54767 11.07507,-2.63735 -2.15791,4.35698 13.59184,-3.83772 11.78508,-0.25115 -1.95602,3.8829 8.23199,0.96524 6.35232,2.02723 -3.77581,2.1333 6.87912,2.93669 5.06645,3.42706 -7.57432,2.04899 0.33313,2.9405 -1.24593,3.01418 -5.5642,0.2596 5.98122,2.90942 2.8198,2.74559 -4.14761,-0.21494 -5.27273,-0.36871 -4.12461,0.63195 0.69841,0.60869 9.1461,6.29847 8.28354,6.0474 -5.27103,-1.53421 1.39852,8.34668 -0.40888,6.89399 -5.88632,-4.73114 -2.57064,-1.11935 -2.70524,2.01623 -0.0582,1.35499 7.23774,12.49686 5.48954,11.24337 -3.90589,-2.80059 1.22577,18.27405 -0.84268,12.8061 -3.20667,-8.4769 2.03154,14.58733 0.28165,10.8328 -4.76871,-10.23159 -2.58068,1.92761 -2.58068,3.82048 z"
       style="fill:#9dac93;stroke:none" />
    <path
       style="fill:#f4eed7;stroke:none"
       d="m 594.68447,640.62327 c 2.35349,5.88524 15.38388,15.72319 11.03926,13.21043 -7.04644,-4.07543 3.35514,2.87518 -1.26012,1.3887 -2.13049,-0.68619 4.83373,4.05831 2.11588,3.31421 -4.94972,-1.35514 4.76947,7.38926 3.52048,7.73174 -1.03319,0.28332 -11.76945,-6.8553 -9.1235,-1.74811 2.03558,3.92909 -8.17545,-10.69956 -6.81152,-7.71976 2.28692,4.99626 -5.62418,-9.50303 -4.78495,-6.08299 2.17071,8.84624 -8.04336,-14.28393 -6.36186,-5.66051 0.86662,4.44444 -3.80394,-8.41725 -6.14109,-12.69282 -9.44188,-17.27282 -16.28729,-37.77288 -15.9713,-48.91933 0.14426,-5.08878 13.93793,-17.22842 22.60412,-10.81466 2.23232,1.65212 9.57215,12.78834 5.74462,9.99525 -2.66666,-1.94596 2.87916,12.00329 2.71493,17.1536 -0.1324,4.15202 2.37936,13.59741 -0.289,11.42258 -2.10699,-1.71729 10.50683,21.74187 6.57156,14.8317 -0.50454,-0.88598 -3.9724,-2.24082 -4.69792,-0.009 -0.56188,1.72806 4.31842,7.80473 1.66148,7.38959 -4.27855,-0.66852 -0.93251,6.20611 -0.53107,7.20994 z"
       id="path3100"
       inkscape:connector-curvature="0"
       sodipodi:nodetypes="cssssssssssssssssssc" />
    <path
       sodipodi:nodetypes="scsss"
       inkscape:connector-curvature="0"
       id="path3108"
       d="m 528.97549,684.17368 c 0.24925,8.30504 -3.02965,23.61342 -4.09769,36.83328 -1.63776,-24.78724 3.111,-19.18772 2.32764,-35.75518 -0.35958,-7.60489 -4.71316,-18.11577 -3.68073,-18.11577 1.03244,0 5.21067,9.03724 5.45078,17.03767 z"
       style="fill:#000000;stroke:none" />
    <path
       style="fill:#cdde87;stroke:none"
       d="m 516.44031,684.5452 c -0.24926,8.30503 3.02964,23.61342 4.09769,36.83329 1.63775,-24.78725 -3.11101,-19.18773 -2.32765,-35.75518 0.35959,-7.6049 4.71317,-18.11578 3.68073,-18.11578 -1.03243,0 -5.21067,9.03724 -5.45077,17.03767 z"
       id="path3110"
       inkscape:connector-curvature="0"
       sodipodi:nodetypes="scsss" />
    <path
       sodipodi:nodetypes="scsss"
       inkscape:connector-curvature="0"
       id="path3112"
       d="m 522.39336,684.10899 c -0.50966,8.29272 -5.1713,23.22548 -7.44105,36.28744 0.63115,-24.83486 4.84846,-18.8112 5.58027,-35.38108 0.33592,-7.60603 -3.03975,-18.48253 -2.01178,-18.38507 1.02798,0.0974 4.36353,9.49016 3.87256,17.47871 z"
       style="fill:#445016;stroke:none" />
    <path
       style="fill:#eeffaa;stroke:none"
       d="m 524.47121,677.54606 c -0.16018,5.52715 1.9471,15.71515 2.6335,24.51319 1.05256,-16.49633 -1.99937,-12.76976 -1.49592,-23.79568 0.23109,-5.06119 3.02904,-12.05637 2.36552,-12.05637 -0.66352,0 -3.34878,6.01444 -3.5031,11.33886 z"
       id="path3114"
       inkscape:connector-curvature="0"
       sodipodi:nodetypes="scsss" />
    <path
       sodipodi:nodetypes="scsss"
       inkscape:connector-curvature="0"
       id="path3116"
       d="m 512.96553,676.98878 c -0.16019,5.52715 1.94709,15.71513 2.63349,24.51319 1.05256,-16.49634 -1.99937,-12.76976 -1.49592,-23.79569 0.2311,-5.06119 3.02904,-12.05636 2.36552,-12.05636 -0.66352,0 -3.34877,6.01444 -3.50309,11.33886 z"
       style="fill:#eeffaa;stroke:none" />
    <path
       style="fill:#d3bc5f;stroke:none"
       d="m 518.02251,675.13116 c 0.16018,5.52715 -1.94709,15.71514 -2.6335,24.51319 -1.05255,-16.49635 1.99937,-12.76976 1.49592,-23.79569 -0.23109,-5.0612 -3.02904,-12.05636 -2.36552,-12.05636 0.66352,0 3.34879,6.01444 3.5031,11.33886 z"
       id="path3118"
       inkscape:connector-curvature="0"
       sodipodi:nodetypes="scsss" />
    <path
       sodipodi:nodetypes="scsss"
       inkscape:connector-curvature="0"
       id="path3120"
       d="m 524.77981,682.35241 c 0.1602,7.41726 -1.94708,21.08923 -2.63349,32.89593 -1.05255,-22.13757 1.99938,-17.13661 1.49593,-31.93307 -0.2311,-6.79196 -3.02904,-16.17926 -2.36552,-16.17926 0.66352,0 3.34877,8.07119 3.50308,15.2164 z"
       style="fill:#d3bc5f;stroke:none" />
    <path
       style="fill:#d3bc5f;stroke:none"
       d="m 517.53128,685.29945 c -0.16019,8.76324 1.94709,24.91623 2.63349,38.86546 1.05256,-26.15481 -1.99937,-20.24635 -1.49592,-37.72787 0.2311,-8.02448 3.02904,-19.11526 2.36552,-19.11526 -0.66352,0 -3.34878,9.53584 -3.50309,17.97767 z"
       id="path3122"
       inkscape:connector-curvature="0"
       sodipodi:nodetypes="scsss" />
    <path
       style="fill:#000000;stroke:none"
       d="m 532.07759,674.44322 c 0.29752,4.34004 -3.61636,12.33991 -4.89124,19.24835 -1.95492,-12.95333 3.71347,-10.02713 2.77841,-18.68496 -0.42922,-3.97416 -5.6259,-9.46695 -4.39352,-9.46695 1.23236,0 6.21974,4.72268 6.50635,8.90356 z"
       id="path3124"
       inkscape:connector-curvature="0"
       sodipodi:nodetypes="scsss" />
    <path
       sodipodi:nodetypes="scsss"
       inkscape:connector-curvature="0"
       id="path3126"
       d="m 517.1149,674.63736 c -0.29752,4.34005 3.61635,12.33992 4.89123,19.24837 1.95492,-12.95334 -3.71347,-10.02713 -2.77841,-18.68497 0.42922,-3.97417 5.62589,-9.46695 4.39352,-9.46695 -1.23237,0 -6.21974,4.72269 -6.50634,8.90355 z"
       style="fill:#cdde87;stroke:none" />
    <path
       sodipodi:nodetypes="scsss"
       inkscape:connector-curvature="0"
       id="path3160"
       d="m 501.73454,663.41429 c -4.2138,6.83744 -3.01635,27.32465 -4.21155,39.97095 4.09076,-10.31517 0.40735,-28.59635 5.97497,-39.84175 3.20696,-6.47738 15.8411,-13.43424 14.72967,-13.80466 -1.11143,-0.37041 -12.43386,7.08882 -16.49309,13.67546 z"
       style="fill:#7c916f;stroke:none" />
    <path
       style="fill:#445016;stroke:none"
       d="m 524.22079,674.40941 c -0.60836,4.33362 -6.17275,12.13717 -8.88205,18.96311 0.75338,-12.97822 5.7874,-9.83037 6.66091,-18.48947 0.40098,-3.97476 -3.6284,-9.65861 -2.40136,-9.60768 1.22706,0.051 5.20855,4.95938 4.6225,9.13404 z"
       id="path3128"
       inkscape:connector-curvature="0"
       sodipodi:nodetypes="scsss" />
    <path
       sodipodi:nodetypes="scsss"
       inkscape:connector-curvature="0"
       id="path3130"
       d="m 526.70104,670.97975 c -0.19121,2.88839 2.32415,8.21243 3.14348,12.81011 1.25639,-8.62066 -2.38656,-6.67322 -1.78561,-12.43515 0.27585,-2.64489 3.61563,-6.30043 2.82362,-6.30043 -0.79202,0 -3.9973,3.14303 -4.18149,5.92547 z"
       style="fill:#eeffaa;stroke:none" />
    <path
       style="fill:#eeffaa;stroke:none"
       d="m 512.96721,670.68852 c -0.19121,2.88839 2.32415,8.21243 3.14349,12.81012 1.25638,-8.62067 -2.38657,-6.67323 -1.78562,-12.43516 0.27584,-2.64488 3.61563,-6.30042 2.82361,-6.30042 -0.792,0 -3.99728,3.14303 -4.18148,5.92546 z"
       id="path3132"
       inkscape:connector-curvature="0"
       sodipodi:nodetypes="scsss" />
    <path
       sodipodi:nodetypes="scsss"
       inkscape:connector-curvature="0"
       id="path3134"
       d="m 519.0035,669.71777 c 0.1912,2.88837 -2.32416,8.21242 -3.14349,12.81011 -1.25639,-8.62066 2.38656,-6.67322 1.78562,-12.43517 -0.27585,-2.64488 -3.61564,-6.30041 -2.82362,-6.30041 0.79201,0 3.99729,3.14303 4.18149,5.92547 z"
       style="fill:#d3bc5f;stroke:none" />
    <path
       style="fill:#d3bc5f;stroke:none"
       d="m 527.0694,673.49146 c 0.19121,3.87611 -2.32416,11.02082 -3.14348,17.19076 -1.2564,-11.56866 2.38655,-8.95525 1.78561,-16.6876 -0.27585,-3.54934 -3.61563,-8.45496 -2.82362,-8.45496 0.79202,0 3.99729,4.21785 4.18149,7.9518 z"
       id="path3136"
       inkscape:connector-curvature="0"
       sodipodi:nodetypes="scsss" />
    <path
       sodipodi:nodetypes="scsss"
       inkscape:connector-curvature="0"
       id="path3138"
       d="m 518.41714,673.58853 c -0.19122,3.87612 2.32415,11.02082 3.14349,17.19078 1.25638,-11.56868 -2.38657,-8.95528 -1.78563,-16.68762 0.27585,-3.54934 3.61565,-8.45495 2.82363,-8.45495 -0.79202,0 -3.99729,4.21784 -4.18149,7.95179 z"
       style="fill:#d3bc5f;stroke:none" />
    <path
       style="fill:#000000;stroke:none"
       d="m 519.17276,688.29572 c -0.1197,10.2238 1.45501,29.06895 1.96795,45.34305 0.78655,-30.51396 -1.49409,-23.62074 -1.11787,-44.01585 0.17269,-9.3619 2.26353,-22.30114 1.7677,-22.30114 -0.49584,0 -2.50247,11.12514 -2.61778,20.97394 z"
       id="path3140"
       inkscape:connector-curvature="0"
       sodipodi:nodetypes="scsss" />
    <path
       sodipodi:nodetypes="scsss"
       inkscape:connector-curvature="0"
       id="path3164"
       d="m 498.52119,660.85653 c -4.62807,6.55445 -1.95981,23.91976 -2.10798,35.5358 5.08549,-11.33352 -1.33274,-21.46621 2.76415,-33.06496 2.92648,-8.28518 20.11008,-12.58045 19.02375,-13.02121 -1.08634,-0.44075 -15.2216,4.23633 -19.67992,10.55037 z"
       style="fill:#aa8800;stroke:none" />
    <path
       style="fill:#1a1a1a;stroke:none"
       d="m 502.10063,664.91005 c -3.29473,7.34098 0.53692,27.49094 0.98451,40.18736 2.72382,-10.77219 -3.2875,-28.40318 0.78032,-40.29479 2.34307,-6.84959 13.96982,-15.43351 12.8202,-15.65229 -1.14963,-0.21878 -11.41117,8.68799 -14.58503,15.75972 z"
       id="path3162"
       inkscape:connector-curvature="0"
       sodipodi:nodetypes="scsss" />
    <path
       sodipodi:nodetypes="scsss"
       inkscape:connector-curvature="0"
       id="path3102"
       d="m 514.60103,666.49534 c -2.87812,-3.56845 -8.36602,-12.61039 -3.66447,-21.34158 6.94945,1.91549 30.6285,8.79982 28.76127,11.87483 -1.36862,2.25386 -5.22046,9.67096 -11.76335,11.82136 -6.5429,2.15042 -10.56088,1.08297 -13.33345,-2.35461 z"
       style="fill:#c8c4b7;stroke:none" />
    <path
       sodipodi:nodetypes="scsss"
       inkscape:connector-curvature="0"
       id="path3106"
       d="m 520.80079,653.85 c -0.19816,1.10633 -1.00417,3.62184 -3.46648,4.45638 -0.71862,-3.86734 -2.20647,-3.62587 -2.23054,-6.01385 -0.0111,-1.09614 2.38922,-1.64866 3.90241,-0.99563 1.51318,0.65304 1.9855,1.48734 1.79461,2.5531 z"
       style="fill:#6c6753;stroke:none" />
    <path
       style="fill:#241f1c;stroke:none"
       d="m 519.35381,653.93272 c -0.12877,0.99356 -0.65255,3.25266 -2.25266,4.00214 -0.46699,-3.47313 -1.43385,-3.25629 -1.4495,-5.40085 -0.007,-0.98441 1.55262,-1.48061 2.53594,-0.89413 0.98334,0.58646 1.29027,1.33571 1.16622,2.29284 z"
       id="path3142"
       inkscape:connector-curvature="0"
       sodipodi:nodetypes="scsss" />
    <path
       style="fill:#7c916f;stroke:none"
       d="m 512.20772,676.37495 c -0.19121,3.87612 2.32415,11.02082 3.14349,17.19078 1.25639,-11.56866 -2.38657,-8.95526 -1.78562,-16.6876 0.27585,-3.54935 3.61563,-8.45497 2.82362,-8.45497 -0.79201,0 -3.99729,4.21785 -4.18149,7.95179 z"
       id="path3146"
       inkscape:connector-curvature="0"
       sodipodi:nodetypes="scsss" />
    <path
       sodipodi:nodetypes="scsss"
       inkscape:connector-curvature="0"
       id="path3148"
       d="m 526.72731,684.02986 c 0.19122,6.88311 -2.32416,19.5705 -3.14349,30.52697 -1.25638,-20.54337 2.38657,-15.90255 1.78563,-29.63345 -0.27585,-6.30284 -3.61565,-15.01413 -2.82363,-15.01413 0.79202,0 3.99729,7.48996 4.18149,14.12061 z"
       style="fill:#7c916f;stroke:none" />
    <path
       style="fill:#7c916f;stroke:none"
       d="m 528.04102,678.44852 c 1.17304,4.61549 5.85038,12.35874 8.70312,19.40614 -2.89973,-13.95815 -5.19064,-9.9097 -7.33822,-19.1755 -0.98579,-4.25323 0.24638,-10.92021 -0.44822,-10.70914 -0.69461,0.21109 -2.0467,6.0323 -0.91668,10.4785 z"
       id="path3150"
       inkscape:connector-curvature="0"
       sodipodi:nodetypes="scsss" />
    <path
       sodipodi:nodetypes="scsss"
       inkscape:connector-curvature="0"
       id="path3154"
       d="m 530.23436,656.36049 c 2.68373,3.9083 5.4239,12.55838 8.83118,19.34619 -8.53745,-11.31901 -4.02414,-10.45577 -9.54669,-18.14165 -2.53501,-3.52802 -8.31513,-6.91239 -7.70571,-7.31176 0.60942,-0.39934 5.83594,2.34225 8.42122,6.10722 z"
       style="fill:#7c916f;stroke:none" />
    <path
       sodipodi:nodetypes="scsss"
       inkscape:connector-curvature="0"
       id="path3156"
       d="m 537.20567,666.8047 c 5.11079,8.80872 6.41832,36.52598 9.18533,53.45002 -5.41404,-13.50611 -3.93129,-38.4891 -10.95618,-53.10714 -4.04635,-8.42002 -17.70351,-16.58356 -16.62297,-17.18903 1.08055,-0.60546 13.47047,8.3605 18.39382,16.84615 z"
       style="fill:#000000;stroke:none" />
    <path
       style="fill:#c8ab37;stroke:none"
       d="m 536.47454,668.24791 c 4.28789,9.25178 3.06939,36.97323 4.28559,54.08504 -4.16268,-13.95755 -0.41451,-38.69396 -6.08002,-53.91023 -3.26335,-8.76459 -16.11964,-18.17799 -14.98867,-18.6792 1.13098,-0.50122 12.65249,9.59194 16.7831,18.50439 z"
       id="path3158"
       inkscape:connector-curvature="0"
       sodipodi:nodetypes="scsss" />
    <path
       style="fill:#93ac93;stroke:none"
       d="m 661.61665,652.35192 c -5.31164,4.99086 -9.237,36.6346 -9.237,36.6346 -2.12806,0.07 0.25105,-15.88433 -5.94766,-17.47103 -1.17498,-0.30077 -2.98436,-4.17848 -6.71049,-2.45236 -2.63194,1.21924 -5.87221,0.22562 -8.65087,2.37652 -4.83155,3.73999 -12.34007,13.7927 -12.38229,12.74927 -0.14417,-3.56285 6.45302,-10.98511 8.90721,-13.54399 2.8883,-3.01151 8.32891,-3.63174 10.90509,-6.07621 1.81585,-1.723 8.73998,-3.3462 9.38736,-6.52544 2.1642,-10.62815 -10.38288,-32.23197 -12.25789,-50.24693 -0.50749,-4.87601 10.94013,-9.19786 14.90717,-12.84487 3.55066,-3.26421 10.46763,-3.94584 17.79095,5.56992 2.67977,3.48203 -10.33574,9.06723 -0.39605,14.20502 3.49716,1.80767 0.92228,8.79493 4.04566,12.44392 5.96201,6.96528 -5.50118,20.61506 -10.36119,25.18158 z"
       id="path3166"
       inkscape:connector-curvature="0"
       sodipodi:nodetypes="sssssssssssssss" />
    <path
       sodipodi:nodetypes="csscssssccc"
       inkscape:connector-curvature="0"
       id="path3168"
       d="m 727.37415,663.96357 c 1.43105,5.71543 0.70117,13.52214 -1.62916,19.50932 -3.02695,7.77696 -9.7036,11.88611 -11.29268,10.65857 -5.87219,-4.53617 -7.59464,-15.69901 -14.45352,-16.78388 -3.44801,-0.8826 -20.47545,11.22133 -19.06552,9.17943 4.80258,-6.95527 14.17586,-20.63213 22.88581,-30.2861 7.09239,-7.86111 10.7746,-7.62326 8.33873,-31.02708 -0.5075,-4.87602 2.98517,-12.50797 -4.98022,-23.69467 -2.80733,-3.94266 1.09215,-3.42042 8.41547,6.09533 0.48141,1.60993 8.04033,21.6575 8.04033,21.6575 5.962,6.96529 3.68822,32.98158 3.74076,34.69158 z"
       style="fill:#93ac93;stroke:none" />
    <path
       style="fill:#9dac93;stroke:none"
       d="m 578.16028,742.63429 c 0,0 -0.64525,18.28092 -2.67744,8.94762 -2.83782,-13.0334 -19.18519,-57.4409 -17.75884,-56.76745 8.25877,4.6233 21.96156,6.75749 23.06398,9.85484 1.88254,12.61919 -1.76545,26.95716 -2.6277,37.96499 z"
       id="path3170"
       inkscape:connector-curvature="0"
       sodipodi:nodetypes="csccc" />
    <path
       sodipodi:nodetypes="ccsccc"
       inkscape:connector-curvature="0"
       id="path3172"
       d="m 585.38499,787.78963 c -6.03046,-10.95817 -5.36957,-12.26918 -13.63613,-17.26694 -3.28675,-1.34334 -6.12058,-1.74343 -9.04449,-2.09788 -2.16924,-0.26296 -4.00939,-4.11074 -2.38604,-3.73365 9.39938,2.58879 16.63332,-0.61488 17.88799,1.11946 2.14255,7.06602 8.16,15.81527 7.17867,21.97901 z"
       style="fill:#9dac93;stroke:none" />
    <path
       style="fill:#9dac93;stroke:none"
       d="m 589.33646,799.97533 c -1.05884,14.25031 9.10518,6.66652 9.10518,6.66652 2.16721,0.27968 3.46208,4.66695 1.84159,4.27734 -10.92948,-0.0341 -18.44537,2.58828 -19.68708,0.84432 0,0 -2.48592,-2.50224 -2.23082,-4.32647 0.29233,-2.09049 7.34447,2.51104 10.97113,-7.46171 z"
       id="path3174"
       inkscape:connector-curvature="0"
       sodipodi:nodetypes="ccccsc" />
    <path
       sodipodi:nodetypes="ccccc"
       inkscape:connector-curvature="0"
       id="path3176"
       d="m 611.54834,800.76346 c -5.96611,15.56384 12.20453,5.09027 12.20453,5.09027 2.16721,0.27968 2.17068,4.92965 0.55019,4.54005 -10.92947,-0.0341 -19.99504,1.01203 -21.23675,-0.73193 1.26781,-1.82821 3.58061,-1.69156 8.48203,-8.89839 z"
       style="fill:#9dac93;stroke:none" />
    <path
       sodipodi:nodetypes="ccccsc"
       inkscape:connector-curvature="0"
       id="path3178"
       d="m 639.95889,800.23803 c -5.96611,15.56386 14.27075,4.56486 14.27075,4.56486 2.16721,0.27969 -2.22004,7.03132 -3.84052,6.64172 -10.92949,-0.0341 -19.22021,0.74932 -20.46192,-0.99464 0,0 0.0969,-3.29035 0.86851,-4.58917 1.07367,-1.80719 6.31136,-1.42957 9.16318,-5.62277 z"
       style="fill:#9dac93;stroke:none" />
    <path
       style="fill:#9dac93;stroke:none"
       d="m 626.70031,766.45782 c 6.03045,-10.95818 5.36956,-16.13097 8.93548,-18.7381 3.28674,-1.34334 4.53209,0.55799 7.23653,-0.62672 0,0 0.5743,-3.55906 0.5781,-3.54974 -9.39937,2.58877 -13.37902,-3.925 -14.63369,-2.19066 -0.20754,0.47572 2.68483,3.6448 2.17462,7.44372 -0.75681,5.63497 -4.87721,13.97982 -4.29104,17.6615 z"
       id="path3180"
       inkscape:connector-curvature="0"
       sodipodi:nodetypes="ccsccsc" />
    <path
       style="fill:#00ff00;stroke:none"
       d="m 576.44504,774.90625 c 0.18914,3.07263 0.36584,5.55634 0.53234,8.03125 2.05463,10.73014 4.57127,16.55957 7.18658,19.6875 3.33816,-3.3782 6.60688,-9.58148 9.8187,-10.3125 -0.0402,-3.00874 -0.1694,-6.59356 -0.41404,-11.0625 1.75816,10.47234 4.25297,16.81777 6.80211,20.65625 3.43526,-3.63625 6.82359,-8.18486 10.14402,-8.15625 2.8608,0.0246 -4.41714,8.56189 -2.80957,11.5 1.16472,0.0268 2.39707,0.0347 3.51935,0.0625 1.03494,-0.10171 1.91016,-0.16366 2.51382,-0.15625 1.61423,0.0198 -3.96712,-35.81245 -2.39552,-25.8125 0.21005,1.33654 3.06171,7.55234 6.21062,13.5625 -0.0553,-3.10624 -0.27664,-6.91868 -0.73936,-11.65625 3.44767,11.51041 8.47731,18.03218 13.48593,21.71875 0.64339,-3.00869 0.83315,-9.02476 0.20702,-20.90625 -0.44313,-2.63592 -0.67432,-4.03861 -0.14787,-1.21875 0.0177,0.0951 0.0696,0.2638 0.11829,0.40625 1.16608,3.41085 10.8958,19.83433 15.28997,24.375 9.56719,0.17143 18.2284,0.3718 24.93121,0.5625 3.12349,0.0889 4.3235,-1.20055 6.77254,-16.53125 2.08972,13.24897 6.22784,16.99649 7.98509,17.09375 0.32334,0.0179 0.55983,0.0447 0.85765,0.0625 2.79915,-1.58976 4.25987,-6.97374 2.27723,-24.0625 4.26824,11.99598 10.57429,18.59479 16.76869,22.1875 1.13152,-2.28654 2.17965,-6.40974 3.5785,-13.78125 2.48238,13.24897 7.37637,16.99649 9.46381,17.09375 4.65894,0.21706 7.09785,0.42581 7.09785,0.65625 l 0,32.625 c 0,1.84923 -157.438,3.34375 -353,3.34375 -24.44525,0 -48.28303,-0.018 -71.30387,-0.0625 C 140.05025,844.50116 19.5,843.14933 19.5,841.53125 l 0,-32.625 c 0,-0.23044 2.43891,-0.43919 7.09786,-0.65625 2.08743,-0.0973 6.98142,-3.84478 9.4638,-17.09375 1.39885,7.37151 2.44698,11.49471 3.5785,13.78125 6.19441,-3.59271 12.50045,-10.19152 16.76869,-22.1875 -1.98264,17.08876 -0.52192,22.47274 2.27723,24.0625 0.29781,-0.0178 0.53431,-0.0446 0.85765,-0.0625 1.75725,-0.0973 5.89537,-3.84478 7.98509,-17.09375 2.44904,15.3307 3.64905,16.62015 6.77254,16.53125 6.70281,-0.1907 15.36402,-0.39107 24.93121,-0.5625 4.39417,-4.54067 14.12389,-20.96415 15.28997,-24.375 0.0487,-0.14245 0.10055,-0.31119 0.11829,-0.40625 0.52645,-2.81986 0.29526,-1.41717 -0.14787,1.21875 -0.62613,11.88149 -0.43637,17.89756 0.20702,20.90625 5.00862,-3.68657 10.03826,-10.20834 13.48593,-21.71875 -0.46272,4.73757 -0.6841,8.55001 -0.73936,11.65625 3.14891,-6.01016 6.00057,-12.22596 6.21062,-13.5625 1.5716,-9.99995 -4.00975,25.8323 -2.39552,25.8125 0.60366,-0.007 1.47888,0.0545 2.51382,0.15625 1.12228,-0.0278 2.35463,-0.0357 3.51935,-0.0625 1.60757,-2.93811 -5.67037,-11.47537 -2.80957,-11.5 3.32043,-0.0286 6.70876,4.52 10.14402,8.15625 2.54914,-3.83848 5.04395,-10.18391 6.80211,-20.65625 -0.24464,4.46894 -0.37391,8.05376 -0.41404,11.0625 3.21182,0.73102 6.48054,6.9343 9.8187,10.3125 2.61531,-3.12793 5.13195,-8.95736 7.18658,-19.6875 0.1665,-2.47491 0.3432,-4.95862 0.53234,-8.03125 0.12344,1.39497 0.14921,2.79406 0.14787,4.1875 0.10718,-0.65477 0.22139,-1.25074 0.32532,-1.9375 0.18385,2.81538 0.42976,5.3606 0.73936,7.65625 0.36416,-2.53479 0.73697,-5.21421 1.1534,-8.40625 0.83407,4.44768 0.0104,8.93692 -0.35489,13.09375 0.84339,4.19408 1.91543,7.37225 3.13488,9.71875 2.15464,-4.09708 4.16222,-11.19825 5.73744,-23.5625 1.4942,27.17992 8.28203,28.9719 13.1606,28.9375 3.03007,-0.0213 6.36087,-0.0424 9.46381,-0.0625 1.21096,-0.95451 1.93669,-5.83617 3.40106,-29.625 1.07604,12.16071 -3.72683,24.75595 6.15147,29.5625 0.12894,-7.7e-4 0.25587,7.8e-4 0.38447,0 0.41478,-2.03588 0.68788,-4.98798 0.76893,-9.375 1.65176,4.53771 2.63877,7.23082 3.43063,9.34375 0.847,-0.006 1.72441,-0.0251 2.57298,-0.0312 2.01157,-1.25318 3.29263,-6.7001 5.79658,-29.5 1.48916,9.43307 -3.32177,19.10159 2.66169,25.21875 1.60728,-5.13514 3.37161,-12.51213 4.93893,-16.90625 0.82433,-3.0302 1.60425,-5.1845 2.24765,-5.1875 0.997,-0.005 1.48332,1.74547 1.71532,4.3125 0.94459,4.96043 0.0195,15.22911 1.06467,20.15625 0.27355,0.73798 0.64255,1.1869 1.12383,1.25 2.7776,0.36425 6.54809,0.37635 10.64678,0.34375 0.37545,-2.02645 0.63361,-4.87567 0.70979,-9 1.58482,4.35383 2.48846,6.84128 3.28276,8.96875 2.57744,-0.0214 5.206,-0.009 7.74849,0.0625 1.01674,-0.0294 1.99612,-0.0622 2.92787,-0.0625 0.51362,-1.8825 0.85198,-4.30295 0.97595,-7.46875 2.54266,3.29598 4.37439,5.62217 5.91488,7.59375 3.01379,0.0995 6.07586,0.23721 9.13849,0.40625 4.40947,-22.60192 3.7836,-9.44574 4.02212,-2.46875 0.74843,-2.64532 1.46451,-6.62114 1.98148,-12.46875 0.81075,9.05454 1.38145,13.16935 2.07021,15.03125 0.22286,-0.0162 0.45894,-0.0465 0.68021,-0.0625 4.99301,-21.08372 4.08153,-6.94139 4.43616,-0.3125 2.78262,-0.157 5.40762,-0.25 7.71892,-0.25 0.2146,0 0.43546,-8.1e-4 0.65063,0 0.28561,-5.38109 -0.35805,-22.16765 1.80404,-3.78125 0.20876,-1.4805 0.34705,-3.15505 0.41404,-5.1875 2.8118,4.32972 4.62604,7.04783 6.03318,9.15625 0.7156,0.0285 1.44039,0.0607 2.15893,0.0937 1.23884,-0.18006 2.55541,-0.2543 3.90382,-0.28125 2.17536,-4.82967 7.00826,-22.35868 7.21615,-24.71875 0.63479,-7.20616 -0.80953,9.22365 -1.33084,19.03125 0.4342,-2.3015 0.83763,-5.14696 1.1534,-8.71875 0.72741,8.12393 1.26436,12.25888 1.86319,14.375 0.81595,-0.05 1.56634,-0.12877 2.21807,-0.28125 2.15813,-0.50492 0.0581,-25.73713 2.18851,-25.71875 1.19336,0.0103 3.18905,23.16116 4.46573,26.0625 1.208,-2.51179 -2.59386,-11.81805 -1.18297,-11.84375 1.96802,-0.0359 3.98152,7.15239 6.03318,10.65625 0.18694,-6.60058 -0.32851,-21.62548 2.1885,1.25 0.75594,-0.0123 1.49433,-0.021 2.24765,-0.0312 2.06174,-1.62589 4.32389,-7.43141 5.82616,-28.46875 0.55866,18.13023 2.41079,24.94351 4.40659,27.46875 2.08609,-5.23914 5.77392,-18.46325 6.62466,-22.65625 0.0755,-1.52216 0.15403,-3.0929 0.20702,-4.8125 0.0485,0.67904 0.0978,1.28979 0.14787,1.9375 1.18048,15.2842 2.77667,21.99386 4.37701,24.90625 1.07294,-5.16761 -0.2967,-24.48485 1.56745,-24.46875 1.09645,0.009 2.86933,19.51294 4.14041,24.9375 0.16909,-0.28519 0.36386,-0.576 0.53234,-0.90625 -6.9e-4,-0.01 7.2e-4,-0.0213 0,-0.0312 -0.26327,-3.65538 -2.53323,-9.76043 -1.38999,-9.78125 1.14136,-0.0208 2.2916,2.40772 3.4602,5.125 1.1686,-2.71728 2.31884,-5.14585 3.4602,-5.125 1.14324,0.0208 -1.12672,6.12587 -1.38999,9.78125 -7.2e-4,0.01 6.9e-4,0.0213 0,0.0312 0.16848,0.33025 0.36325,0.62106 0.53234,0.90625 1.27108,-5.42456 3.04396,-24.92803 4.14041,-24.9375 1.86415,-0.0161 0.49451,19.30114 1.56745,24.46875 1.60034,-2.91239 3.19653,-9.62205 4.37701,-24.90625 0.05,-0.64771 0.0994,-1.25846 0.14787,-1.9375 0.053,1.7196 0.1315,3.29034 0.20702,4.8125 0.85074,4.193 4.53857,17.41711 6.62466,22.65625 1.9958,-2.52524 3.84793,-9.33852 4.40659,-27.46875 1.50227,21.03734 3.76442,26.84286 5.82616,28.46875 0.75332,0.0103 1.49171,0.019 2.24765,0.0312 2.51701,-22.87548 2.00156,-7.85058 2.1885,-1.25 2.05166,-3.50386 4.06516,-10.6922 6.03318,-10.65625 1.41089,0.0257 -2.39097,9.33196 -1.18297,11.84375 1.27668,-2.90134 3.27237,-26.0522 4.46573,-26.0625 2.13049,-0.0184 0.0304,25.21383 2.1885,25.71875 0.65174,0.15257 1.40213,0.23128 2.21808,0.28125 0.59883,-2.11612 1.13578,-6.25107 1.86319,-14.375 0.31577,3.57179 0.7192,6.41725 1.1534,8.71875 -0.52131,-9.8076 -1.96563,-26.23741 -1.33084,-19.03125 0.20789,2.36007 5.04079,19.88908 7.21615,24.71875 1.34841,0.027 2.66498,0.10119 3.90382,0.28125 0.71854,-0.033 1.44333,-0.0652 2.15893,-0.0937 1.40714,-2.10842 3.22138,-4.82653 6.03318,-9.15625 0.067,2.03245 0.20528,3.707 0.41404,5.1875 2.16209,-18.3864 1.51843,-1.59984 1.80404,3.78125 0.21517,-8.1e-4 0.43603,0 0.65063,0 2.3113,0 4.9363,0.093 7.71892,0.25 0.35463,-6.62889 -0.55685,-20.77122 4.43616,0.3125 0.22127,0.016 0.45735,0.0463 0.68021,0.0625 0.68876,-1.8619 1.25946,-5.97671 2.07021,-15.03125 0.51697,5.84761 1.23305,9.82343 1.98148,12.46875 0.23852,-6.97699 -0.38735,-20.13317 4.02212,2.46875 3.06263,-0.16904 6.1247,-0.30671 9.13849,-0.40625 1.54049,-1.97158 3.37222,-4.29777 5.91488,-7.59375 0.12397,3.1658 0.46233,5.58625 0.97595,7.46875 0.93175,3e-4 1.91113,0.0331 2.92787,0.0625 2.54249,-0.0714 5.17105,-0.0839 7.74849,-0.0625 0.7943,-2.12747 1.69794,-4.61492 3.28276,-8.96875 0.0762,4.12433 0.33434,6.97355 0.70979,9 4.09868,0.0326 7.86918,0.0205 10.64678,-0.34375 0.48128,-0.0631 0.85028,-0.51202 1.12383,-1.25 1.04515,-4.92714 0.12008,-15.19582 1.06467,-20.15625 0.232,-2.56703 0.71832,-4.31732 1.71532,-4.3125 0.6434,0.003 1.42332,2.1573 2.24765,5.1875 1.56732,4.39412 3.33165,11.77111 4.93893,16.90625 5.98346,-6.11716 1.17253,-15.78568 2.66169,-25.21875 2.50395,22.7999 3.785,28.24682 5.79658,29.5 0.84857,0.006 1.72598,0.0252 2.57298,0.0312 0.79186,-2.11293 1.77887,-4.80604 3.43063,-9.34375 0.081,4.38702 0.35415,7.33912 0.76893,9.375 0.1286,7.9e-4 0.25553,-7.7e-4 0.38447,0 9.8783,-4.80655 5.07543,-17.40179 6.15147,-29.5625 1.46437,23.78883 2.1901,28.67049 3.40106,29.625 3.10293,0.0201 6.43374,0.0412 9.46381,0.0625 4.87857,0.0344 11.6664,-1.75758 13.1606,-28.9375 1.57522,12.36425 3.5828,19.46542 5.73744,23.5625 1.21945,-2.3465 2.29149,-5.52467 3.13488,-9.71875 -0.36533,-4.15683 -1.18896,-8.64607 -0.35489,-13.09375 0.41642,3.19204 0.78924,5.87146 1.1534,8.40625 0.3096,-2.29565 0.55551,-4.84087 0.73936,-7.65625 0.10393,0.68676 0.21814,1.28273 0.32532,1.9375 -0.001,-1.39344 0.0244,-2.79253 0.14787,-4.1875 z m 17.53762,21.65625 c -1.21878,2.8842 -2.72327,6.36998 -1.36042,7.65625 0.10741,0.10138 0.20443,0.18934 0.32531,0.28125 0.55342,-1.26051 0.93862,-3.60225 1.03511,-7.9375 z m -442.96532,0 c 0.0965,4.33525 0.48169,6.67699 1.03511,7.9375 0.12088,-0.0919 0.2179,-0.17987 0.32531,-0.28125 1.36285,-1.28627 -0.14164,-4.77205 -1.36042,-7.65625 z"
       id="path3205"
       inkscape:connector-curvature="0" />
    <path
       id="path3217"
       d="m 552.35657,795.90625 c 0.18164,2.72132 0.35133,4.92105 0.51122,7.11298 1.97315,9.50329 4.38998,14.66621 6.90156,17.4365 3.20577,-2.99195 6.34486,-8.48597 9.42929,-9.1334 -0.0385,-2.66473 -0.16267,-5.83968 -0.39762,-9.79765 1.68844,9.27496 4.08431,14.89488 6.53234,18.29448 3.29902,-3.2205 6.55297,-7.24903 9.74171,-7.22369 2.74734,0.0218 -4.24196,7.58295 -2.69814,10.18512 1.11852,0.0237 2.302,0.0307 3.37977,0.0554 0.9939,-0.0901 1.8344,-0.14495 2.41413,-0.13839 1.5502,0.0175 -3.80979,-31.71777 -2.30052,-22.86118 0.20172,1.18372 2.94028,6.68883 5.96431,12.01181 -0.0531,-2.75108 -0.26568,-6.12762 -0.71004,-10.32351 3.31093,10.19434 8.1411,15.97044 12.95107,19.23549 0.61788,-2.66468 0.80012,-7.99289 0.19881,-18.51589 -0.42555,-2.33454 -0.64757,-3.57685 -0.142,-1.0794 0.0171,0.0842 0.0668,0.23363 0.1136,0.3598 1.11983,3.02086 10.46367,17.56653 14.68356,21.58804 9.18776,0.15183 17.50546,0.32929 23.94245,0.49818 2.99961,0.0787 4.15202,-1.06328 6.50394,-14.64112 2.00684,11.73413 5.98084,15.05317 7.66839,15.13931 0.31052,0.0159 0.53764,0.0396 0.82365,0.0553 2.68813,-1.40799 4.09092,-6.17638 2.18691,-21.31127 4.09896,10.6244 10.15491,16.46872 16.10364,19.65065 1.08664,-2.0251 2.09321,-5.67687 3.43657,-12.20554 2.38394,11.73412 7.08383,15.05316 9.08848,15.1393 4.47417,0.19225 6.81635,0.37713 6.81635,0.58122 l 0,28.89471 c 0,1.6378 -151.194,2.9615 -339,2.9615 -23.47575,0 -46.36812,-0.016 -68.47596,-0.055 C 133.26922,857.5442 17.5,856.3469 17.5,854.9139 l 0,-28.8948 c 0,-0.20409 2.34218,-0.38897 6.81635,-0.58122 2.00465,-0.0861 6.70454,-3.40518 9.08848,-15.1393 1.34336,6.52867 2.34993,10.18044 3.43657,12.20554 5.94874,-3.18193 12.00468,-9.02625 16.10364,-19.65065 -1.90401,15.13489 -0.50122,19.90328 2.18691,21.31127 0.28601,-0.0158 0.51313,-0.0395 0.82365,-0.0553 1.68755,-0.0861 5.66155,-3.40518 7.66839,-15.13931 2.35192,13.57784 3.50433,14.71986 6.50394,14.64112 6.43698,-0.16889 14.75469,-0.34635 23.94245,-0.49818 4.21989,-4.02151 13.56373,-18.56718 14.68356,-21.58804 0.0468,-0.12617 0.0966,-0.27561 0.1136,-0.3598 0.50557,-2.49745 0.28355,-1.25514 -0.142,1.0794 -0.60131,10.523 -0.41907,15.85121 0.19881,18.51589 4.80997,-3.26505 9.64014,-9.04115 12.95107,-19.23549 -0.44436,4.19589 -0.65697,7.57243 -0.71004,10.32351 3.02403,-5.32298 5.76259,-10.82809 5.96431,-12.01181 1.50927,-8.85659 -3.85072,22.87872 -2.30052,22.86118 0.57973,-0.007 1.42023,0.0483 2.41413,0.13839 1.07777,-0.0247 2.26125,-0.0316 3.37977,-0.0554 1.54382,-2.60217 -5.44548,-10.16331 -2.69814,-10.18512 3.18874,-0.0253 6.44269,4.00319 9.74171,7.22369 2.44803,-3.3996 4.8439,-9.01952 6.53234,-18.29448 -0.23495,3.95797 -0.35909,7.13292 -0.39762,9.79765 3.08443,0.64743 6.22352,6.14145 9.42929,9.1334 2.51158,-2.77029 4.92841,-7.93321 6.90155,-17.4365 0.1599,-2.19193 0.32959,-4.39166 0.51123,-7.11298 0.11854,1.23547 0.14329,2.4746 0.14201,3.70871 0.10293,-0.5799 0.21261,-1.10773 0.31242,-1.71597 0.17656,2.49348 0.41271,4.74769 0.71003,6.78086 0.34972,-2.24497 0.70775,-4.61803 1.10766,-7.44511 0.80098,3.93915 0.01,7.91511 -0.34082,11.59666 0.80995,3.71454 1.83946,6.52933 3.01056,8.60754 2.06918,-3.62864 3.99714,-9.91788 5.50988,-20.86844 1.43495,24.07225 7.95357,25.65934 12.63866,25.62888 2.90989,-0.0189 6.1086,-0.0376 9.08847,-0.0554 1.16294,-0.84537 1.85989,-5.16888 3.26617,-26.23777 1.03337,10.77029 -3.57902,21.92543 5.90751,26.18242 0.12382,-6.8e-4 0.24572,6.9e-4 0.36922,0 0.39833,-1.8031 0.66059,-4.41767 0.73844,-8.30309 1.58624,4.01888 2.53411,6.40407 3.29457,8.27541 0.81341,-0.005 1.65602,-0.0222 2.47093,-0.0277 1.9318,-1.1099 3.16205,-5.93404 5.56668,-26.12707 1.4301,8.35452 -3.19002,16.91758 2.55614,22.33532 1.54353,-4.548 3.23788,-11.08153 4.74304,-14.97324 0.79165,-2.68374 1.54064,-4.59173 2.15852,-4.59438 0.95746,-0.004 1.42449,1.5459 1.64728,3.81942 0.90713,4.39327 0.0187,13.48786 1.02245,17.85165 0.2627,0.6536 0.61707,1.05119 1.07926,1.10708 2.66744,0.3226 6.2884,0.33332 10.22453,0.30445 0.36056,-1.79476 0.60847,-4.31821 0.68164,-7.97097 1.52196,3.85602 2.38976,6.05907 3.15256,7.94329 2.47522,-0.019 4.99953,-0.008 7.44119,0.0553 0.97642,-0.026 1.91695,-0.0551 2.81174,-0.0553 0.49326,-1.66726 0.8182,-3.81097 0.93725,-6.6148 2.44182,2.91913 4.2009,4.97935 5.6803,6.72551 2.89426,0.0882 5.83489,0.21008 8.77605,0.3598 4.23459,-20.01769 3.63355,-8.36575 3.8626,-2.18648 0.71875,-2.34287 1.40643,-5.8641 1.9029,-11.04312 0.77859,8.01928 1.32666,11.66361 1.9881,13.31263 0.21403,-0.0144 0.44074,-0.0412 0.65324,-0.0554 4.79498,-18.67307 3.91966,-6.14773 4.26022,-0.27677 2.67226,-0.13904 5.19315,-0.22141 7.41278,-0.22141 0.20609,0 0.41819,-7.2e-4 0.62484,0 0.27428,-4.76583 -0.34386,-19.63307 1.73249,-3.34892 0.20048,-1.31122 0.33328,-2.79431 0.39762,-4.59437 2.70028,3.83467 4.44256,6.242 5.7939,8.10935 0.68721,0.0253 1.38326,0.0538 2.07331,0.083 1.1897,-0.15947 2.45406,-0.22522 3.74899,-0.24909 2.08909,-4.27746 6.73031,-19.80226 6.92996,-21.89249 0.60961,-6.38223 -0.77743,8.16905 -1.27807,16.85528 0.41698,-2.03835 0.80441,-4.55847 1.10766,-7.72188 0.69857,7.19507 1.21422,10.85724 1.78929,12.73141 0.78359,-0.0443 1.50423,-0.11404 2.13011,-0.24909 2.07254,-0.44719 0.0557,-22.79443 2.10171,-22.77815 1.14603,0.009 3.06257,20.51299 4.28863,23.0826 1.16008,-2.2246 -2.491,-10.46682 -1.13606,-10.48958 1.88996,-0.0318 3.82361,6.33461 5.7939,9.43785 0.17953,-5.84589 -0.31548,-19.15289 2.10171,1.10708 0.72596,-0.0109 1.43506,-0.0186 2.15851,-0.0277 1.97997,-1.43999 4.15239,-6.58172 5.59509,-25.21372 0.5365,16.05728 2.31518,22.09155 4.23182,24.32806 2.00336,-4.64011 5.54493,-16.35222 6.36193,-20.06581 0.0725,-1.34812 0.14792,-2.73927 0.19881,-4.26225 0.0465,0.6014 0.094,1.14232 0.14201,1.71597 1.13366,13.53665 2.66654,19.47915 4.20342,22.05855 1.03037,-4.57676 -0.28495,-21.68533 1.50527,-21.67107 1.05297,0.008 2.75554,17.28189 3.97621,22.08622 0.16238,-0.25258 0.34942,-0.51014 0.51123,-0.80263 -6.7e-4,-0.009 6.9e-4,-0.0189 0,-0.0277 -0.25284,-3.23744 -2.43277,-8.64446 -1.33487,-8.6629 1.09609,-0.0185 2.20072,2.13243 3.32297,4.53903 1.12225,-2.4066 2.22688,-4.55749 3.32297,-4.53903 1.0979,0.0184 -1.08203,5.42546 -1.33487,8.6629 -6.9e-4,0.009 6.7e-4,0.0189 0,0.0277 0.16181,0.29249 0.34885,0.55005 0.51123,0.80263 1.22067,-4.80433 2.92324,-22.07784 3.97621,-22.08622 1.79022,-0.0142 0.4749,17.09431 1.50527,21.67107 1.53688,-2.5794 3.06976,-8.5219 4.20342,-22.05855 0.0481,-0.57365 0.0954,-1.11457 0.14201,-1.71597 0.0509,1.52298 0.12628,2.91413 0.19881,4.26225 0.817,3.71359 4.35857,15.4257 6.36193,20.06581 1.91664,-2.23651 3.69532,-8.27078 4.23182,-24.32806 1.4427,18.632 3.61512,23.77373 5.59509,25.21372 0.72345,0.009 1.43255,0.0168 2.15851,0.0277 2.41719,-20.25997 1.92218,-6.95297 2.10171,-1.10708 1.97029,-3.10324 3.90394,-9.46969 5.7939,-9.43785 1.35494,0.0228 -2.29615,8.26498 -1.13606,10.48958 1.22606,-2.56961 3.1426,-23.07348 4.28863,-23.0826 2.04599,-0.0163 0.0292,22.33096 2.10171,22.77815 0.62588,0.13512 1.34652,0.20484 2.13011,0.24909 0.57507,-1.87417 1.09072,-5.53634 1.78929,-12.73141 0.30324,3.16341 0.69068,5.68353 1.10766,7.72188 -0.50064,-8.68623 -1.88768,-23.23751 -1.27807,-16.85528 0.19965,2.09023 4.84087,17.61503 6.92996,21.89249 1.29493,0.0239 2.55929,0.0896 3.74899,0.24909 0.69005,-0.0293 1.3861,-0.0578 2.07331,-0.083 1.35134,-1.86735 3.09362,-4.27468 5.7939,-8.10935 0.0644,1.80006 0.19714,3.28315 0.39762,4.59437 2.07635,-16.28415 1.45821,-1.41691 1.73249,3.34892 0.20665,-7.2e-4 0.41875,0 0.62484,0 2.21963,0 4.74052,0.0824 7.41278,0.22141 0.34056,-5.87096 -0.53476,-18.3963 4.26022,0.27677 0.2125,0.0142 0.43921,0.041 0.65324,0.0554 0.66144,-1.64902 1.20951,-5.29335 1.9881,-13.31263 0.49647,5.17902 1.18415,8.70025 1.9029,11.04312 0.22905,-6.17927 -0.37199,-17.83121 3.8626,2.18648 2.94116,-0.14972 5.88179,-0.27164 8.77605,-0.3598 1.4794,-1.74616 3.23848,-3.80638 5.6803,-6.72551 0.11905,2.80383 0.44399,4.94754 0.93725,6.6148 0.89479,2.6e-4 1.83532,0.0293 2.81174,0.0553 2.44166,-0.0632 4.96597,-0.0743 7.44119,-0.0553 0.7628,-1.88422 1.6306,-4.08727 3.15256,-7.94329 0.0732,3.65276 0.32108,6.17621 0.68164,7.97097 3.93613,0.0288 7.55709,0.0182 10.22453,-0.30445 0.46219,-0.0559 0.81656,-0.45348 1.07926,-1.10708 1.0037,-4.36379 0.11532,-13.45838 1.02245,-17.85165 0.22279,-2.27352 0.68982,-3.82369 1.64728,-3.81942 0.61788,0.003 1.36687,1.91064 2.15852,4.59438 1.50516,3.89171 3.19951,10.42524 4.74304,14.97324 5.74616,-5.41774 1.12604,-13.9808 2.55614,-22.33532 2.40463,20.19303 3.63488,25.01717 5.56668,26.12707 0.81491,0.005 1.65752,0.0223 2.47093,0.0277 0.76046,-1.87134 1.70833,-4.25653 3.29457,-8.27541 0.0778,3.88542 0.34011,6.49999 0.73844,8.30309 0.1235,7e-4 0.2454,-6.8e-4 0.36922,0 9.48653,-4.25699 4.87414,-15.41213 5.90751,-26.18242 1.40628,21.06889 2.10323,25.3924 3.26617,26.23777 2.97987,0.0178 6.17858,0.0365 9.08847,0.0554 4.68509,0.0305 11.20371,-1.55663 12.63866,-25.62888 1.51274,10.95056 3.4407,17.2398 5.50988,20.86844 1.1711,-2.07821 2.20061,-4.893 3.01056,-8.60754 -0.35084,-3.68155 -1.1418,-7.65751 -0.34082,-11.59666 0.39991,2.82708 0.75794,5.20014 1.10766,7.44511 0.29732,-2.03317 0.53347,-4.28738 0.71003,-6.78086 0.0998,0.60824 0.20949,1.13607 0.31242,1.71597 -9.1e-4,-1.23411 0.0234,-2.47324 0.14201,-3.70871 z m 16.84207,19.18014 c -1.17044,2.55443 -2.61526,5.64166 -1.30647,6.78086 0.10316,0.0898 0.19633,0.1677 0.31242,0.2491 0.53147,-1.11639 0.9014,-3.19038 0.99405,-7.02996 z m -425.39728,0 c 0.0926,3.83958 0.46258,5.91357 0.99405,7.02996 0.11609,-0.0814 0.20926,-0.15931 0.31241,-0.2491 1.3088,-1.1392 -0.13602,-4.22643 -1.30646,-6.78086 z"
       style="fill:#55d400;stroke:none"
       inkscape:connector-curvature="0" />
    <path
       style="fill:#2d5016;stroke:none"
       d="m 147,808.90625 c -0.19986,2.41392 -0.38657,4.36816 -0.5625,6.3125 -0.85994,3.33902 -1.79198,6.04296 -2.78125,8.28125 -0.73486,-0.45566 -1.45832,-0.78286 -2.1875,-0.90625 0.0424,-2.36372 0.17899,-5.20787 0.4375,-8.71875 -1.52779,6.76587 -3.57037,11.34915 -5.75,14.4375 -2.59679,-2.50202 -5.16272,-5.2915 -7.6875,-5.71875 0.0424,-2.36372 0.17899,-5.20787 0.4375,-8.71875 -0.92889,4.11363 -2.05329,7.44212 -3.28125,10.09375 -0.54674,-0.153 -1.08162,-0.25348 -1.625,-0.25 -1.24985,0.008 -0.6484,1.17658 0.34375,2.6875 -0.85119,1.47168 -1.7353,2.72269 -2.625,3.71875 -0.42531,-0.33472 -0.85734,-0.68379 -1.28125,-1.03125 0.73488,-7.29307 3.9745,-22.77601 2.6875,-16.6875 -0.22195,1.05001 -3.23518,5.93456 -6.5625,10.65625 0.0584,-2.44032 0.29232,-5.46558 0.78125,-9.1875 -1.61536,4.00971 -3.56248,7.25895 -5.6875,9.875 -0.21984,-0.0256 -0.43697,-0.0327 -0.65625,-0.0312 -0.83226,0.005 -0.8411,0.52468 -0.46875,1.3125 -0.95938,1.05676 -1.96188,2.00525 -2.96875,2.84375 0.92837,-7.65246 3.78192,-21.23759 2.5625,-15.46875 -0.22195,1.05001 -3.23518,5.93456 -6.5625,10.65625 0.0584,-2.44032 0.29232,-5.46558 0.78125,-9.1875 -0.5223,1.29647 -1.07022,2.51591 -1.65625,3.65625 0.0537,-0.94953 0.11191,-1.93352 0.1875,-3 0.46823,-2.07082 0.71252,-3.18408 0.15625,-0.96875 -0.0187,0.0747 -0.0735,0.20059 -0.125,0.3125 -1.0001,2.17499 -7.930482,11.03237 -13,16.21875 -0.513776,-2.58267 -0.62303,-7.21337 -0.03125,-15.5625 0.46823,-2.07082 0.71252,-3.18408 0.15625,-0.96875 -0.01875,0.0747 -0.0735,0.20059 -0.125,0.3125 -1.23214,2.67962 -11.51312,15.58902 -16.15625,19.15625 -5.448595,0.0726 -10.531692,0.16895 -15.25,0.25 -2.011675,-0.68512 -3.226842,-3.36511 -5.25,-12.78125 -1.741376,8.2085 -4.8306,11.7592 -6.96875,12.9375 -2.351981,-0.28062 -3.604388,-2.23807 -5.625,-11.1875 0.141655,-2.04531 0.410345,-4.4101 0.84375,-7.1875 -3.520863,7.35723 -8.341389,12.13602 -13.40625,15.21875 -0.782799,-2.8188 -0.800581,-7.48499 0.40625,-15.21875 -2.092231,4.37194 -4.645224,7.82802 -7.4375,10.5625 -0.336832,-1.16471 -0.684957,-2.45829 -1.0625,-3.9375 -0.739322,2.93376 -1.666759,5.24308 -2.6875,7.09375 -2.135438,1.54807 -4.336733,2.77243 -6.53125,3.71875 C 9.58562,830.70365 8.4780996,827.4787 7,821.6875 c -2.62303,10.40864 -7.79430005,13.32985 -10,13.40625 -4.92291,0.17053 -7.5,0.35021 -7.5,0.53125 l 0,25.625 c 0,1.2712 127.38029,2.3179 297.65625,2.5625 4.19712,0.006 8.75262,-0.005 13,0 24.32514,0.0349 49.5135,0.0625 75.34375,0.0625 21.18764,-0.005 42.21573,-0.0336 62.34375,-0.0625 4.24738,-0.005 8.80288,0.006 13,0 C 621.11971,863.5679 748.5,862.5212 748.5,861.25 l 0,-25.625 c 0,-0.18104 -2.57709,-0.36072 -7.5,-0.53125 -2.2057,-0.0764 -7.37697,-2.99761 -10,-13.40625 -1.4781,5.7912 -2.58562,9.01615 -3.78125,10.8125 -2.19452,-0.94632 -4.39581,-2.17068 -6.53125,-3.71875 -1.02074,-1.85067 -1.94818,-4.15999 -2.6875,-7.09375 -0.37754,1.47921 -0.72567,2.77279 -1.0625,3.9375 -2.79228,-2.73448 -5.34527,-6.19056 -7.4375,-10.5625 1.20683,7.73376 1.18905,12.39995 0.40625,15.21875 -5.06486,-3.08273 -9.88539,-7.86152 -13.40625,-15.21875 0.4334,2.7774 0.70209,5.14219 0.84375,7.1875 -2.02061,8.94943 -3.27302,10.90688 -5.625,11.1875 -2.13815,-1.1783 -5.22737,-4.729 -6.96875,-12.9375 -2.02316,9.41614 -3.23833,12.09613 -5.25,12.78125 -4.71831,-0.0811 -9.80141,-0.17741 -15.25,-0.25 -4.64313,-3.56723 -14.92411,-16.47663 -16.15625,-19.15625 -0.0515,-0.11191 -0.10625,-0.23782 -0.125,-0.3125 -0.55627,-2.21533 -0.31198,-1.10207 0.15625,0.96875 0.59178,8.34913 0.48253,12.97983 -0.0312,15.5625 -5.06952,-5.18638 -11.9999,-14.04376 -13,-16.21875 -0.0515,-0.11191 -0.1063,-0.2378 -0.125,-0.3125 -0.55627,-2.21533 -0.31198,-1.10207 0.15625,0.96875 0.0756,1.06648 0.13385,2.05047 0.1875,3 -0.58603,-1.14034 -1.13395,-2.35978 -1.65625,-3.65625 0.48893,3.72192 0.72286,6.74718 0.78125,9.1875 -3.32732,-4.72169 -6.34055,-9.60624 -6.5625,-10.65625 -1.21942,-5.76884 1.63413,7.81629 2.5625,15.46875 -1.00688,-0.8385 -2.00938,-1.78699 -2.96875,-2.84375 0.37235,-0.78782 0.36351,-1.30717 -0.46875,-1.3125 -0.21928,-0.001 -0.43641,0.006 -0.65625,0.0312 -2.12502,-2.61605 -4.07214,-5.86529 -5.6875,-9.875 0.48893,3.72192 0.72285,6.74718 0.78125,9.1875 -3.32732,-4.72169 -6.34055,-9.60624 -6.5625,-10.65625 -1.287,-6.08851 1.95262,9.39443 2.6875,16.6875 -0.42391,0.34746 -0.85594,0.69653 -1.28125,1.03125 -0.8897,-0.99606 -1.77381,-2.24707 -2.625,-3.71875 0.99215,-1.51092 1.5936,-2.67952 0.34375,-2.6875 -0.54338,-0.003 -1.07826,0.097 -1.625,0.25 -1.22796,-2.65163 -2.35236,-5.98012 -3.28125,-10.09375 0.25851,3.51088 0.3951,6.35503 0.4375,8.71875 -2.52478,0.42725 -5.09071,3.21673 -7.6875,5.71875 -2.17963,-3.08835 -4.22221,-7.67163 -5.75,-14.4375 0.25851,3.51088 0.3951,6.35503 0.4375,8.71875 -0.72918,0.12339 -1.45264,0.45059 -2.1875,0.90625 -0.98927,-2.23829 -1.92131,-4.94223 -2.78125,-8.28125 -0.17593,-1.94434 -0.36264,-3.89858 -0.5625,-6.3125 -0.13043,1.09591 -0.15766,2.18654 -0.15625,3.28125 -0.11325,-0.5144 -0.23393,-0.96047 -0.34375,-1.5 -0.19427,2.21182 -0.45411,4.1965 -0.78125,6 -0.38479,-1.99137 -0.77873,-4.08603 -1.21875,-6.59375 -0.88132,3.49418 -0.011,7.01557 0.375,10.28125 -0.89118,3.29495 -2.02395,5.78155 -3.3125,7.625 -2.27671,-3.21874 -4.39803,-8.78641 -6.0625,-18.5 -0.17689,2.39234 -0.44339,4.4886 -0.75,6.40625 -0.0635,-0.23691 -0.12484,-0.44422 -0.1875,-0.6875 -0.17593,-1.94434 -0.36264,-3.89858 -0.5625,-6.3125 -0.13045,1.09591 -0.15725,2.18654 -0.15625,3.28125 -0.11325,-0.5144 -0.23393,-0.96047 -0.34375,-1.5 -0.19427,2.21182 -0.45411,4.1965 -0.78125,6 -0.38479,-1.99137 -0.77873,-4.08603 -1.21875,-6.59375 -0.88132,3.49418 -0.011,7.01557 0.375,10.28125 -0.89118,3.29495 -2.02395,5.78155 -3.3125,7.625 -2.27671,-3.21874 -4.39803,-8.78641 -6.0625,-18.5 -1.30881,17.70079 -6.46422,21.66661 -11.125,22.5 -1.14425,-1.10766 -1.92438,-5.57286 -3.375,-23.09375 -1.13701,9.55368 3.93798,19.44263 -6.5,23.21875 -0.13624,-6.1e-4 -0.27037,6.1e-4 -0.40625,0 -0.43828,-1.59943 -0.72685,-3.89723 -0.8125,-7.34375 -1.312,2.67979 -1.9898,4.03601 -2.71875,5.5 -0.76328,-2.5557 -1.47759,-8.27127 -2.5625,-21.375 -0.96824,8.13556 2.56192,16.51495 -2.8125,21.15625 -1.30245,-2.70277 -2.51177,-8.54225 -4.375,-21.15625 -1.30135,6.12892 1.94374,12.39463 -0.46875,17.09375 -0.0176,-0.40608 -0.0515,-0.77639 -0.0625,-1.21875 -0.82784,1.69089 -1.15401,2.32391 -1.71875,3.46875 -0.17585,0.15554 -0.36492,0.31857 -0.5625,0.46875 -1.69834,-4.03426 -3.56263,-9.82914 -5.21875,-13.28125 -0.87104,-2.38058 -1.69515,-4.06015 -2.375,-4.0625 -0.98765,-0.004 -1.4877,1.21846 -1.75,3.03125 -0.26856,-1.68855 -0.54527,-3.47929 -0.84375,-5.5 -0.74691,3.51771 -0.009,7.06086 0.3125,10.34375 -0.0443,1.47239 -0.0779,3.04978 -0.0937,4.59375 -0.34798,1.81375 -1.17751,3.46596 -3.03125,4.875 -1.69834,-4.03426 -3.56263,-9.82914 -5.21875,-13.28125 -0.87104,-2.38058 -1.69515,-4.0605 -2.375,-4.0625 -1.05349,-0.004 -1.56736,1.35829 -1.8125,3.375 -0.93573,3.65344 -0.13126,10.97245 -0.9375,15.0625 -0.19087,-1.34565 -0.32352,-2.95923 -0.375,-5.03125 -1.6537,3.37774 -2.60574,5.27983 -3.4375,6.9375 -0.83675,0.0392 -1.72598,0.0767 -2.65625,0.0937 -0.73286,6.1e-4 -1.45633,-0.006 -2.1875,0 -1.30044,0.007 -2.57273,0.0395 -3.96875,0.0312 -0.39672,-1.59202 -0.6695,-3.82235 -0.75,-7.0625 -1.13133,2.31078 -1.68313,3.41273 -2.34375,4.75 -0.203,-1.04252 -0.36528,-2.22257 -0.4375,-3.59375 -2.65925,2.56291 -4.5701,4.36749 -6.1875,5.90625 -0.89626,0.009 -1.80571,0.0128 -2.6875,0.0312 -1.07435,-0.0231 -2.10921,-0.0623 -3.09375,-0.0625 -0.54273,-1.47893 -0.90026,-3.38789 -1.03125,-5.875 -1.57351,1.51651 -2.50899,2.40907 -3.65625,3.5 -3.82842,-13.76608 -3.26257,-4.32 -3.5,0.84375 -0.79084,-2.07821 -1.54749,-5.18726 -2.09375,-9.78125 -0.81668,6.78126 -1.41027,10.0061 -2.09375,11.5625 -0.2922,0.01 -0.58243,0.021 -0.875,0.0312 -4.37288,-13.68033 -4.38259,-8.12037 -4.5,-2.90625 -3.75747,-13.42794 -3.20141,-4.04081 -3.4375,1.09375 -0.79084,-2.07821 -1.54749,-5.18726 -2.09375,-9.78125 -0.77483,6.43376 -1.32894,9.66619 -1.96875,11.3125 -0.25062,-0.001 -0.53709,0 -0.78125,0 -0.10307,0 -0.20788,8e-5 -0.3125,0 -0.15125,-0.47017 -0.26543,-0.8886 -0.40625,-1.3125 -0.13834,-4.62957 0.12229,-13.07617 -1.46875,-4.03125 -1.89285,-4.71447 -2.32593,-2.93085 -2.46875,0.125 -1.81527,2.05963 -3.55783,4.05757 -4.65625,5.28125 -1.28311,-0.0302 -2.53474,-0.0625 -3.6875,-0.0625 -0.22676,0 -0.46013,-6.4e-4 -0.6875,0 -0.30179,-4.22748 0.37834,-17.41345 -1.90625,-2.96875 -0.22059,-1.16311 -0.3667,-2.46577 -0.4375,-4.0625 -0.95826,1.09708 -1.3026,1.45242 -2.0625,2.3125 -2.38665,-5.54552 -5.18224,-13.32431 -5.34375,-14.6875 -0.67075,-5.66129 0.8554,7.23246 1.40625,14.9375 -0.4588,-1.80811 -0.88509,-4.03768 -1.21875,-6.84375 -0.76863,6.38231 -1.336,9.61879 -1.96875,11.28125 -0.86218,-0.0393 -1.65509,-0.099 -2.34375,-0.21875 -2.2804,-0.39668 -0.0613,-20.20194 -2.3125,-20.1875 -0.74288,0.005 -1.77857,6.28335 -2.78125,11.9375 -1.90421,-4.80222 -3.65441,-9.83564 -3.78125,-10.90625 -0.58197,-4.912 0.47127,4.04367 1.125,11.5625 -0.11559,0.14809 -0.22789,0.27298 -0.34375,0.4375 -0.21488,-1.16973 -0.42043,-2.44867 -0.59375,-3.90625 -0.31272,2.59663 -0.57971,4.55534 -0.84375,6.21875 -0.8672,1.49961 -1.74396,3.06879 -2.625,4.1875 -0.1827,-4.79601 0.22269,-14.95525 -1.8125,-2.28125 -0.51801,-5.60559 0.3848,-17.26113 -1.34375,-17.25 -1.01898,0.007 -2.59707,11.7697 -3.875,17.53125 -0.17092,-0.36212 -0.33131,-0.77616 -0.5,-1.21875 0.73795,-2.52465 1.79725,-5.14418 0.90625,-5.15625 -0.67484,-0.009 -1.34656,0.60667 -2.03125,1.5 -0.81866,-3.33183 -1.55806,-7.97779 -2.1875,-14.53125 -0.34837,8.40581 -1.16807,13.68343 -2.21875,17.03125 -0.0502,-4.59266 -0.24031,-7.83493 -2.0625,4.15625 -0.12042,0.13794 -0.25333,0.26055 -0.375,0.375 -2.20429,-4.11596 -6.10106,-14.48715 -7,-17.78125 -0.0798,-1.19583 -0.16276,-2.4303 -0.21875,-3.78125 -0.0512,0.53347 -0.10339,1.0224 -0.15625,1.53125 -0.12912,1.24298 -0.2682,2.36597 -0.40625,3.46875 -0.19369,-1.54601 -0.38706,-3.17338 -0.5625,-5 -0.50695,12.23209 -2.0278,17.88464 -3.78125,20.5 -0.89407,-4.72475 0.3578,-18.63713 -1.53125,-18.625 -0.74419,0.005 -1.77721,6.2539 -2.78125,11.90625 -1.5818,-3.99193 -3.05293,-8.13273 -3.5625,-10 -0.0798,-1.19583 -0.16275,-2.4303 -0.21875,-3.78125 -0.0512,0.53347 -0.10335,1.0224 -0.15625,1.53125 -0.59897,5.76587 -1.30911,9.9251 -2.0625,13 -0.67539,-0.88304 -1.33207,-1.50907 -2,-1.5 -0.89112,0.012 0.17112,2.63335 0.90625,5.15625 -0.16652,0.43858 -0.36251,0.82801 -0.53125,1.1875 -0.45725,-2.07702 -0.94492,-4.92735 -1.4375,-7.71875 -0.0131,-4.94999 -0.0424,-9.78843 -1.15625,-9.78125 -0.19106,0.001 -0.40064,0.4403 -0.625,1.15625 -0.22436,-0.71595 -0.43394,-1.15502 -0.625,-1.15625 -1.11386,-0.007 -1.14312,4.83126 -1.15625,9.78125 -0.49258,2.7914 -0.98025,5.64173 -1.4375,7.71875 -0.16874,-0.35949 -0.36473,-0.74892 -0.53125,-1.1875 0.73513,-2.5229 1.79737,-5.14423 0.90625,-5.15625 -0.66793,-0.009 -1.32461,0.61696 -2,1.5 -0.75339,-3.0749 -1.46353,-7.23413 -2.0625,-13 -0.0529,-0.50885 -0.10501,-0.99778 -0.15625,-1.53125 -0.056,1.35095 -0.13895,2.58542 -0.21875,3.78125 -0.50957,1.86727 -1.9807,6.00807 -3.5625,10 -1.00404,-5.65235 -2.03706,-11.90175 -2.78125,-11.90625 -1.88905,-0.0121 -0.63718,13.90025 -1.53125,18.625 -1.75345,-2.61536 -3.2743,-8.26791 -3.78125,-20.5 -0.17544,1.82662 -0.36881,3.45399 -0.5625,5 -0.13805,-1.10278 -0.27713,-2.22577 -0.40625,-3.46875 -0.0529,-0.50885 -0.10505,-0.99778 -0.15625,-1.53125 -0.056,1.35095 -0.13895,2.58542 -0.21875,3.78125 -0.89894,3.2941 -4.79571,13.66529 -7,17.78125 -0.12167,-0.11445 -0.25458,-0.23706 -0.375,-0.375 -1.82219,-11.99118 -2.01231,-8.74891 -2.0625,-4.15625 -1.05068,-3.34782 -1.87038,-8.62544 -2.21875,-17.03125 -0.62944,6.55346 -1.36884,11.19942 -2.1875,14.53125 -0.68469,-0.89333 -1.35641,-1.50916 -2.03125,-1.5 -0.891,0.0121 0.1683,2.6316 0.90625,5.15625 -0.16869,0.44259 -0.32908,0.85663 -0.5,1.21875 -1.27793,-5.76155 -2.85602,-17.52471 -3.875,-17.53125 -1.72855,-0.0111 -0.82574,11.64441 -1.34375,17.25 -2.03519,-12.674 -1.6298,-2.51476 -1.8125,2.28125 -0.88104,-1.11871 -1.7578,-2.68789 -2.625,-4.1875 -0.26404,-1.66341 -0.53103,-3.62212 -0.84375,-6.21875 -0.17332,1.45758 -0.37887,2.73652 -0.59375,3.90625 -0.11586,-0.16452 -0.22816,-0.28941 -0.34375,-0.4375 0.65373,-7.51883 1.70697,-16.4745 1.125,-11.5625 -0.12684,1.07061 -1.87704,6.10403 -3.78125,10.90625 -1.00268,-5.65415 -2.03837,-11.93279 -2.78125,-11.9375 -2.2512,-0.0144 -0.0321,19.79082 -2.3125,20.1875 -0.68866,0.11979 -1.48157,0.17945 -2.34375,0.21875 -0.63275,-1.66246 -1.20012,-4.89894 -1.96875,-11.28125 -0.33366,2.80607 -0.75995,5.03564 -1.21875,6.84375 0.55085,-7.70504 2.077,-20.59879 1.40625,-14.9375 -0.16151,1.36319 -2.9571,9.14198 -5.34375,14.6875 -0.7599,-0.86008 -1.10424,-1.21542 -2.0625,-2.3125 -0.0708,1.59673 -0.21691,2.89939 -0.4375,4.0625 -2.28459,-14.4447 -1.60446,-1.25873 -1.90625,2.96875 -0.22737,-6.4e-4 -0.46074,0 -0.6875,0 -1.15276,0 -2.40439,0.0323 -3.6875,0.0625 -1.09842,-1.22368 -2.84098,-3.22162 -4.65625,-5.28125 -0.14282,-3.05585 -0.5759,-4.83947 -2.46875,-0.125 -1.59104,-9.04492 -1.33041,-0.59832 -1.46875,4.03125 -0.14082,0.4239 -0.255,0.84233 -0.40625,1.3125 -0.10462,8e-5 -0.20943,0 -0.3125,0 -0.24416,0 -0.53063,-0.001 -0.78125,0 -0.63981,-1.64631 -1.19392,-4.87874 -1.96875,-11.3125 -0.54626,4.59399 -1.30291,7.70304 -2.09375,9.78125 -0.23609,-5.13456 0.31997,-14.52169 -3.4375,-1.09375 -0.11741,-5.21412 -0.12712,-10.77408 -4.5,2.90625 -0.29257,-0.0103 -0.5828,-0.0214 -0.875,-0.0312 -0.68348,-1.5564 -1.27707,-4.78124 -2.09375,-11.5625 -0.54626,4.59399 -1.30291,7.70304 -2.09375,9.78125 -0.23743,-5.16375 0.32842,-14.60983 -3.5,-0.84375 -1.14726,-1.09093 -2.08274,-1.98349 -3.65625,-3.5 -0.13099,2.48711 -0.48852,4.39607 -1.03125,5.875 -0.98454,2.4e-4 -2.0194,0.0394 -3.09375,0.0625 -0.88179,-0.0184 -1.79124,-0.0221 -2.6875,-0.0312 -1.6174,-1.53876 -3.52825,-3.34334 -6.1875,-5.90625 -0.0722,1.37118 -0.2345,2.55123 -0.4375,3.59375 -0.66062,-1.33727 -1.21242,-2.43922 -2.34375,-4.75 -0.0805,3.24015 -0.35328,5.47048 -0.75,7.0625 -1.39602,0.008 -2.66831,-0.0241 -3.96875,-0.0312 -0.2355,-0.001 -0.48729,0.002 -0.71875,0 -0.49175,-0.003 -0.97665,4.1e-4 -1.46875,0 -0.93027,-0.0171 -1.8195,-0.0546 -2.65625,-0.0937 -0.83176,-1.65767 -1.7838,-3.55976 -3.4375,-6.9375 -0.0515,2.07202 -0.18413,3.6856 -0.375,5.03125 -0.80624,-4.09005 -0.002,-11.40906 -0.9375,-15.0625 -0.24514,-2.01671 -0.75901,-3.37879 -1.8125,-3.375 -0.67985,0.002 -1.50396,1.68192 -2.375,4.0625 -1.65612,3.45211 -3.52041,9.24699 -5.21875,13.28125 -1.85374,-1.40904 -2.68327,-3.06125 -3.03125,-4.875 -0.0159,-1.54397 -0.0495,-3.12136 -0.0937,-4.59375 0.32109,-3.28289 1.05941,-6.82604 0.3125,-10.34375 -0.29848,2.02071 -0.57519,3.81145 -0.84375,5.5 -0.2623,-1.81279 -0.76235,-3.035 -1.75,-3.03125 -0.67985,0.002 -1.50396,1.68192 -2.375,4.0625 -1.65612,3.45211 -3.52041,9.24699 -5.21875,13.28125 -0.19758,-0.15018 -0.38665,-0.31321 -0.5625,-0.46875 -0.56474,-1.14484 -0.89091,-1.77786 -1.71875,-3.46875 -0.011,0.44236 -0.0449,0.81267 -0.0625,1.21875 -2.41249,-4.69912 0.8326,-10.96483 -0.46875,-17.09375 -1.86323,12.614 -3.07255,18.45348 -4.375,21.15625 -5.37442,-4.6413 -1.84426,-13.02069 -2.8125,-21.15625 -1.08491,13.10373 -1.79922,18.8193 -2.5625,21.375 -0.72895,-1.46399 -1.40675,-2.82021 -2.71875,-5.5 -0.0856,3.44652 -0.37422,5.74432 -0.8125,7.34375 -0.13588,6.1e-4 -0.27001,-6.1e-4 -0.40625,0 -10.43798,-3.77612 -5.36299,-13.66507 -6.5,-23.21875 -1.45062,17.52089 -2.23075,21.98609 -3.375,23.09375 -4.66078,-0.83339 -9.81619,-4.79921 -11.125,-22.5 -1.66447,9.71359 -3.78579,15.28126 -6.0625,18.5 -1.28855,-1.84345 -2.42132,-4.33005 -3.3125,-7.625 0.38603,-3.26568 1.25632,-6.78707 0.375,-10.28125 -0.44002,2.50772 -0.83396,4.60238 -1.21875,6.59375 -0.32714,-1.8035 -0.58698,-3.78818 -0.78125,-6 -0.10982,0.53953 -0.2305,0.9856 -0.34375,1.5 0.001,-1.09471 -0.0258,-2.18534 -0.15625,-3.28125 -0.19986,2.41392 -0.38657,4.36816 -0.5625,6.3125 -0.0627,0.24328 -0.12404,0.45059 -0.1875,0.6875 -0.30661,-1.91765 -0.57311,-4.01391 -0.75,-6.40625 -1.66447,9.71359 -3.78579,15.28126 -6.0625,18.5 -1.28855,-1.84345 -2.42132,-4.33005 -3.3125,-7.625 0.386,-3.26568 1.25632,-6.78707 0.375,-10.28125 -0.44002,2.50772 -0.83396,4.60238 -1.21875,6.59375 -0.32714,-1.8035 -0.58698,-3.78818 -0.78125,-6 -0.10982,0.53953 -0.2305,0.9856 -0.34375,1.5 0.001,-1.09471 -0.0258,-2.18534 -0.15625,-3.28125 z m -5.53125,17 c 0.16434,0.28916 0.33275,0.60627 0.5,0.90625 -0.13524,0.22376 -0.26972,0.41578 -0.40625,0.625 -0.0337,-0.48686 -0.0766,-0.95952 -0.0937,-1.53125 z m 455.0625,0 c -0.0171,0.57173 -0.06,1.04439 -0.0937,1.53125 -0.13653,-0.20922 -0.27101,-0.40124 -0.40625,-0.625 0.16725,-0.29998 0.33566,-0.61709 0.5,-0.90625 z"
       id="path3219"
       inkscape:connector-curvature="0" />
    <text
       xml:space="preserve"
       style="font-size:48.80564499px;font-style:normal;font-weight:normal;line-height:125%;letter-spacing:0px;word-spacing:0px;fill:#000000;fill-opacity:1;stroke:none;font-family:Sans"
       x="-617.32874"
       y="-56.429455"
       id="text3236"
       sodipodi:linespacing="125%"
       transform="scale(0.68852036,1.4523899)"><tspan
         sodipodi:role="line"
         id="tspan3238"
         x="-617.32874"
         y="-56.429455"
         style="font-style:normal;font-variant:normal;font-weight:bold;font-stretch:normal;letter-spacing:-3.85564446px;font-family:Segoe Print;-inkscape-font-specification:Segoe Print Bold">The Key to Keys</tspan></text>
    <text
       transform="scale(0.68852036,1.4523899)"
       sodipodi:linespacing="125%"
       id="text3240"
       y="-58.863392"
       x="-620.07977"
       style="font-size:48.80564499px;font-style:normal;font-weight:normal;line-height:125%;letter-spacing:0px;word-spacing:0px;fill:#ddff55;fill-opacity:1;stroke:none;font-family:Sans"
       xml:space="preserve"><tspan
         style="font-style:normal;font-variant:normal;font-weight:bold;font-stretch:normal;letter-spacing:-3.85564446px;fill:#ddff55;font-family:Segoe Print;-inkscape-font-specification:Segoe Print Bold"
         y="-58.863392"
         x="-620.07977"
         id="tspan3242"
         sodipodi:role="line">The Key to Keys</tspan></text>
    <text
       xml:space="preserve"
       style="font-size:22.58674049px;font-style:normal;font-weight:normal;line-height:125%;letter-spacing:0px;word-spacing:0px;fill:#000000;fill-opacity:1;stroke:none;font-family:Sans"
       x="-362.2139"
       y="-31.921181"
       id="text3244"
       sodipodi:linespacing="125%"
       transform="scale(1.118152,0.8943328)"><tspan
         sodipodi:role="line"
         id="tspan3246"
         x="-362.2139"
         y="-31.921181"
         style="font-style:normal;font-variant:normal;font-weight:normal;font-stretch:normal;font-family:Segoe Print;-inkscape-font-specification:Segoe Print">maryanne peters</tspan></text>
    <text
       sodipodi:linespacing="125%"
       id="text3248"
       y="-33.050514"
       x="-361.08453"
       style="font-size:22.58674049px;font-style:normal;font-weight:normal;line-height:125%;letter-spacing:0px;word-spacing:0px;fill:#ff2a2a;fill-opacity:1;stroke:none;font-family:Sans"
       xml:space="preserve"
       transform="scale(1.118152,0.8943328)"><tspan
         style="font-style:normal;font-variant:normal;font-weight:normal;font-stretch:normal;fill:#ff2a2a;font-family:Segoe Print;-inkscape-font-specification:Segoe Print"
         y="-33.050514"
         x="-361.08453"
         id="tspan3250"
         sodipodi:role="line">maryanne peters</tspan></text>
    <text
       xml:space="preserve"
       style="font-size:43.26900101px;font-style:normal;font-weight:normal;line-height:125%;letter-spacing:0px;word-spacing:0px;fill:#000000;fill-opacity:1;stroke:none;font-family:Sans"
       x="-101.82459"
       y="-58.396145"
       id="text3252"
       sodipodi:linespacing="125%"
       transform="scale(1.4140507,0.70718823)"><tspan
         sodipodi:role="line"
         id="tspan3254"
         x="-101.82459"
         y="-58.396145">#</tspan></text>
    <text
       xml:space="preserve"
       style="font-size:42.88222504px;font-style:normal;font-weight:normal;line-height:125%;letter-spacing:0px;word-spacing:0px;fill:#000000;fill-opacity:1;stroke:none;font-family:Sans"
       x="-100.08402"
       y="-17.690882"
       id="text3256"
       sodipodi:linespacing="125%"
       transform="scale(1.3616631,0.73439604)"><tspan
         sodipodi:role="line"
         id="tspan3258"
         x="-100.08402"
         y="-17.690882"
         style="font-style:normal;font-variant:normal;font-weight:normal;font-stretch:normal;font-family:MV Boli;-inkscape-font-specification:MV Boli">b</tspan></text>
    <path
       style="font-size:253.21080017px;font-style:normal;font-weight:normal;line-height:125%;letter-spacing:0px;word-spacing:0px;fill:#000000;fill-opacity:1;stroke:none;font-family:Sans"
       d="m -125.60338,-92.12758 -0.96826,1.69256 0.25381,0 -6.31721,10.9613 -0.12221,-0.004 -1.85192,3.22794 6.0728,0 0.0376,-0.0605 12.83184,0 -3.51583,6.18185 6.1292,0 0.70505,-1.22106 -0.13161,0 4.83192,-8.38217 -0.31962,0 3.56283,-6.18991 -5.74378,0 -0.009,0.0202 -12.86945,0 3.55343,-6.22618 -6.1292,0 z m 1.35369,8.38621 12.86945,0 -3.06461,5.26706 -12.83184,0 3.027,-5.26706 z"
       id="text3260"
       inkscape:connector-curvature="0" />
    <path
       inkscape:connector-curvature="0"
       id="path3284"
       d="m -123.50602,-93.75001 -0.96826,1.69255 0.25382,0 -6.31722,10.9613 -0.12221,-0.004 -1.85192,3.22795 6.0728,0 0.0376,-0.0605 12.83184,0 -3.51583,6.18185 6.1292,0 0.70505,-1.22106 -0.13161,0 4.83192,-8.38217 -0.31962,0 3.56283,-6.18991 -5.74378,0 -0.009,0.0202 -12.86945,0 3.55343,-6.22618 -6.1292,0 z m 1.35369,8.3862 12.86945,0 -3.0646,5.26707 -12.83185,0 3.027,-5.26707 z"
       style="font-size:253.21080017px;font-style:normal;font-weight:normal;line-height:125%;letter-spacing:0px;word-spacing:0px;fill:#ffdd55;fill-opacity:1;stroke:none;font-family:Sans" />
    <text
       transform="scale(1.4140507,0.70718823)"
       sodipodi:linespacing="125%"
       id="text3286"
       y="-60.002087"
       x="-99.599747"
       style="font-size:43.26900101px;font-style:normal;font-weight:normal;line-height:125%;letter-spacing:0px;word-spacing:0px;fill:#ffdd55;fill-opacity:1;stroke:none;font-family:Sans"
       xml:space="preserve"><tspan
         y="-60.002087"
         x="-99.599747"
         id="tspan3288"
         sodipodi:role="line">#</tspan></text>
    <text
       transform="scale(1.3616631,0.73439604)"
       sodipodi:linespacing="125%"
       id="text3290"
       y="-19.458239"
       x="-98.543747"
       style="font-size:42.88222504px;font-style:normal;font-weight:normal;line-height:125%;letter-spacing:0px;word-spacing:0px;fill:#ffdd55;fill-opacity:1;stroke:none;font-family:Sans"
       xml:space="preserve"><tspan
         style="font-style:normal;font-variant:normal;font-weight:normal;font-stretch:normal;fill:#ffdd55;font-family:MV Boli;-inkscape-font-specification:MV Boli"
         y="-19.458239"
         x="-98.543747"
         id="tspan3292"
         sodipodi:role="line">b</tspan></text>
  </g>
</svg>
