<?xml version="1.0" encoding="UTF-8" standalone="no"?>
<!-- Created with Inkscape (http://www.inkscape.org/) -->

<svg
   xmlns:dc="http://purl.org/dc/elements/1.1/"
   xmlns:cc="http://creativecommons.org/ns#"
   xmlns:rdf="http://www.w3.org/1999/02/22-rdf-syntax-ns#"
   xmlns:svg="http://www.w3.org/2000/svg"
   xmlns="http://www.w3.org/2000/svg"
   xmlns:xlink="http://www.w3.org/1999/xlink"
   xmlns:sodipodi="http://sodipodi.sourceforge.net/DTD/sodipodi-0.dtd"
   xmlns:inkscape="http://www.inkscape.org/namespaces/inkscape"
   width="744.09448819"
   height="1052.3622047"
   id="svg2995"
   version="1.1"
   inkscape:version="0.48.4 r9939"
   sodipodi:docname="goat.png">
  <defs
     id="defs2997">
    <linearGradient
       inkscape:collect="always"
       id="linearGradient3228">
      <stop
         style="stop-color:#d5e5ff;stop-opacity:1;"
         offset="0"
         id="stop3230" />
      <stop
         style="stop-color:#d5e5ff;stop-opacity:0;"
         offset="1"
         id="stop3232" />
    </linearGradient>
    <linearGradient
       inkscape:collect="always"
       xlink:href="#linearGradient3228"
       id="linearGradient3234"
       x1="90"
       y1="675.36218"
       x2="129"
       y2="344.36218"
       gradientUnits="userSpaceOnUse"
       gradientTransform="matrix(1,0,0,1.606264,0,-527.06298)" />
  </defs>
  <sodipodi:namedview
     id="base"
     pagecolor="#ffffff"
     bordercolor="#666666"
     borderopacity="1.0"
     inkscape:pageopacity="0.0"
     inkscape:pageshadow="2"
     inkscape:zoom="1"
     inkscape:cx="193.88088"
     inkscape:cy="602.81427"
     inkscape:document-units="px"
     inkscape:current-layer="layer1"
     showgrid="false"
     inkscape:window-width="1457"
     inkscape:window-height="1003"
     inkscape:window-x="444"
     inkscape:window-y="-10"
     inkscape:window-maximized="0" />
  <metadata
     id="metadata3000">
    <rdf:RDF>
      <cc:Work
         rdf:about="">
        <dc:format>image/svg+xml</dc:format>
        <dc:type
           rdf:resource="http://purl.org/dc/dcmitype/StillImage" />
        <dc:title></dc:title>
      </cc:Work>
    </rdf:RDF>
  </metadata>
  <g
     inkscape:label="Layer 1"
     inkscape:groupmode="layer"
     id="layer1">
    <rect
       ry="5.6555486"
       rx="436.80615"
       y="145.36218"
       x="-4"
       height="662"
       width="748"
       id="rect3226"
       style="fill:#0b1728;stroke:none" />
    <rect
       style="fill:url(#linearGradient3234);fill-opacity:1;stroke:none"
       id="rect3224"
       width="748"
       height="718"
       x="-2"
       y="151.36218"
       rx="436.80615"
       ry="6.1339631" />
    <path
       sodipodi:nodetypes="sssscs"
       inkscape:connector-curvature="0"
       id="path3024"
       d="m 201.94372,321.10538 c 2.55395,19.65484 8.69021,21.32862 4.14054,32.43332 -3.89357,9.50327 -16.97071,5.63415 -20.97399,6.10963 -8.68116,1.03108 -9.13467,-5.6489 -13.87425,-42.12412 -4.7396,-36.47523 7.76152,-66.37906 41.18428,-103.27817 -6.98051,59.45948 -15.21619,70.38411 -10.47661,106.85934 z"
       style="fill:#917c6f;stroke:none" />
    <path
       style="fill:#c8b7b7;stroke:none"
       d="m 181.64181,322.71353 c 1.09213,12.61465 4.78673,22.59541 12.84364,34.61227 5.45528,8.13651 -13.64976,2.02708 -16.60608,2.37821 -6.41085,0.76143 -2.93738,-7.18813 -7.67697,-43.66336 -4.73959,-36.47522 11.79597,-68.94088 42.21792,-101.79461 -41.76238,59.57483 -32.29436,90.95861 -30.77851,108.46749 z"
       id="path3026"
       inkscape:connector-curvature="0"
       sodipodi:nodetypes="sssscs" />
    <path
       style="fill:#dde9af;stroke:none"
       d="m 250.40244,317.24762 c -30.32229,1.20217 -73.20344,28.36413 -77.74619,40.06488 -0.84338,2.17228 -23.01681,38.93808 -9.39016,54.13278 10.05728,11.21459 -13.40586,64.01703 -8.87744,91.77168 2.17702,13.34293 19.99021,20.84085 24.37675,19.90825 10.88621,-2.31448 11.96217,-2.57854 20.2366,-11.05711 13.94175,-14.28574 44.38706,-52.86147 53.28035,-62.09817 2.05792,-2.13739 -2.8548,13.15779 -2.06936,11.67135 1.65826,6.03779 -13.35865,39.47853 -13.31689,43.61729 0.10336,10.24229 -13.70538,24.17571 -11.24604,33.54061 -3.52219,17.38649 0.78216,37.15775 11.70218,59.32326 7.67908,15.58703 8.38811,24.21831 9.27276,38.87756 0.49267,8.16388 -2.15691,44.44378 4.81057,75.74666 1.72396,7.74529 18.05537,5.25722 20.67897,12.55149 8.30341,23.08563 6.9213,61.80261 18.97099,75.39276 3.99632,4.50721 33.73211,-5.17077 39.06597,-2.07685 7.34616,4.26116 -25.08014,-33.61111 -40.59999,-76.07011 -9.11423,-24.93461 -5.79577,-47.4615 -1.48044,-76.06426 8.64811,-57.32122 -4.10613,-56.29598 7.61643,-50.47969 11.30061,5.42314 23.72135,8.39716 36.71875,8.34375 14.25758,-0.0586 19.64487,-1.72933 31.66878,-8.29219 4.64468,17.38844 15.68277,45.33796 19.15466,64.96637 0.9868,5.57888 6.4142,7.06962 6.2843,12.52741 -1.19546,50.22568 -52.94988,103.3822 -54.58901,121.04416 -0.72958,7.86141 26.16275,-1.77543 39.15149,3.89956 6.06719,2.65085 31.38953,-80.85557 46.04853,-158.58281 5.0409,-26.72863 9.01523,-51.63758 10.4375,-72.9375 14.80845,10.93014 32.45627,17.26512 51.34375,17.1875 2.95957,-0.0122 5.8951,-0.18115 8.78125,-0.5 -0.61789,18.7377 -1.4579,38.6719 -3.84375,58.9375 -8.91835,75.75323 -108.42502,136.45228 -101.00454,153.92584 1.30267,3.06749 27.73291,4.86237 36.94585,3.72803 12.98874,-1.59922 16.2473,-31.31479 47.61167,-73.93414 3.5932,-4.88261 19.29263,-4.91033 22.80976,-10.16334 14.37392,-21.46815 7.87307,-50.99721 35.07476,-72.99389 6.43858,-5.20656 5.18151,-52.01857 34.0208,-74.77234 23.48948,-18.53285 15.47881,-57.4547 10.38545,-70.38391 1.09875,-6.7311 1.66557,-13.69566 1.59375,-20.8125 -0.2304,-22.83218 -8.76363,-42.8378 -17.64006,-61.25113 -0.018,-0.0373 5.35977,0.75793 4.08617,-0.55534 -1.24616,-1.28498 2.21519,-0.9272 1.82729,-1.90719 -0.98071,-2.47771 2.9547,-1.88216 2.35678,-2.77214 -1.5571,-2.31767 0.17034,-1.77369 -0.77518,-2.47682 -2.8985,-2.15544 3.93137,-2.9756 2.80624,-3.28955 -2.297,-0.64095 -2.82506,-1.07322 -3.57301,-1.55661 -2.32127,-1.5002 5.29167,-3.36195 4.16083,-3.49968 -3.13394,-0.38169 -3.59943,-0.86842 -4.63647,-0.88634 -2.92885,-0.0506 4.64997,-3.09666 3.41845,-2.43061 -1.75372,0.94847 -2.69702,-2.31977 -4.08106,-1.35031 -0.89607,0.62766 3.48189,-5.24564 2.21709,-3.59771 -1.08785,1.41736 -2.44945,-3.26129 -3.96473,-0.62891 -0.60658,1.05377 0.85615,-7.97674 -0.53557,-5.3139 -0.6481,1.24004 -3.72294,-4.88933 -4.5332,-2.87323 -1.22218,3.04099 -0.70894,-8.20753 -1.85556,-5.09202 -1.11697,3.03495 -2.75177,-5.10451 -3.53809,-3.62003 -1.3442,2.53768 -3.83536,-6.45873 -4.64993,-4.02229 -0.59068,1.76678 1.72713,8.62502 1.18499,10.37838 -3.11294,10.06767 -8.6048,13.67558 -14.2178,7.44337 -11.57942,-12.85684 -41.26232,-21.46095 -56.12396,-21.39988 -34.74762,0.14279 -69.3649,29.47039 -71.50238,32.34422 -2.05252,2.16558 -7.69778,11.45949 -9.35819,9.71479 0,0 -6.13486,-10.02916 -16.06139,-22.40561 -9.04438,-11.27657 -21.23891,-25.42586 -35.15196,-29.72144 -1.93874,-6.51051 -21.27068,-12.31316 -28.8179,-24.22732 -7.23507,-11.4214 -36.90312,-16.05335 -64.92021,-14.94258 z"
       id="path3003"
       inkscape:connector-curvature="0"
       sodipodi:nodetypes="ssssssscscsssssssscscssssscscssssssscssssssssssssssssssssssccscss" />
    <path
       sodipodi:nodetypes="sscsss"
       inkscape:connector-curvature="0"
       id="path3144"
       d="m 253.11215,451.808 c -10.38718,9.59534 -31.74312,32.21398 -43.97386,51.99781 -6.80702,11.01069 -23.17384,-12.57101 -34.6668,-13.91327 43.50604,-60.91456 12.88809,-86.32666 43.47993,-121.22096 14.04247,-16.01742 42.49305,-8.50479 47.5111,10.79824 5.01806,19.30303 3.09405,58.07112 -12.35037,72.33818 z"
       style="fill:#93ac93;stroke:none" />
    <path
       style="fill:#917c6f;stroke:none"
       d="m 256.44808,334.30286 c -7.25295,24.03131 -1.31249,28.98067 -12.05024,39.61892 -9.18924,9.10409 -21.69411,-1.79371 -26.37373,-3.20608 -10.14783,-3.06274 -7.22354,-11.02684 6.23641,-55.62388 13.45994,-44.59705 42.65181,-73.1225 98.61378,-99.49396 -38.23677,65.48619 -52.96629,74.10794 -66.42624,118.70499 z"
       id="path3019"
       inkscape:connector-curvature="0"
       sodipodi:nodetypes="sssscs" />
    <path
       sodipodi:nodetypes="sssscs"
       inkscape:connector-curvature="0"
       id="path3022"
       d="m 233.12824,326.20948 c -5.95482,15.90031 -10.15915,40.84091 0.40374,50.3412 9.10728,8.19111 -20.09262,-8.27387 -23.54841,-9.31687 -7.49393,-2.26176 0.43278,-9.77123 13.89273,-54.36827 13.45995,-44.59705 45.64739,-70.81713 98.99802,-97.26767 -78.97773,47.13244 -81.93672,89.75938 -89.74608,110.61161 z"
       style="fill:#c8b7b7;stroke:none" />
    <path
       sodipodi:nodetypes="sssss"
       inkscape:connector-curvature="0"
       id="path3075"
       d="m 246.84157,429.47863 c 0,8.55377 -10.44274,15.48798 -23.32452,15.48798 -12.88177,0 -23.32452,-6.93421 -23.32452,-15.48798 0,-8.55378 15.2557,-26.18405 28.13747,-26.18405 12.88178,0 18.51157,17.63027 18.51157,26.18405 z"
       style="fill:#808080;stroke:none" />
    <path
       transform="matrix(0.59205378,0,0,0.62580906,184.64285,180.16581)"
       sodipodi:type="arc"
       style="fill:#000000;stroke:none"
       id="path3077"
       sodipodi:cx="65.659912"
       sodipodi:cy="402.32901"
       sodipodi:rx="39.39595"
       sodipodi:ry="24.748737"
       d="m 105.05586,402.32901 a 39.39595,24.748737 0 1 1 -78.791898,0 39.39595,24.748737 0 1 1 78.791898,0 z" />
    <path
       d="m 105.05586,402.32901 a 39.39595,24.748737 0 1 1 -78.791898,0 39.39595,24.748737 0 1 1 78.791898,0 z"
       sodipodi:ry="24.748737"
       sodipodi:rx="39.39595"
       sodipodi:cy="402.32901"
       sodipodi:cx="65.659912"
       id="path3079"
       style="fill:#c8b7b7;stroke:none"
       sodipodi:type="arc"
       transform="matrix(0.56151159,0,0,0.5759414,186.64825,200.84607)" />
    <path
       transform="matrix(0.5284242,0,0,0.50945127,188.92103,226.77421)"
       sodipodi:type="arc"
       style="fill:#e3dedb;stroke:none"
       id="path3081"
       sodipodi:cx="65.659912"
       sodipodi:cy="402.32901"
       sodipodi:rx="39.39595"
       sodipodi:ry="24.748737"
       d="m 105.05586,402.32901 a 39.39595,24.748737 0 1 1 -78.791898,0 39.39595,24.748737 0 1 1 78.791898,0 z" />
    <path
       d="m 105.05586,402.32901 a 39.39595,24.748737 0 1 1 -78.791898,0 39.39595,24.748737 0 1 1 78.791898,0 z"
       sodipodi:ry="24.748737"
       sodipodi:rx="39.39595"
       sodipodi:cy="402.32901"
       sodipodi:cx="65.659912"
       id="path3083"
       style="fill:#0000ff;stroke:none"
       sodipodi:type="arc"
       transform="matrix(0.32480952,0,0,0.46789493,201.88928,242.25937)" />
    <path
       transform="matrix(0.28917695,0,0,0.40556043,204.02837,266.82411)"
       sodipodi:type="arc"
       style="fill:#00ffff;stroke:none"
       id="path3085"
       sodipodi:cx="65.659912"
       sodipodi:cy="402.32901"
       sodipodi:rx="39.39595"
       sodipodi:ry="24.748737"
       d="m 105.05586,402.32901 a 39.39595,24.748737 0 1 1 -78.791898,0 39.39595,24.748737 0 1 1 78.791898,0 z" />
    <path
       inkscape:connector-curvature="0"
       style="fill:#000000;stroke:none"
       d="m 227.96153,422.09242 c -1.05246,0 -1.98541,1.22821 -2.57071,3.11933 -0.6132,-0.0749 -1.27248,-0.1204 -1.95863,-0.1204 -0.91181,0 -1.76924,0.0794 -2.5419,0.20796 -0.586,-1.86976 -1.51082,-3.08649 -2.5563,-3.08649 -1.77258,0 -3.21159,3.47686 -3.21159,7.76001 0,4.28313 1.43901,7.76 3.21159,7.76 1.19556,0 2.23445,-1.58667 2.78673,-3.92926 0.71178,0.1055 1.49014,0.17512 2.31147,0.17512 0.62404,0 1.22798,-0.0361 1.79302,-0.0985 0.56382,2.22868 1.57616,3.7213 2.73632,3.7213 1.77257,0 3.21158,-3.46592 3.21158,-7.74907 0,-4.28313 -1.43901,-7.76 -3.21158,-7.76 z"
       id="path3087" />
    <path
       style="fill:#ffffff;stroke:none"
       d="m 232.21487,439.73636 c -1.67832,-1.15355 -5.41482,-4.08903 -6.16314,-6.99331 6.1827,2.79113 6.13975,1.26884 9.86346,3.36139 1.70928,0.96052 2.03233,3.56061 0.67679,4.31342 -1.35554,0.75281 -2.76035,0.42973 -4.37711,-0.6815 z"
       id="path3089"
       inkscape:connector-curvature="0"
       sodipodi:nodetypes="scsss" />
    <path
       sodipodi:nodetypes="scsss"
       inkscape:connector-curvature="0"
       id="path3091"
       d="m 222.33928,432.21352 c -0.79117,-0.62517 -2.5526,-2.21606 -2.90536,-3.79003 2.91458,1.51265 2.89433,0.68765 4.64973,1.8217 0.80577,0.52056 0.95806,1.92968 0.31904,2.33767 -0.63902,0.40798 -1.30126,0.23289 -2.06341,-0.36934 z"
       style="fill:#ffffff;stroke:none" />
    <path
       sodipodi:nodetypes="ssssssssssssssssssssss"
       inkscape:connector-curvature="0"
       id="path3098"
       d="m 348.2271,449.67701 c 0,21.29253 9.87614,55.45695 5.48134,46.44011 -7.68958,-15.77682 0.0897,13.39495 -1.21233,10.73866 -5.09428,-10.39253 2.29967,16.07165 0.0184,11.85446 -8.68471,-16.05455 -10.59484,-7.48047 -13.78168,-7.48047 -27.47619,0 -88.27674,-106.9787 -86.5879,-150.48518 0.0908,-2.33929 -1.89938,-6.86726 4.89865,-14.84529 2.10173,-2.46655 16.28141,-20.12575 14.43695,-16.61039 -3.64991,6.9564 23.50812,-8.74329 21.65789,-5.07053 -4.21991,8.37666 26.57959,-7.37836 23.04638,-0.48285 -3.82511,7.46518 16.09812,1.85573 12.42232,3.89751 -7.38382,4.10144 13.45248,5.64604 9.9077,6.5888 -14.81199,3.93935 0.65146,5.65336 -2.43646,5.79501 -10.88111,0.49912 11.69659,5.5936 5.51427,5.27863 -8.11088,-0.41322 -10.31112,-0.70886 -8.0659,1.21497 1.36576,1.17026 17.88569,12.10935 16.1989,11.62665 -10.30779,-2.94967 2.73489,16.04719 -0.79958,13.25426 -11.51102,-9.096 -5.02703,-2.15204 -5.29024,3.87638 -0.11374,2.60508 14.15379,24.02626 10.73509,21.61632 -7.63818,-5.38437 2.39705,35.13339 -1.64789,24.62081 -6.27084,-16.29755 3.97277,28.04534 0.55076,20.82696 -9.32546,-19.67109 -5.04665,3.70598 -5.04665,7.34518 z"
       style="fill:#9dac93;stroke:none" />
    <path
       style="fill:#f4eed7;stroke:none"
       d="m 318.19219,470.67494 c 4.60239,11.31487 30.08404,30.22916 21.58791,25.39815 -13.7797,-7.83533 6.56115,5.52778 -2.46425,2.6699 -4.16628,-1.31924 9.45263,7.80243 4.13773,6.37185 -9.67946,-2.60537 9.32696,14.20646 6.88447,14.86493 -2.02044,0.54469 -23.01578,-13.1799 -17.84151,-3.36091 3.9807,7.55401 -15.98752,-20.5708 -13.32028,-14.84189 4.47219,9.60573 -10.99839,-18.27035 -9.35725,-11.69505 4.24497,17.00765 -15.72922,-27.46205 -12.44096,-10.88279 1.69474,8.5448 -7.4388,-16.18289 -12.00923,-24.40301 -18.46411,-33.20846 -31.85069,-72.62152 -31.23276,-94.05153 0.28211,-9.7836 27.25639,-33.12307 44.20361,-20.79207 4.36542,3.17633 18.71885,24.58665 11.23392,19.21671 -5.21482,-3.74129 5.63034,23.07731 5.30918,32.97921 -0.25891,7.98262 4.65298,26.14218 -0.56515,21.96088 -4.12033,-3.30163 20.54668,41.80056 12.85106,28.51518 -0.98668,-1.70338 -7.76827,-4.30816 -9.18704,-0.0184 -1.0988,3.32235 8.4449,15.00526 3.24909,14.2071 -8.36693,-1.28528 -1.82356,11.93178 -1.03854,13.86173 z"
       id="path3100"
       inkscape:connector-curvature="0"
       sodipodi:nodetypes="cssssssssssssssssssc" />
    <path
       sodipodi:nodetypes="scsss"
       inkscape:connector-curvature="0"
       id="path3108"
       d="m 189.69469,554.40425 c 0.48742,15.96713 -5.92465,45.39879 -8.01326,70.81508 -3.20273,-47.65556 6.08374,-36.89 4.55183,-68.74233 -0.70318,-14.62105 -9.21684,-34.82909 -7.19786,-34.82909 2.01898,0 10.18974,17.37485 10.65929,32.75634 z"
       style="fill:#000000;stroke:none" />
    <path
       style="fill:#cdde87;stroke:none"
       d="m 165.18146,555.11853 c -0.48743,15.96713 5.92464,45.39879 8.01325,70.81508 3.20273,-47.65556 -6.08374,-36.89 -4.55183,-68.74233 0.70318,-14.62105 9.21684,-34.82909 7.19786,-34.82909 -2.01898,0 -10.18974,17.37485 -10.65928,32.75634 z"
       id="path3110"
       inkscape:connector-curvature="0"
       sodipodi:nodetypes="scsss" />
    <path
       sodipodi:nodetypes="scsss"
       inkscape:connector-curvature="0"
       id="path3112"
       d="m 176.82297,554.27988 c -0.99667,15.94345 -10.11276,44.65293 -14.55137,69.76565 1.23425,-47.74711 9.48143,-36.1661 10.91251,-68.02311 0.65691,-14.62321 -5.94439,-35.53421 -3.93413,-35.34682 2.01027,0.18739 8.53311,18.24561 7.57299,33.60428 z"
       style="fill:#445016;stroke:none" />
    <path
       style="fill:#eeffaa;stroke:none"
       d="m 180.88634,541.66211 c -0.31326,10.6264 3.80764,30.21367 5.14994,47.12865 2.05833,-31.71559 -3.90988,-24.55093 -2.92536,-45.7492 0.45192,-9.73056 5.92346,-23.17936 4.62591,-23.17936 -1.29755,0 -6.54872,11.56326 -6.85049,21.79991 z"
       id="path3114"
       inkscape:connector-curvature="0"
       sodipodi:nodetypes="scsss" />
    <path
       sodipodi:nodetypes="scsss"
       inkscape:connector-curvature="0"
       id="path3116"
       d="m 158.38634,540.59068 c -0.31326,10.6264 3.80764,30.21367 5.14994,47.12865 2.05833,-31.71559 -3.90988,-24.55093 -2.92536,-45.7492 0.45192,-9.73056 5.92346,-23.17936 4.62591,-23.17936 -1.29755,0 -6.54872,11.56326 -6.85049,21.79991 z"
       style="fill:#eeffaa;stroke:none" />
    <path
       style="fill:#d3bc5f;stroke:none"
       d="m 168.27553,537.01925 c 0.31326,10.6264 -3.80764,30.21367 -5.14994,47.12865 -2.05833,-31.71559 3.90988,-24.55093 2.92536,-45.7492 -0.45192,-9.73056 -5.92346,-23.17936 -4.62591,-23.17936 1.29755,0 6.54872,11.56326 6.85049,21.79991 z"
       id="path3118"
       inkscape:connector-curvature="0"
       sodipodi:nodetypes="scsss" />
    <path
       sodipodi:nodetypes="scsss"
       inkscape:connector-curvature="0"
       id="path3120"
       d="m 181.48982,550.90271 c 0.31326,14.2603 -3.80764,40.54581 -5.14994,63.24519 -2.05833,-42.56134 3.90988,-32.94659 2.92536,-61.39401 -0.45192,-13.05811 -5.92346,-31.10598 -4.62591,-31.10598 1.29755,0 6.54872,15.51754 6.85049,29.2548 z"
       style="fill:#d3bc5f;stroke:none" />
    <path
       style="fill:#d3bc5f;stroke:none"
       d="m 167.31491,556.56864 c -0.31326,16.84807 3.80764,47.90354 5.14994,74.72211 2.05833,-50.28482 -3.90988,-38.92531 -2.92536,-72.535 0.45192,-15.42773 5.92346,-36.7507 4.62591,-36.7507 -1.29755,0 -6.54872,18.33346 -6.85049,34.56359 z"
       id="path3122"
       inkscape:connector-curvature="0"
       sodipodi:nodetypes="scsss" />
    <path
       style="fill:#000000;stroke:none"
       d="m 195.76102,535.69661 c 0.58181,8.34411 -7.072,23.72453 -9.56508,37.00659 -3.82296,-24.90387 7.26189,-19.278 5.43332,-35.92341 -0.83935,-7.64067 -11.00174,-18.201 -8.59177,-18.201 2.40997,0 12.16305,9.07975 12.72353,17.11782 z"
       id="path3124"
       inkscape:connector-curvature="0"
       sodipodi:nodetypes="scsss" />
    <path
       sodipodi:nodetypes="scsss"
       inkscape:connector-curvature="0"
       id="path3126"
       d="m 166.50065,536.06988 c -0.58182,8.34411 7.07199,23.72453 9.56507,37.00659 3.82296,-24.90387 -7.26189,-19.278 -5.43332,-35.92341 0.83935,-7.64068 11.00173,-18.20101 8.59177,-18.20101 -2.40997,0 -12.16305,9.07976 -12.72352,17.11783 z"
       style="fill:#cdde87;stroke:none" />
    <path
       sodipodi:nodetypes="scsss"
       inkscape:connector-curvature="0"
       id="path3160"
       d="m 136.42352,514.49259 c -8.24032,13.14554 -5.89865,52.53394 -8.23591,76.84749 7.9997,-19.83178 0.7966,-54.97886 11.68438,-76.5991 6.27137,-12.45329 30.97814,-25.82845 28.80468,-26.54061 -2.17347,-0.71216 -24.31509,13.62885 -32.25315,26.29222 z"
       style="fill:#7c916f;stroke:none" />
    <path
       style="fill:#445016;stroke:none"
       d="m 180.39661,535.63162 c -1.18968,8.33174 -12.07115,23.33475 -17.36933,36.45817 1.47327,-24.95171 11.31757,-18.8997 13.02578,-35.54755 0.78413,-7.64181 -7.09555,-18.56949 -4.69599,-18.47156 2.39957,0.0979 10.18559,9.5348 9.03954,17.56094 z"
       id="path3128"
       inkscape:connector-curvature="0"
       sodipodi:nodetypes="scsss" />
    <path
       sodipodi:nodetypes="scsss"
       inkscape:connector-curvature="0"
       id="path3130"
       d="m 185.24688,529.03782 c -0.37393,5.55315 4.54501,15.78908 6.14725,24.62852 2.45694,-16.57396 -4.66705,-12.82984 -3.49187,-23.90765 0.53944,-5.085 7.07057,-12.11308 5.52175,-12.11308 -1.54883,0 -7.81692,6.04273 -8.17713,11.39221 z"
       style="fill:#eeffaa;stroke:none" />
    <path
       style="fill:#eeffaa;stroke:none"
       d="m 158.38962,528.47791 c -0.37393,5.55315 4.54501,15.78908 6.14726,24.62852 2.45693,-16.57395 -4.66706,-12.82984 -3.49188,-23.90765 0.53944,-5.085 7.07058,-12.11308 5.52175,-12.11308 -1.54883,0 -7.81692,6.04274 -8.17713,11.39221 z"
       id="path3132"
       inkscape:connector-curvature="0"
       sodipodi:nodetypes="scsss" />
    <path
       sodipodi:nodetypes="scsss"
       inkscape:connector-curvature="0"
       id="path3134"
       d="m 170.19391,526.61155 c 0.37392,5.55315 -4.54501,15.78908 -6.14726,24.62852 -2.45694,-16.57395 4.66705,-12.82984 3.49188,-23.90765 -0.53944,-5.085 -7.07058,-12.11308 -5.52175,-12.11308 1.54883,0 7.81692,6.04274 8.17713,11.39221 z"
       style="fill:#d3bc5f;stroke:none" />
    <path
       style="fill:#d3bc5f;stroke:none"
       d="m 185.96723,533.86678 c 0.37392,7.45215 -4.54502,21.18845 -6.14726,33.0507 -2.45694,-22.24173 4.66705,-17.21724 3.49187,-32.08331 -0.53943,-6.82392 -7.07057,-16.25538 -5.52174,-16.25538 1.54883,0 7.81692,8.10916 8.17713,15.28799 z"
       id="path3136"
       inkscape:connector-curvature="0"
       sodipodi:nodetypes="scsss" />
    <path
       sodipodi:nodetypes="scsss"
       inkscape:connector-curvature="0"
       id="path3138"
       d="m 169.04726,534.05341 c -0.37393,7.45216 4.54501,21.18845 6.14726,33.05071 2.45693,-22.24173 -4.66706,-17.21725 -3.49188,-32.08332 0.53944,-6.82391 7.07058,-16.25538 5.52175,-16.25538 -1.54883,0 -7.81692,8.10917 -8.17713,15.28799 z"
       style="fill:#d3bc5f;stroke:none" />
    <path
       style="fill:#000000;stroke:none"
       d="m 170.52491,562.32923 c -0.23409,19.65609 2.84536,55.88748 3.84844,87.17581 1.53814,-58.66564 -2.92177,-45.41286 -2.18606,-84.62418 0.33771,-17.99902 4.42647,-42.87581 3.45684,-42.87581 -0.96964,0 -4.89372,21.38904 -5.11922,40.32418 z"
       id="path3140"
       inkscape:connector-curvature="0"
       sodipodi:nodetypes="scsss" />
    <path
       sodipodi:nodetypes="scsss"
       inkscape:connector-curvature="0"
       id="path3164"
       d="m 130.13965,509.57507 c -9.05045,12.60148 -3.83252,45.98775 -4.12228,68.32056 9.94495,-21.78963 -2.60625,-41.27057 5.40546,-63.57016 5.72288,-15.92895 39.32635,-24.18697 37.20196,-25.03436 -2.1244,-0.84739 -29.76667,8.14469 -38.48514,20.28396 z"
       style="fill:#aa8800;stroke:none" />
    <path
       style="fill:#1a1a1a;stroke:none"
       d="m 137.13942,517.3683 c -6.44301,14.11367 1.04999,52.85363 1.92527,77.26358 5.32658,-20.71044 -6.42889,-54.6075 1.52596,-77.47012 4.58199,-13.16889 27.31875,-29.6722 25.0706,-30.09283 -2.24816,-0.42062 -22.31516,16.70338 -28.52183,30.29937 z"
       id="path3162"
       inkscape:connector-curvature="0"
       sodipodi:nodetypes="scsss" />
    <path
       sodipodi:nodetypes="scsss"
       inkscape:connector-curvature="0"
       id="path3102"
       d="m 161.58465,520.41617 c -5.62833,-6.86066 -16.36022,-24.24453 -7.16608,-41.03099 13.59004,3.68271 59.89572,16.91841 56.24424,22.83037 -2.67639,4.33323 -10.2089,18.59321 -23.00388,22.72756 -12.79498,4.13435 -20.65237,2.08209 -26.07428,-4.52694 z"
       style="fill:#c8c4b7;stroke:none" />
    <path
       sodipodi:nodetypes="scsss"
       inkscape:connector-curvature="0"
       id="path3106"
       d="m 173.70862,496.10443 c -0.38751,2.12702 -1.96371,6.96331 -6.77888,8.56777 -1.40532,-7.43528 -4.31487,-6.97104 -4.36195,-11.56213 -0.0216,-2.10743 4.67225,-3.16969 7.63136,-1.91417 2.95912,1.25551 3.88277,2.85952 3.50947,4.90853 z"
       style="fill:#6c6753;stroke:none" />
    <path
       style="fill:#241f1c;stroke:none"
       d="m 170.87897,496.26348 c -0.25182,1.9102 -1.2761,6.25352 -4.4052,7.69444 -0.91323,-6.67739 -2.80398,-6.26047 -2.83458,-10.38358 -0.014,-1.89262 3.03623,-2.8466 4.95918,-1.71906 1.92296,1.12753 2.52318,2.56804 2.2806,4.4082 z"
       id="path3142"
       inkscape:connector-curvature="0"
       sodipodi:nodetypes="scsss" />
    <path
       style="fill:#7c916f;stroke:none"
       d="m 156.9044,539.41055 c -0.37393,7.45216 4.54501,21.18845 6.14726,33.05071 2.45693,-22.24173 -4.66706,-17.21725 -3.49188,-32.08332 0.53944,-6.82391 7.07058,-16.25538 5.52175,-16.25538 -1.54883,0 -7.81692,8.10917 -8.17713,15.28799 z"
       id="path3146"
       inkscape:connector-curvature="0"
       sodipodi:nodetypes="scsss" />
    <path
       sodipodi:nodetypes="scsss"
       inkscape:connector-curvature="0"
       id="path3148"
       d="m 185.29825,554.12774 c 0.37393,13.23337 -4.54501,37.62594 -6.14726,58.69066 -2.45693,-39.49633 4.66706,-30.57398 3.49188,-56.97279 -0.53944,-12.11773 -7.07058,-28.86591 -5.52175,-28.86591 1.54883,0 7.81692,14.40007 8.17713,27.14804 z"
       style="fill:#7c916f;stroke:none" />
    <path
       style="fill:#7c916f;stroke:none"
       d="m 187.86728,543.39716 c 2.29396,8.87366 11.44075,23.76071 17.01944,37.30993 -5.67058,-26.83573 -10.15059,-19.05224 -14.3503,-36.8665 -1.92776,-8.17721 0.48181,-20.99504 -0.87652,-20.58922 -1.35834,0.40583 -4.00244,11.59759 -1.79262,20.14579 z"
       id="path3150"
       inkscape:connector-curvature="0"
       sodipodi:nodetypes="scsss" />
    <path
       sodipodi:nodetypes="scsss"
       inkscape:connector-curvature="0"
       id="path3154"
       d="m 192.15649,500.93106 c 5.24816,7.51404 10.60672,24.14455 17.26985,37.19468 -16.69546,-21.76175 -7.86943,-20.1021 -18.66909,-34.87886 -4.95734,-6.7829 -16.26067,-13.28964 -15.06893,-14.05745 1.19175,-0.76779 11.4125,4.50317 16.46817,11.74163 z"
       style="fill:#7c916f;stroke:none" />
    <path
       sodipodi:nodetypes="scsss"
       inkscape:connector-curvature="0"
       id="path3156"
       d="m 205.78925,521.01092 c 9.99445,16.93553 12.55138,70.22426 17.96244,102.76214 -10.58746,-25.96661 -7.68787,-73.99852 -21.42542,-102.10292 -7.91285,-16.18818 -34.62019,-31.88328 -32.50713,-33.04734 2.11308,-1.16406 26.34224,16.07376 35.97011,32.38812 z"
       style="fill:#000000;stroke:none" />
    <path
       style="fill:#c8ab37;stroke:none"
       d="m 204.35949,523.78562 c 8.3852,17.78734 6.00236,71.08414 8.38072,103.98303 -8.14036,-26.83456 -0.81061,-74.39239 -11.88983,-103.64694 -6.38164,-16.85066 -31.52282,-34.94871 -29.31115,-35.91234 2.21169,-0.96363 24.74262,18.44132 32.82026,35.57625 z"
       id="path3158"
       inkscape:connector-curvature="0"
       sodipodi:nodetypes="scsss" />
    <path
       style="fill:#93ac93;stroke:none"
       d="m 449.08174,493.22425 c -10.38718,9.59534 -18.06344,70.43309 -18.06344,70.43309 -4.16155,0.13457 0.49094,-30.53895 -11.63099,-33.58953 -2.29772,-0.57824 -5.83606,-8.03347 -13.12273,-4.71486 -5.14691,2.3441 -11.48342,0.43378 -16.91726,4.56907 -9.44834,7.19043 -24.13168,26.51761 -24.21424,24.51153 -0.28192,-6.84987 12.61923,-21.11978 17.41855,-26.03945 5.64823,-5.78987 16.28762,-6.98233 21.3255,-11.68202 3.55099,-3.31262 17.09151,-6.43336 18.3575,-12.54572 4.23222,-20.43349 -20.30431,-61.96867 -23.97098,-96.60391 -0.99244,-9.37456 21.39404,-17.68367 29.1518,-24.69534 6.9435,-6.27572 20.47002,-7.58621 34.79117,10.70862 5.24043,6.6945 -20.21211,17.43251 -0.77451,27.31034 6.8389,3.4754 1.80357,16.90901 7.91152,23.92448 11.65903,13.39135 -10.75787,39.63419 -20.26189,48.4137 z"
       id="path3166"
       inkscape:connector-curvature="0"
       sodipodi:nodetypes="sssssssssssssss" />
    <path
       sodipodi:nodetypes="csscssssccc"
       inkscape:connector-curvature="0"
       id="path3168"
       d="m 577.67416,515.54862 c 2.79849,10.98839 1.37117,25.99745 -3.18592,37.50831 -5.91936,14.95187 -18.97592,22.85204 -22.08346,20.49199 -11.48339,-8.72117 -14.85174,-30.18265 -28.26465,-32.26842 -6.74277,-1.69687 -40.04085,21.57395 -37.28367,17.64822 9.3917,-13.37207 27.72169,-39.66699 44.75445,-58.22756 13.86957,-15.11364 21.07034,-14.65634 16.30684,-59.65216 -0.99244,-9.37456 5.83769,-24.04763 -9.73908,-45.55499 -5.4899,-7.58009 2.13575,-6.57605 16.4569,11.71878 0.94144,3.09522 15.72331,41.63837 15.72331,41.63837 11.65903,13.39135 7.21253,63.40985 7.31528,66.69746 z"
       style="fill:#93ac93;stroke:none" />
    <path
       style="fill:#9dac93;stroke:none"
       d="m 285.87824,666.79968 c 0,0 -1.26182,35.14659 -5.23587,17.20255 -5.54953,-25.05781 -37.5177,-110.43495 -34.72839,-109.14019 16.15047,8.88868 42.94703,12.99185 45.10287,18.94676 3.68142,24.26144 -3.45243,51.8274 -5.13861,72.99088 z"
       id="path3170"
       inkscape:connector-curvature="0"
       sodipodi:nodetypes="csccc" />
    <path
       sodipodi:nodetypes="ccsccc"
       inkscape:connector-curvature="0"
       id="path3172"
       d="m 300.00655,753.61461 c -11.79288,-21.06802 -10.50048,-23.58854 -26.6662,-33.19714 -6.4274,-2.5827 -11.96912,-3.35191 -17.68698,-4.03336 -4.24206,-0.50557 -7.84058,-7.90324 -4.66604,-7.17824 18.381,4.97715 32.52737,-1.18217 34.98095,2.15224 4.18986,13.58502 15.95733,30.40617 14.03827,42.2565 z"
       style="fill:#9dac93;stroke:none" />
    <path
       style="fill:#9dac93;stroke:none"
       d="m 307.73387,777.04263 c -2.07061,27.39743 17.8057,12.81694 17.8057,12.81694 4.2381,0.53771 6.77027,8.9726 3.60132,8.22355 -21.3732,-0.0656 -36.07093,4.97617 -38.49916,1.62326 0,0 -4.86136,-4.81076 -4.3625,-8.31799 0.57167,-4.01914 14.36251,4.8277 21.45464,-14.34576 z"
       id="path3174"
       inkscape:connector-curvature="0"
       sodipodi:nodetypes="ccccsc" />
    <path
       sodipodi:nodetypes="ccccc"
       inkscape:connector-curvature="0"
       id="path3176"
       d="m 351.17043,778.55786 c -11.66706,29.92281 23.86662,9.78648 23.86662,9.78648 4.2381,0.53771 4.24489,9.47768 1.07594,8.72863 -21.3732,-0.0656 -39.10139,1.94571 -41.52962,-1.4072 2.47924,-3.51489 7.00207,-3.25217 16.58706,-17.10791 z"
       style="fill:#9dac93;stroke:none" />
    <path
       sodipodi:nodetypes="ccccsc"
       inkscape:connector-curvature="0"
       id="path3178"
       d="m 406.72882,777.5477 c -11.66706,29.92281 27.90723,8.77633 27.90723,8.77633 4.2381,0.53771 -4.34141,13.51829 -7.51036,12.76924 -21.3732,-0.0656 -37.58615,1.44063 -40.01438,-1.91228 0,0 0.18939,-6.32598 1.6984,-8.82306 2.09964,-3.47445 12.34221,-2.74845 17.91911,-10.81023 z"
       style="fill:#9dac93;stroke:none" />
    <path
       style="fill:#9dac93;stroke:none"
       d="m 380.80094,712.60241 c 11.79288,-21.06802 10.50048,-31.01316 17.47381,-36.02556 6.4274,-2.5827 8.86275,1.07277 14.15145,-1.20494 0,0 1.12306,-6.84257 1.1305,-6.82468 -18.381,4.97715 -26.16341,-7.54613 -28.61699,-4.21172 -0.40586,0.91463 5.25034,7.00744 4.25259,14.31118 -1.47999,10.83371 -9.53764,26.87738 -8.39136,33.95572 z"
       id="path3180"
       inkscape:connector-curvature="0"
       sodipodi:nodetypes="ccsccsc" />
    <path
       style="fill:#00ff00;stroke:none"
       d="m 576.44504,774.90625 c 0.18914,3.07263 0.36584,5.55634 0.53234,8.03125 2.05463,10.73014 4.57127,16.55957 7.18658,19.6875 3.33816,-3.3782 6.60688,-9.58148 9.8187,-10.3125 -0.0402,-3.00874 -0.1694,-6.59356 -0.41404,-11.0625 1.75816,10.47234 4.25297,16.81777 6.80211,20.65625 3.43526,-3.63625 6.82359,-8.18486 10.14402,-8.15625 2.8608,0.0246 -4.41714,8.56189 -2.80957,11.5 1.16472,0.0268 2.39707,0.0347 3.51935,0.0625 1.03494,-0.10171 1.91016,-0.16366 2.51382,-0.15625 1.61423,0.0198 -3.96712,-35.81245 -2.39552,-25.8125 0.21005,1.33654 3.06171,7.55234 6.21062,13.5625 -0.0553,-3.10624 -0.27664,-6.91868 -0.73936,-11.65625 3.44767,11.51041 8.47731,18.03218 13.48593,21.71875 0.64339,-3.00869 0.83315,-9.02476 0.20702,-20.90625 -0.44313,-2.63592 -0.67432,-4.03861 -0.14787,-1.21875 0.0177,0.0951 0.0696,0.2638 0.11829,0.40625 1.16608,3.41085 10.8958,19.83433 15.28997,24.375 9.56719,0.17143 18.2284,0.3718 24.93121,0.5625 3.12349,0.0889 4.3235,-1.20055 6.77254,-16.53125 2.08972,13.24897 6.22784,16.99649 7.98509,17.09375 0.32334,0.0179 0.55983,0.0447 0.85765,0.0625 2.79915,-1.58976 4.25987,-6.97374 2.27723,-24.0625 4.26824,11.99598 10.57429,18.59479 16.76869,22.1875 1.13152,-2.28654 2.17965,-6.40974 3.5785,-13.78125 2.48238,13.24897 7.37637,16.99649 9.46381,17.09375 4.65894,0.21706 7.09785,0.42581 7.09785,0.65625 l 0,32.625 c 0,1.84923 -157.438,3.34375 -353,3.34375 -24.44525,0 -48.28303,-0.018 -71.30387,-0.0625 C 140.05025,844.50116 19.5,843.14933 19.5,841.53125 l 0,-32.625 c 0,-0.23044 2.43891,-0.43919 7.09786,-0.65625 2.08743,-0.0973 6.98142,-3.84478 9.4638,-17.09375 1.39885,7.37151 2.44698,11.49471 3.5785,13.78125 6.19441,-3.59271 12.50045,-10.19152 16.76869,-22.1875 -1.98264,17.08876 -0.52192,22.47274 2.27723,24.0625 0.29781,-0.0178 0.53431,-0.0446 0.85765,-0.0625 1.75725,-0.0973 5.89537,-3.84478 7.98509,-17.09375 2.44904,15.3307 3.64905,16.62015 6.77254,16.53125 6.70281,-0.1907 15.36402,-0.39107 24.93121,-0.5625 4.39417,-4.54067 14.12389,-20.96415 15.28997,-24.375 0.0487,-0.14245 0.10055,-0.31119 0.11829,-0.40625 0.52645,-2.81986 0.29526,-1.41717 -0.14787,1.21875 -0.62613,11.88149 -0.43637,17.89756 0.20702,20.90625 5.00862,-3.68657 10.03826,-10.20834 13.48593,-21.71875 -0.46272,4.73757 -0.6841,8.55001 -0.73936,11.65625 3.14891,-6.01016 6.00057,-12.22596 6.21062,-13.5625 1.5716,-9.99995 -4.00975,25.8323 -2.39552,25.8125 0.60366,-0.007 1.47888,0.0545 2.51382,0.15625 1.12228,-0.0278 2.35463,-0.0357 3.51935,-0.0625 1.60757,-2.93811 -5.67037,-11.47537 -2.80957,-11.5 3.32043,-0.0286 6.70876,4.52 10.14402,8.15625 2.54914,-3.83848 5.04395,-10.18391 6.80211,-20.65625 -0.24464,4.46894 -0.37391,8.05376 -0.41404,11.0625 3.21182,0.73102 6.48054,6.9343 9.8187,10.3125 2.61531,-3.12793 5.13195,-8.95736 7.18658,-19.6875 0.1665,-2.47491 0.3432,-4.95862 0.53234,-8.03125 0.12344,1.39497 0.14921,2.79406 0.14787,4.1875 0.10718,-0.65477 0.22139,-1.25074 0.32532,-1.9375 0.18385,2.81538 0.42976,5.3606 0.73936,7.65625 0.36416,-2.53479 0.73697,-5.21421 1.1534,-8.40625 0.83407,4.44768 0.0104,8.93692 -0.35489,13.09375 0.84339,4.19408 1.91543,7.37225 3.13488,9.71875 2.15464,-4.09708 4.16222,-11.19825 5.73744,-23.5625 1.4942,27.17992 8.28203,28.9719 13.1606,28.9375 3.03007,-0.0213 6.36087,-0.0424 9.46381,-0.0625 1.21096,-0.95451 1.93669,-5.83617 3.40106,-29.625 1.07604,12.16071 -3.72683,24.75595 6.15147,29.5625 0.12894,-7.7e-4 0.25587,7.8e-4 0.38447,0 0.41478,-2.03588 0.68788,-4.98798 0.76893,-9.375 1.65176,4.53771 2.63877,7.23082 3.43063,9.34375 0.847,-0.006 1.72441,-0.0251 2.57298,-0.0312 2.01157,-1.25318 3.29263,-6.7001 5.79658,-29.5 1.48916,9.43307 -3.32177,19.10159 2.66169,25.21875 1.60728,-5.13514 3.37161,-12.51213 4.93893,-16.90625 0.82433,-3.0302 1.60425,-5.1845 2.24765,-5.1875 0.997,-0.005 1.48332,1.74547 1.71532,4.3125 0.94459,4.96043 0.0195,15.22911 1.06467,20.15625 0.27355,0.73798 0.64255,1.1869 1.12383,1.25 2.7776,0.36425 6.54809,0.37635 10.64678,0.34375 0.37545,-2.02645 0.63361,-4.87567 0.70979,-9 1.58482,4.35383 2.48846,6.84128 3.28276,8.96875 2.57744,-0.0214 5.206,-0.009 7.74849,0.0625 1.01674,-0.0294 1.99612,-0.0622 2.92787,-0.0625 0.51362,-1.8825 0.85198,-4.30295 0.97595,-7.46875 2.54266,3.29598 4.37439,5.62217 5.91488,7.59375 3.01379,0.0995 6.07586,0.23721 9.13849,0.40625 4.40947,-22.60192 3.7836,-9.44574 4.02212,-2.46875 0.74843,-2.64532 1.46451,-6.62114 1.98148,-12.46875 0.81075,9.05454 1.38145,13.16935 2.07021,15.03125 0.22286,-0.0162 0.45894,-0.0465 0.68021,-0.0625 4.99301,-21.08372 4.08153,-6.94139 4.43616,-0.3125 2.78262,-0.157 5.40762,-0.25 7.71892,-0.25 0.2146,0 0.43546,-8.1e-4 0.65063,0 0.28561,-5.38109 -0.35805,-22.16765 1.80404,-3.78125 0.20876,-1.4805 0.34705,-3.15505 0.41404,-5.1875 2.8118,4.32972 4.62604,7.04783 6.03318,9.15625 0.7156,0.0285 1.44039,0.0607 2.15893,0.0937 1.23884,-0.18006 2.55541,-0.2543 3.90382,-0.28125 2.17536,-4.82967 7.00826,-22.35868 7.21615,-24.71875 0.63479,-7.20616 -0.80953,9.22365 -1.33084,19.03125 0.4342,-2.3015 0.83763,-5.14696 1.1534,-8.71875 0.72741,8.12393 1.26436,12.25888 1.86319,14.375 0.81595,-0.05 1.56634,-0.12877 2.21807,-0.28125 2.15813,-0.50492 0.0581,-25.73713 2.18851,-25.71875 1.19336,0.0103 3.18905,23.16116 4.46573,26.0625 1.208,-2.51179 -2.59386,-11.81805 -1.18297,-11.84375 1.96802,-0.0359 3.98152,7.15239 6.03318,10.65625 0.18694,-6.60058 -0.32851,-21.62548 2.1885,1.25 0.75594,-0.0123 1.49433,-0.021 2.24765,-0.0312 2.06174,-1.62589 4.32389,-7.43141 5.82616,-28.46875 0.55866,18.13023 2.41079,24.94351 4.40659,27.46875 2.08609,-5.23914 5.77392,-18.46325 6.62466,-22.65625 0.0755,-1.52216 0.15403,-3.0929 0.20702,-4.8125 0.0485,0.67904 0.0978,1.28979 0.14787,1.9375 1.18048,15.2842 2.77667,21.99386 4.37701,24.90625 1.07294,-5.16761 -0.2967,-24.48485 1.56745,-24.46875 1.09645,0.009 2.86933,19.51294 4.14041,24.9375 0.16909,-0.28519 0.36386,-0.576 0.53234,-0.90625 -6.9e-4,-0.01 7.2e-4,-0.0213 0,-0.0312 -0.26327,-3.65538 -2.53323,-9.76043 -1.38999,-9.78125 1.14136,-0.0208 2.2916,2.40772 3.4602,5.125 1.1686,-2.71728 2.31884,-5.14585 3.4602,-5.125 1.14324,0.0208 -1.12672,6.12587 -1.38999,9.78125 -7.2e-4,0.01 6.9e-4,0.0213 0,0.0312 0.16848,0.33025 0.36325,0.62106 0.53234,0.90625 1.27108,-5.42456 3.04396,-24.92803 4.14041,-24.9375 1.86415,-0.0161 0.49451,19.30114 1.56745,24.46875 1.60034,-2.91239 3.19653,-9.62205 4.37701,-24.90625 0.05,-0.64771 0.0994,-1.25846 0.14787,-1.9375 0.053,1.7196 0.1315,3.29034 0.20702,4.8125 0.85074,4.193 4.53857,17.41711 6.62466,22.65625 1.9958,-2.52524 3.84793,-9.33852 4.40659,-27.46875 1.50227,21.03734 3.76442,26.84286 5.82616,28.46875 0.75332,0.0103 1.49171,0.019 2.24765,0.0312 2.51701,-22.87548 2.00156,-7.85058 2.1885,-1.25 2.05166,-3.50386 4.06516,-10.6922 6.03318,-10.65625 1.41089,0.0257 -2.39097,9.33196 -1.18297,11.84375 1.27668,-2.90134 3.27237,-26.0522 4.46573,-26.0625 2.13049,-0.0184 0.0304,25.21383 2.1885,25.71875 0.65174,0.15257 1.40213,0.23128 2.21808,0.28125 0.59883,-2.11612 1.13578,-6.25107 1.86319,-14.375 0.31577,3.57179 0.7192,6.41725 1.1534,8.71875 -0.52131,-9.8076 -1.96563,-26.23741 -1.33084,-19.03125 0.20789,2.36007 5.04079,19.88908 7.21615,24.71875 1.34841,0.027 2.66498,0.10119 3.90382,0.28125 0.71854,-0.033 1.44333,-0.0652 2.15893,-0.0937 1.40714,-2.10842 3.22138,-4.82653 6.03318,-9.15625 0.067,2.03245 0.20528,3.707 0.41404,5.1875 2.16209,-18.3864 1.51843,-1.59984 1.80404,3.78125 0.21517,-8.1e-4 0.43603,0 0.65063,0 2.3113,0 4.9363,0.093 7.71892,0.25 0.35463,-6.62889 -0.55685,-20.77122 4.43616,0.3125 0.22127,0.016 0.45735,0.0463 0.68021,0.0625 0.68876,-1.8619 1.25946,-5.97671 2.07021,-15.03125 0.51697,5.84761 1.23305,9.82343 1.98148,12.46875 0.23852,-6.97699 -0.38735,-20.13317 4.02212,2.46875 3.06263,-0.16904 6.1247,-0.30671 9.13849,-0.40625 1.54049,-1.97158 3.37222,-4.29777 5.91488,-7.59375 0.12397,3.1658 0.46233,5.58625 0.97595,7.46875 0.93175,3e-4 1.91113,0.0331 2.92787,0.0625 2.54249,-0.0714 5.17105,-0.0839 7.74849,-0.0625 0.7943,-2.12747 1.69794,-4.61492 3.28276,-8.96875 0.0762,4.12433 0.33434,6.97355 0.70979,9 4.09868,0.0326 7.86918,0.0205 10.64678,-0.34375 0.48128,-0.0631 0.85028,-0.51202 1.12383,-1.25 1.04515,-4.92714 0.12008,-15.19582 1.06467,-20.15625 0.232,-2.56703 0.71832,-4.31732 1.71532,-4.3125 0.6434,0.003 1.42332,2.1573 2.24765,5.1875 1.56732,4.39412 3.33165,11.77111 4.93893,16.90625 5.98346,-6.11716 1.17253,-15.78568 2.66169,-25.21875 2.50395,22.7999 3.785,28.24682 5.79658,29.5 0.84857,0.006 1.72598,0.0252 2.57298,0.0312 0.79186,-2.11293 1.77887,-4.80604 3.43063,-9.34375 0.081,4.38702 0.35415,7.33912 0.76893,9.375 0.1286,7.9e-4 0.25553,-7.7e-4 0.38447,0 9.8783,-4.80655 5.07543,-17.40179 6.15147,-29.5625 1.46437,23.78883 2.1901,28.67049 3.40106,29.625 3.10293,0.0201 6.43374,0.0412 9.46381,0.0625 4.87857,0.0344 11.6664,-1.75758 13.1606,-28.9375 1.57522,12.36425 3.5828,19.46542 5.73744,23.5625 1.21945,-2.3465 2.29149,-5.52467 3.13488,-9.71875 -0.36533,-4.15683 -1.18896,-8.64607 -0.35489,-13.09375 0.41642,3.19204 0.78924,5.87146 1.1534,8.40625 0.3096,-2.29565 0.55551,-4.84087 0.73936,-7.65625 0.10393,0.68676 0.21814,1.28273 0.32532,1.9375 -0.001,-1.39344 0.0244,-2.79253 0.14787,-4.1875 z m 17.53762,21.65625 c -1.21878,2.8842 -2.72327,6.36998 -1.36042,7.65625 0.10741,0.10138 0.20443,0.18934 0.32531,0.28125 0.55342,-1.26051 0.93862,-3.60225 1.03511,-7.9375 z m -442.96532,0 c 0.0965,4.33525 0.48169,6.67699 1.03511,7.9375 0.12088,-0.0919 0.2179,-0.17987 0.32531,-0.28125 1.36285,-1.28627 -0.14164,-4.77205 -1.36042,-7.65625 z"
       id="path3205"
       inkscape:connector-curvature="0" />
    <path
       id="path3217"
       d="m 552.35657,795.90625 c 0.18164,2.72132 0.35133,4.92105 0.51122,7.11298 1.97315,9.50329 4.38998,14.66621 6.90156,17.4365 3.20577,-2.99195 6.34486,-8.48597 9.42929,-9.1334 -0.0385,-2.66473 -0.16267,-5.83968 -0.39762,-9.79765 1.68844,9.27496 4.08431,14.89488 6.53234,18.29448 3.29902,-3.2205 6.55297,-7.24903 9.74171,-7.22369 2.74734,0.0218 -4.24196,7.58295 -2.69814,10.18512 1.11852,0.0237 2.302,0.0307 3.37977,0.0554 0.9939,-0.0901 1.8344,-0.14495 2.41413,-0.13839 1.5502,0.0175 -3.80979,-31.71777 -2.30052,-22.86118 0.20172,1.18372 2.94028,6.68883 5.96431,12.01181 -0.0531,-2.75108 -0.26568,-6.12762 -0.71004,-10.32351 3.31093,10.19434 8.1411,15.97044 12.95107,19.23549 0.61788,-2.66468 0.80012,-7.99289 0.19881,-18.51589 -0.42555,-2.33454 -0.64757,-3.57685 -0.142,-1.0794 0.0171,0.0842 0.0668,0.23363 0.1136,0.3598 1.11983,3.02086 10.46367,17.56653 14.68356,21.58804 9.18776,0.15183 17.50546,0.32929 23.94245,0.49818 2.99961,0.0787 4.15202,-1.06328 6.50394,-14.64112 2.00684,11.73413 5.98084,15.05317 7.66839,15.13931 0.31052,0.0159 0.53764,0.0396 0.82365,0.0553 2.68813,-1.40799 4.09092,-6.17638 2.18691,-21.31127 4.09896,10.6244 10.15491,16.46872 16.10364,19.65065 1.08664,-2.0251 2.09321,-5.67687 3.43657,-12.20554 2.38394,11.73412 7.08383,15.05316 9.08848,15.1393 4.47417,0.19225 6.81635,0.37713 6.81635,0.58122 l 0,28.89471 c 0,1.6378 -151.194,2.9615 -339,2.9615 -23.47575,0 -46.36812,-0.016 -68.47596,-0.055 C 133.26922,857.5442 17.5,856.3469 17.5,854.9139 l 0,-28.8948 c 0,-0.20409 2.34218,-0.38897 6.81635,-0.58122 2.00465,-0.0861 6.70454,-3.40518 9.08848,-15.1393 1.34336,6.52867 2.34993,10.18044 3.43657,12.20554 5.94874,-3.18193 12.00468,-9.02625 16.10364,-19.65065 -1.90401,15.13489 -0.50122,19.90328 2.18691,21.31127 0.28601,-0.0158 0.51313,-0.0395 0.82365,-0.0553 1.68755,-0.0861 5.66155,-3.40518 7.66839,-15.13931 2.35192,13.57784 3.50433,14.71986 6.50394,14.64112 6.43698,-0.16889 14.75469,-0.34635 23.94245,-0.49818 4.21989,-4.02151 13.56373,-18.56718 14.68356,-21.58804 0.0468,-0.12617 0.0966,-0.27561 0.1136,-0.3598 0.50557,-2.49745 0.28355,-1.25514 -0.142,1.0794 -0.60131,10.523 -0.41907,15.85121 0.19881,18.51589 4.80997,-3.26505 9.64014,-9.04115 12.95107,-19.23549 -0.44436,4.19589 -0.65697,7.57243 -0.71004,10.32351 3.02403,-5.32298 5.76259,-10.82809 5.96431,-12.01181 1.50927,-8.85659 -3.85072,22.87872 -2.30052,22.86118 0.57973,-0.007 1.42023,0.0483 2.41413,0.13839 1.07777,-0.0247 2.26125,-0.0316 3.37977,-0.0554 1.54382,-2.60217 -5.44548,-10.16331 -2.69814,-10.18512 3.18874,-0.0253 6.44269,4.00319 9.74171,7.22369 2.44803,-3.3996 4.8439,-9.01952 6.53234,-18.29448 -0.23495,3.95797 -0.35909,7.13292 -0.39762,9.79765 3.08443,0.64743 6.22352,6.14145 9.42929,9.1334 2.51158,-2.77029 4.92841,-7.93321 6.90155,-17.4365 0.1599,-2.19193 0.32959,-4.39166 0.51123,-7.11298 0.11854,1.23547 0.14329,2.4746 0.14201,3.70871 0.10293,-0.5799 0.21261,-1.10773 0.31242,-1.71597 0.17656,2.49348 0.41271,4.74769 0.71003,6.78086 0.34972,-2.24497 0.70775,-4.61803 1.10766,-7.44511 0.80098,3.93915 0.01,7.91511 -0.34082,11.59666 0.80995,3.71454 1.83946,6.52933 3.01056,8.60754 2.06918,-3.62864 3.99714,-9.91788 5.50988,-20.86844 1.43495,24.07225 7.95357,25.65934 12.63866,25.62888 2.90989,-0.0189 6.1086,-0.0376 9.08847,-0.0554 1.16294,-0.84537 1.85989,-5.16888 3.26617,-26.23777 1.03337,10.77029 -3.57902,21.92543 5.90751,26.18242 0.12382,-6.8e-4 0.24572,6.9e-4 0.36922,0 0.39833,-1.8031 0.66059,-4.41767 0.73844,-8.30309 1.58624,4.01888 2.53411,6.40407 3.29457,8.27541 0.81341,-0.005 1.65602,-0.0222 2.47093,-0.0277 1.9318,-1.1099 3.16205,-5.93404 5.56668,-26.12707 1.4301,8.35452 -3.19002,16.91758 2.55614,22.33532 1.54353,-4.548 3.23788,-11.08153 4.74304,-14.97324 0.79165,-2.68374 1.54064,-4.59173 2.15852,-4.59438 0.95746,-0.004 1.42449,1.5459 1.64728,3.81942 0.90713,4.39327 0.0187,13.48786 1.02245,17.85165 0.2627,0.6536 0.61707,1.05119 1.07926,1.10708 2.66744,0.3226 6.2884,0.33332 10.22453,0.30445 0.36056,-1.79476 0.60847,-4.31821 0.68164,-7.97097 1.52196,3.85602 2.38976,6.05907 3.15256,7.94329 2.47522,-0.019 4.99953,-0.008 7.44119,0.0553 0.97642,-0.026 1.91695,-0.0551 2.81174,-0.0553 0.49326,-1.66726 0.8182,-3.81097 0.93725,-6.6148 2.44182,2.91913 4.2009,4.97935 5.6803,6.72551 2.89426,0.0882 5.83489,0.21008 8.77605,0.3598 4.23459,-20.01769 3.63355,-8.36575 3.8626,-2.18648 0.71875,-2.34287 1.40643,-5.8641 1.9029,-11.04312 0.77859,8.01928 1.32666,11.66361 1.9881,13.31263 0.21403,-0.0144 0.44074,-0.0412 0.65324,-0.0554 4.79498,-18.67307 3.91966,-6.14773 4.26022,-0.27677 2.67226,-0.13904 5.19315,-0.22141 7.41278,-0.22141 0.20609,0 0.41819,-7.2e-4 0.62484,0 0.27428,-4.76583 -0.34386,-19.63307 1.73249,-3.34892 0.20048,-1.31122 0.33328,-2.79431 0.39762,-4.59437 2.70028,3.83467 4.44256,6.242 5.7939,8.10935 0.68721,0.0253 1.38326,0.0538 2.07331,0.083 1.1897,-0.15947 2.45406,-0.22522 3.74899,-0.24909 2.08909,-4.27746 6.73031,-19.80226 6.92996,-21.89249 0.60961,-6.38223 -0.77743,8.16905 -1.27807,16.85528 0.41698,-2.03835 0.80441,-4.55847 1.10766,-7.72188 0.69857,7.19507 1.21422,10.85724 1.78929,12.73141 0.78359,-0.0443 1.50423,-0.11404 2.13011,-0.24909 2.07254,-0.44719 0.0557,-22.79443 2.10171,-22.77815 1.14603,0.009 3.06257,20.51299 4.28863,23.0826 1.16008,-2.2246 -2.491,-10.46682 -1.13606,-10.48958 1.88996,-0.0318 3.82361,6.33461 5.7939,9.43785 0.17953,-5.84589 -0.31548,-19.15289 2.10171,1.10708 0.72596,-0.0109 1.43506,-0.0186 2.15851,-0.0277 1.97997,-1.43999 4.15239,-6.58172 5.59509,-25.21372 0.5365,16.05728 2.31518,22.09155 4.23182,24.32806 2.00336,-4.64011 5.54493,-16.35222 6.36193,-20.06581 0.0725,-1.34812 0.14792,-2.73927 0.19881,-4.26225 0.0465,0.6014 0.094,1.14232 0.14201,1.71597 1.13366,13.53665 2.66654,19.47915 4.20342,22.05855 1.03037,-4.57676 -0.28495,-21.68533 1.50527,-21.67107 1.05297,0.008 2.75554,17.28189 3.97621,22.08622 0.16238,-0.25258 0.34942,-0.51014 0.51123,-0.80263 -6.7e-4,-0.009 6.9e-4,-0.0189 0,-0.0277 -0.25284,-3.23744 -2.43277,-8.64446 -1.33487,-8.6629 1.09609,-0.0185 2.20072,2.13243 3.32297,4.53903 1.12225,-2.4066 2.22688,-4.55749 3.32297,-4.53903 1.0979,0.0184 -1.08203,5.42546 -1.33487,8.6629 -6.9e-4,0.009 6.7e-4,0.0189 0,0.0277 0.16181,0.29249 0.34885,0.55005 0.51123,0.80263 1.22067,-4.80433 2.92324,-22.07784 3.97621,-22.08622 1.79022,-0.0142 0.4749,17.09431 1.50527,21.67107 1.53688,-2.5794 3.06976,-8.5219 4.20342,-22.05855 0.0481,-0.57365 0.0954,-1.11457 0.14201,-1.71597 0.0509,1.52298 0.12628,2.91413 0.19881,4.26225 0.817,3.71359 4.35857,15.4257 6.36193,20.06581 1.91664,-2.23651 3.69532,-8.27078 4.23182,-24.32806 1.4427,18.632 3.61512,23.77373 5.59509,25.21372 0.72345,0.009 1.43255,0.0168 2.15851,0.0277 2.41719,-20.25997 1.92218,-6.95297 2.10171,-1.10708 1.97029,-3.10324 3.90394,-9.46969 5.7939,-9.43785 1.35494,0.0228 -2.29615,8.26498 -1.13606,10.48958 1.22606,-2.56961 3.1426,-23.07348 4.28863,-23.0826 2.04599,-0.0163 0.0292,22.33096 2.10171,22.77815 0.62588,0.13512 1.34652,0.20484 2.13011,0.24909 0.57507,-1.87417 1.09072,-5.53634 1.78929,-12.73141 0.30324,3.16341 0.69068,5.68353 1.10766,7.72188 -0.50064,-8.68623 -1.88768,-23.23751 -1.27807,-16.85528 0.19965,2.09023 4.84087,17.61503 6.92996,21.89249 1.29493,0.0239 2.55929,0.0896 3.74899,0.24909 0.69005,-0.0293 1.3861,-0.0578 2.07331,-0.083 1.35134,-1.86735 3.09362,-4.27468 5.7939,-8.10935 0.0644,1.80006 0.19714,3.28315 0.39762,4.59437 2.07635,-16.28415 1.45821,-1.41691 1.73249,3.34892 0.20665,-7.2e-4 0.41875,0 0.62484,0 2.21963,0 4.74052,0.0824 7.41278,0.22141 0.34056,-5.87096 -0.53476,-18.3963 4.26022,0.27677 0.2125,0.0142 0.43921,0.041 0.65324,0.0554 0.66144,-1.64902 1.20951,-5.29335 1.9881,-13.31263 0.49647,5.17902 1.18415,8.70025 1.9029,11.04312 0.22905,-6.17927 -0.37199,-17.83121 3.8626,2.18648 2.94116,-0.14972 5.88179,-0.27164 8.77605,-0.3598 1.4794,-1.74616 3.23848,-3.80638 5.6803,-6.72551 0.11905,2.80383 0.44399,4.94754 0.93725,6.6148 0.89479,2.6e-4 1.83532,0.0293 2.81174,0.0553 2.44166,-0.0632 4.96597,-0.0743 7.44119,-0.0553 0.7628,-1.88422 1.6306,-4.08727 3.15256,-7.94329 0.0732,3.65276 0.32108,6.17621 0.68164,7.97097 3.93613,0.0288 7.55709,0.0182 10.22453,-0.30445 0.46219,-0.0559 0.81656,-0.45348 1.07926,-1.10708 1.0037,-4.36379 0.11532,-13.45838 1.02245,-17.85165 0.22279,-2.27352 0.68982,-3.82369 1.64728,-3.81942 0.61788,0.003 1.36687,1.91064 2.15852,4.59438 1.50516,3.89171 3.19951,10.42524 4.74304,14.97324 5.74616,-5.41774 1.12604,-13.9808 2.55614,-22.33532 2.40463,20.19303 3.63488,25.01717 5.56668,26.12707 0.81491,0.005 1.65752,0.0223 2.47093,0.0277 0.76046,-1.87134 1.70833,-4.25653 3.29457,-8.27541 0.0778,3.88542 0.34011,6.49999 0.73844,8.30309 0.1235,7e-4 0.2454,-6.8e-4 0.36922,0 9.48653,-4.25699 4.87414,-15.41213 5.90751,-26.18242 1.40628,21.06889 2.10323,25.3924 3.26617,26.23777 2.97987,0.0178 6.17858,0.0365 9.08847,0.0554 4.68509,0.0305 11.20371,-1.55663 12.63866,-25.62888 1.51274,10.95056 3.4407,17.2398 5.50988,20.86844 1.1711,-2.07821 2.20061,-4.893 3.01056,-8.60754 -0.35084,-3.68155 -1.1418,-7.65751 -0.34082,-11.59666 0.39991,2.82708 0.75794,5.20014 1.10766,7.44511 0.29732,-2.03317 0.53347,-4.28738 0.71003,-6.78086 0.0998,0.60824 0.20949,1.13607 0.31242,1.71597 -9.1e-4,-1.23411 0.0234,-2.47324 0.14201,-3.70871 z m 16.84207,19.18014 c -1.17044,2.55443 -2.61526,5.64166 -1.30647,6.78086 0.10316,0.0898 0.19633,0.1677 0.31242,0.2491 0.53147,-1.11639 0.9014,-3.19038 0.99405,-7.02996 z m -425.39728,0 c 0.0926,3.83958 0.46258,5.91357 0.99405,7.02996 0.11609,-0.0814 0.20926,-0.15931 0.31241,-0.2491 1.3088,-1.1392 -0.13602,-4.22643 -1.30646,-6.78086 z"
       style="fill:#55d400;stroke:none"
       inkscape:connector-curvature="0" />
    <path
       style="fill:#2d5016;stroke:none"
       d="m 147,808.90625 c -0.19986,2.41392 -0.38657,4.36816 -0.5625,6.3125 -0.85994,3.33902 -1.79198,6.04296 -2.78125,8.28125 -0.73486,-0.45566 -1.45832,-0.78286 -2.1875,-0.90625 0.0424,-2.36372 0.17899,-5.20787 0.4375,-8.71875 -1.52779,6.76587 -3.57037,11.34915 -5.75,14.4375 -2.59679,-2.50202 -5.16272,-5.2915 -7.6875,-5.71875 0.0424,-2.36372 0.17899,-5.20787 0.4375,-8.71875 -0.92889,4.11363 -2.05329,7.44212 -3.28125,10.09375 -0.54674,-0.153 -1.08162,-0.25348 -1.625,-0.25 -1.24985,0.008 -0.6484,1.17658 0.34375,2.6875 -0.85119,1.47168 -1.7353,2.72269 -2.625,3.71875 -0.42531,-0.33472 -0.85734,-0.68379 -1.28125,-1.03125 0.73488,-7.29307 3.9745,-22.77601 2.6875,-16.6875 -0.22195,1.05001 -3.23518,5.93456 -6.5625,10.65625 0.0584,-2.44032 0.29232,-5.46558 0.78125,-9.1875 -1.61536,4.00971 -3.56248,7.25895 -5.6875,9.875 -0.21984,-0.0256 -0.43697,-0.0327 -0.65625,-0.0312 -0.83226,0.005 -0.8411,0.52468 -0.46875,1.3125 -0.95938,1.05676 -1.96188,2.00525 -2.96875,2.84375 0.92837,-7.65246 3.78192,-21.23759 2.5625,-15.46875 -0.22195,1.05001 -3.23518,5.93456 -6.5625,10.65625 0.0584,-2.44032 0.29232,-5.46558 0.78125,-9.1875 -0.5223,1.29647 -1.07022,2.51591 -1.65625,3.65625 0.0537,-0.94953 0.11191,-1.93352 0.1875,-3 0.46823,-2.07082 0.71252,-3.18408 0.15625,-0.96875 -0.0187,0.0747 -0.0735,0.20059 -0.125,0.3125 -1.0001,2.17499 -7.930482,11.03237 -13,16.21875 -0.513776,-2.58267 -0.62303,-7.21337 -0.03125,-15.5625 0.46823,-2.07082 0.71252,-3.18408 0.15625,-0.96875 -0.01875,0.0747 -0.0735,0.20059 -0.125,0.3125 -1.23214,2.67962 -11.51312,15.58902 -16.15625,19.15625 -5.448595,0.0726 -10.531692,0.16895 -15.25,0.25 -2.011675,-0.68512 -3.226842,-3.36511 -5.25,-12.78125 -1.741376,8.2085 -4.8306,11.7592 -6.96875,12.9375 -2.351981,-0.28062 -3.604388,-2.23807 -5.625,-11.1875 0.141655,-2.04531 0.410345,-4.4101 0.84375,-7.1875 -3.520863,7.35723 -8.341389,12.13602 -13.40625,15.21875 -0.782799,-2.8188 -0.800581,-7.48499 0.40625,-15.21875 -2.092231,4.37194 -4.645224,7.82802 -7.4375,10.5625 -0.336832,-1.16471 -0.684957,-2.45829 -1.0625,-3.9375 -0.739322,2.93376 -1.666759,5.24308 -2.6875,7.09375 -2.135438,1.54807 -4.336733,2.77243 -6.53125,3.71875 C 9.58562,830.70365 8.4780996,827.4787 7,821.6875 c -2.62303,10.40864 -7.79430005,13.32985 -10,13.40625 -4.92291,0.17053 -7.5,0.35021 -7.5,0.53125 l 0,25.625 c 0,1.2712 127.38029,2.3179 297.65625,2.5625 4.19712,0.006 8.75262,-0.005 13,0 24.32514,0.0349 49.5135,0.0625 75.34375,0.0625 21.18764,-0.005 42.21573,-0.0336 62.34375,-0.0625 4.24738,-0.005 8.80288,0.006 13,0 C 621.11971,863.5679 748.5,862.5212 748.5,861.25 l 0,-25.625 c 0,-0.18104 -2.57709,-0.36072 -7.5,-0.53125 -2.2057,-0.0764 -7.37697,-2.99761 -10,-13.40625 -1.4781,5.7912 -2.58562,9.01615 -3.78125,10.8125 -2.19452,-0.94632 -4.39581,-2.17068 -6.53125,-3.71875 -1.02074,-1.85067 -1.94818,-4.15999 -2.6875,-7.09375 -0.37754,1.47921 -0.72567,2.77279 -1.0625,3.9375 -2.79228,-2.73448 -5.34527,-6.19056 -7.4375,-10.5625 1.20683,7.73376 1.18905,12.39995 0.40625,15.21875 -5.06486,-3.08273 -9.88539,-7.86152 -13.40625,-15.21875 0.4334,2.7774 0.70209,5.14219 0.84375,7.1875 -2.02061,8.94943 -3.27302,10.90688 -5.625,11.1875 -2.13815,-1.1783 -5.22737,-4.729 -6.96875,-12.9375 -2.02316,9.41614 -3.23833,12.09613 -5.25,12.78125 -4.71831,-0.0811 -9.80141,-0.17741 -15.25,-0.25 -4.64313,-3.56723 -14.92411,-16.47663 -16.15625,-19.15625 -0.0515,-0.11191 -0.10625,-0.23782 -0.125,-0.3125 -0.55627,-2.21533 -0.31198,-1.10207 0.15625,0.96875 0.59178,8.34913 0.48253,12.97983 -0.0312,15.5625 -5.06952,-5.18638 -11.9999,-14.04376 -13,-16.21875 -0.0515,-0.11191 -0.1063,-0.2378 -0.125,-0.3125 -0.55627,-2.21533 -0.31198,-1.10207 0.15625,0.96875 0.0756,1.06648 0.13385,2.05047 0.1875,3 -0.58603,-1.14034 -1.13395,-2.35978 -1.65625,-3.65625 0.48893,3.72192 0.72286,6.74718 0.78125,9.1875 -3.32732,-4.72169 -6.34055,-9.60624 -6.5625,-10.65625 -1.21942,-5.76884 1.63413,7.81629 2.5625,15.46875 -1.00688,-0.8385 -2.00938,-1.78699 -2.96875,-2.84375 0.37235,-0.78782 0.36351,-1.30717 -0.46875,-1.3125 -0.21928,-0.001 -0.43641,0.006 -0.65625,0.0312 -2.12502,-2.61605 -4.07214,-5.86529 -5.6875,-9.875 0.48893,3.72192 0.72285,6.74718 0.78125,9.1875 -3.32732,-4.72169 -6.34055,-9.60624 -6.5625,-10.65625 -1.287,-6.08851 1.95262,9.39443 2.6875,16.6875 -0.42391,0.34746 -0.85594,0.69653 -1.28125,1.03125 -0.8897,-0.99606 -1.77381,-2.24707 -2.625,-3.71875 0.99215,-1.51092 1.5936,-2.67952 0.34375,-2.6875 -0.54338,-0.003 -1.07826,0.097 -1.625,0.25 -1.22796,-2.65163 -2.35236,-5.98012 -3.28125,-10.09375 0.25851,3.51088 0.3951,6.35503 0.4375,8.71875 -2.52478,0.42725 -5.09071,3.21673 -7.6875,5.71875 -2.17963,-3.08835 -4.22221,-7.67163 -5.75,-14.4375 0.25851,3.51088 0.3951,6.35503 0.4375,8.71875 -0.72918,0.12339 -1.45264,0.45059 -2.1875,0.90625 -0.98927,-2.23829 -1.92131,-4.94223 -2.78125,-8.28125 -0.17593,-1.94434 -0.36264,-3.89858 -0.5625,-6.3125 -0.13043,1.09591 -0.15766,2.18654 -0.15625,3.28125 -0.11325,-0.5144 -0.23393,-0.96047 -0.34375,-1.5 -0.19427,2.21182 -0.45411,4.1965 -0.78125,6 -0.38479,-1.99137 -0.77873,-4.08603 -1.21875,-6.59375 -0.88132,3.49418 -0.011,7.01557 0.375,10.28125 -0.89118,3.29495 -2.02395,5.78155 -3.3125,7.625 -2.27671,-3.21874 -4.39803,-8.78641 -6.0625,-18.5 -0.17689,2.39234 -0.44339,4.4886 -0.75,6.40625 -0.0635,-0.23691 -0.12484,-0.44422 -0.1875,-0.6875 -0.17593,-1.94434 -0.36264,-3.89858 -0.5625,-6.3125 -0.13045,1.09591 -0.15725,2.18654 -0.15625,3.28125 -0.11325,-0.5144 -0.23393,-0.96047 -0.34375,-1.5 -0.19427,2.21182 -0.45411,4.1965 -0.78125,6 -0.38479,-1.99137 -0.77873,-4.08603 -1.21875,-6.59375 -0.88132,3.49418 -0.011,7.01557 0.375,10.28125 -0.89118,3.29495 -2.02395,5.78155 -3.3125,7.625 -2.27671,-3.21874 -4.39803,-8.78641 -6.0625,-18.5 -1.30881,17.70079 -6.46422,21.66661 -11.125,22.5 -1.14425,-1.10766 -1.92438,-5.57286 -3.375,-23.09375 -1.13701,9.55368 3.93798,19.44263 -6.5,23.21875 -0.13624,-6.1e-4 -0.27037,6.1e-4 -0.40625,0 -0.43828,-1.59943 -0.72685,-3.89723 -0.8125,-7.34375 -1.312,2.67979 -1.9898,4.03601 -2.71875,5.5 -0.76328,-2.5557 -1.47759,-8.27127 -2.5625,-21.375 -0.96824,8.13556 2.56192,16.51495 -2.8125,21.15625 -1.30245,-2.70277 -2.51177,-8.54225 -4.375,-21.15625 -1.30135,6.12892 1.94374,12.39463 -0.46875,17.09375 -0.0176,-0.40608 -0.0515,-0.77639 -0.0625,-1.21875 -0.82784,1.69089 -1.15401,2.32391 -1.71875,3.46875 -0.17585,0.15554 -0.36492,0.31857 -0.5625,0.46875 -1.69834,-4.03426 -3.56263,-9.82914 -5.21875,-13.28125 -0.87104,-2.38058 -1.69515,-4.06015 -2.375,-4.0625 -0.98765,-0.004 -1.4877,1.21846 -1.75,3.03125 -0.26856,-1.68855 -0.54527,-3.47929 -0.84375,-5.5 -0.74691,3.51771 -0.009,7.06086 0.3125,10.34375 -0.0443,1.47239 -0.0779,3.04978 -0.0937,4.59375 -0.34798,1.81375 -1.17751,3.46596 -3.03125,4.875 -1.69834,-4.03426 -3.56263,-9.82914 -5.21875,-13.28125 -0.87104,-2.38058 -1.69515,-4.0605 -2.375,-4.0625 -1.05349,-0.004 -1.56736,1.35829 -1.8125,3.375 -0.93573,3.65344 -0.13126,10.97245 -0.9375,15.0625 -0.19087,-1.34565 -0.32352,-2.95923 -0.375,-5.03125 -1.6537,3.37774 -2.60574,5.27983 -3.4375,6.9375 -0.83675,0.0392 -1.72598,0.0767 -2.65625,0.0937 -0.73286,6.1e-4 -1.45633,-0.006 -2.1875,0 -1.30044,0.007 -2.57273,0.0395 -3.96875,0.0312 -0.39672,-1.59202 -0.6695,-3.82235 -0.75,-7.0625 -1.13133,2.31078 -1.68313,3.41273 -2.34375,4.75 -0.203,-1.04252 -0.36528,-2.22257 -0.4375,-3.59375 -2.65925,2.56291 -4.5701,4.36749 -6.1875,5.90625 -0.89626,0.009 -1.80571,0.0128 -2.6875,0.0312 -1.07435,-0.0231 -2.10921,-0.0623 -3.09375,-0.0625 -0.54273,-1.47893 -0.90026,-3.38789 -1.03125,-5.875 -1.57351,1.51651 -2.50899,2.40907 -3.65625,3.5 -3.82842,-13.76608 -3.26257,-4.32 -3.5,0.84375 -0.79084,-2.07821 -1.54749,-5.18726 -2.09375,-9.78125 -0.81668,6.78126 -1.41027,10.0061 -2.09375,11.5625 -0.2922,0.01 -0.58243,0.021 -0.875,0.0312 -4.37288,-13.68033 -4.38259,-8.12037 -4.5,-2.90625 -3.75747,-13.42794 -3.20141,-4.04081 -3.4375,1.09375 -0.79084,-2.07821 -1.54749,-5.18726 -2.09375,-9.78125 -0.77483,6.43376 -1.32894,9.66619 -1.96875,11.3125 -0.25062,-0.001 -0.53709,0 -0.78125,0 -0.10307,0 -0.20788,8e-5 -0.3125,0 -0.15125,-0.47017 -0.26543,-0.8886 -0.40625,-1.3125 -0.13834,-4.62957 0.12229,-13.07617 -1.46875,-4.03125 -1.89285,-4.71447 -2.32593,-2.93085 -2.46875,0.125 -1.81527,2.05963 -3.55783,4.05757 -4.65625,5.28125 -1.28311,-0.0302 -2.53474,-0.0625 -3.6875,-0.0625 -0.22676,0 -0.46013,-6.4e-4 -0.6875,0 -0.30179,-4.22748 0.37834,-17.41345 -1.90625,-2.96875 -0.22059,-1.16311 -0.3667,-2.46577 -0.4375,-4.0625 -0.95826,1.09708 -1.3026,1.45242 -2.0625,2.3125 -2.38665,-5.54552 -5.18224,-13.32431 -5.34375,-14.6875 -0.67075,-5.66129 0.8554,7.23246 1.40625,14.9375 -0.4588,-1.80811 -0.88509,-4.03768 -1.21875,-6.84375 -0.76863,6.38231 -1.336,9.61879 -1.96875,11.28125 -0.86218,-0.0393 -1.65509,-0.099 -2.34375,-0.21875 -2.2804,-0.39668 -0.0613,-20.20194 -2.3125,-20.1875 -0.74288,0.005 -1.77857,6.28335 -2.78125,11.9375 -1.90421,-4.80222 -3.65441,-9.83564 -3.78125,-10.90625 -0.58197,-4.912 0.47127,4.04367 1.125,11.5625 -0.11559,0.14809 -0.22789,0.27298 -0.34375,0.4375 -0.21488,-1.16973 -0.42043,-2.44867 -0.59375,-3.90625 -0.31272,2.59663 -0.57971,4.55534 -0.84375,6.21875 -0.8672,1.49961 -1.74396,3.06879 -2.625,4.1875 -0.1827,-4.79601 0.22269,-14.95525 -1.8125,-2.28125 -0.51801,-5.60559 0.3848,-17.26113 -1.34375,-17.25 -1.01898,0.007 -2.59707,11.7697 -3.875,17.53125 -0.17092,-0.36212 -0.33131,-0.77616 -0.5,-1.21875 0.73795,-2.52465 1.79725,-5.14418 0.90625,-5.15625 -0.67484,-0.009 -1.34656,0.60667 -2.03125,1.5 -0.81866,-3.33183 -1.55806,-7.97779 -2.1875,-14.53125 -0.34837,8.40581 -1.16807,13.68343 -2.21875,17.03125 -0.0502,-4.59266 -0.24031,-7.83493 -2.0625,4.15625 -0.12042,0.13794 -0.25333,0.26055 -0.375,0.375 -2.20429,-4.11596 -6.10106,-14.48715 -7,-17.78125 -0.0798,-1.19583 -0.16276,-2.4303 -0.21875,-3.78125 -0.0512,0.53347 -0.10339,1.0224 -0.15625,1.53125 -0.12912,1.24298 -0.2682,2.36597 -0.40625,3.46875 -0.19369,-1.54601 -0.38706,-3.17338 -0.5625,-5 -0.50695,12.23209 -2.0278,17.88464 -3.78125,20.5 -0.89407,-4.72475 0.3578,-18.63713 -1.53125,-18.625 -0.74419,0.005 -1.77721,6.2539 -2.78125,11.90625 -1.5818,-3.99193 -3.05293,-8.13273 -3.5625,-10 -0.0798,-1.19583 -0.16275,-2.4303 -0.21875,-3.78125 -0.0512,0.53347 -0.10335,1.0224 -0.15625,1.53125 -0.59897,5.76587 -1.30911,9.9251 -2.0625,13 -0.67539,-0.88304 -1.33207,-1.50907 -2,-1.5 -0.89112,0.012 0.17112,2.63335 0.90625,5.15625 -0.16652,0.43858 -0.36251,0.82801 -0.53125,1.1875 -0.45725,-2.07702 -0.94492,-4.92735 -1.4375,-7.71875 -0.0131,-4.94999 -0.0424,-9.78843 -1.15625,-9.78125 -0.19106,0.001 -0.40064,0.4403 -0.625,1.15625 -0.22436,-0.71595 -0.43394,-1.15502 -0.625,-1.15625 -1.11386,-0.007 -1.14312,4.83126 -1.15625,9.78125 -0.49258,2.7914 -0.98025,5.64173 -1.4375,7.71875 -0.16874,-0.35949 -0.36473,-0.74892 -0.53125,-1.1875 0.73513,-2.5229 1.79737,-5.14423 0.90625,-5.15625 -0.66793,-0.009 -1.32461,0.61696 -2,1.5 -0.75339,-3.0749 -1.46353,-7.23413 -2.0625,-13 -0.0529,-0.50885 -0.10501,-0.99778 -0.15625,-1.53125 -0.056,1.35095 -0.13895,2.58542 -0.21875,3.78125 -0.50957,1.86727 -1.9807,6.00807 -3.5625,10 -1.00404,-5.65235 -2.03706,-11.90175 -2.78125,-11.90625 -1.88905,-0.0121 -0.63718,13.90025 -1.53125,18.625 -1.75345,-2.61536 -3.2743,-8.26791 -3.78125,-20.5 -0.17544,1.82662 -0.36881,3.45399 -0.5625,5 -0.13805,-1.10278 -0.27713,-2.22577 -0.40625,-3.46875 -0.0529,-0.50885 -0.10505,-0.99778 -0.15625,-1.53125 -0.056,1.35095 -0.13895,2.58542 -0.21875,3.78125 -0.89894,3.2941 -4.79571,13.66529 -7,17.78125 -0.12167,-0.11445 -0.25458,-0.23706 -0.375,-0.375 -1.82219,-11.99118 -2.01231,-8.74891 -2.0625,-4.15625 -1.05068,-3.34782 -1.87038,-8.62544 -2.21875,-17.03125 -0.62944,6.55346 -1.36884,11.19942 -2.1875,14.53125 -0.68469,-0.89333 -1.35641,-1.50916 -2.03125,-1.5 -0.891,0.0121 0.1683,2.6316 0.90625,5.15625 -0.16869,0.44259 -0.32908,0.85663 -0.5,1.21875 -1.27793,-5.76155 -2.85602,-17.52471 -3.875,-17.53125 -1.72855,-0.0111 -0.82574,11.64441 -1.34375,17.25 -2.03519,-12.674 -1.6298,-2.51476 -1.8125,2.28125 -0.88104,-1.11871 -1.7578,-2.68789 -2.625,-4.1875 -0.26404,-1.66341 -0.53103,-3.62212 -0.84375,-6.21875 -0.17332,1.45758 -0.37887,2.73652 -0.59375,3.90625 -0.11586,-0.16452 -0.22816,-0.28941 -0.34375,-0.4375 0.65373,-7.51883 1.70697,-16.4745 1.125,-11.5625 -0.12684,1.07061 -1.87704,6.10403 -3.78125,10.90625 -1.00268,-5.65415 -2.03837,-11.93279 -2.78125,-11.9375 -2.2512,-0.0144 -0.0321,19.79082 -2.3125,20.1875 -0.68866,0.11979 -1.48157,0.17945 -2.34375,0.21875 -0.63275,-1.66246 -1.20012,-4.89894 -1.96875,-11.28125 -0.33366,2.80607 -0.75995,5.03564 -1.21875,6.84375 0.55085,-7.70504 2.077,-20.59879 1.40625,-14.9375 -0.16151,1.36319 -2.9571,9.14198 -5.34375,14.6875 -0.7599,-0.86008 -1.10424,-1.21542 -2.0625,-2.3125 -0.0708,1.59673 -0.21691,2.89939 -0.4375,4.0625 -2.28459,-14.4447 -1.60446,-1.25873 -1.90625,2.96875 -0.22737,-6.4e-4 -0.46074,0 -0.6875,0 -1.15276,0 -2.40439,0.0323 -3.6875,0.0625 -1.09842,-1.22368 -2.84098,-3.22162 -4.65625,-5.28125 -0.14282,-3.05585 -0.5759,-4.83947 -2.46875,-0.125 -1.59104,-9.04492 -1.33041,-0.59832 -1.46875,4.03125 -0.14082,0.4239 -0.255,0.84233 -0.40625,1.3125 -0.10462,8e-5 -0.20943,0 -0.3125,0 -0.24416,0 -0.53063,-0.001 -0.78125,0 -0.63981,-1.64631 -1.19392,-4.87874 -1.96875,-11.3125 -0.54626,4.59399 -1.30291,7.70304 -2.09375,9.78125 -0.23609,-5.13456 0.31997,-14.52169 -3.4375,-1.09375 -0.11741,-5.21412 -0.12712,-10.77408 -4.5,2.90625 -0.29257,-0.0103 -0.5828,-0.0214 -0.875,-0.0312 -0.68348,-1.5564 -1.27707,-4.78124 -2.09375,-11.5625 -0.54626,4.59399 -1.30291,7.70304 -2.09375,9.78125 -0.23743,-5.16375 0.32842,-14.60983 -3.5,-0.84375 -1.14726,-1.09093 -2.08274,-1.98349 -3.65625,-3.5 -0.13099,2.48711 -0.48852,4.39607 -1.03125,5.875 -0.98454,2.4e-4 -2.0194,0.0394 -3.09375,0.0625 -0.88179,-0.0184 -1.79124,-0.0221 -2.6875,-0.0312 -1.6174,-1.53876 -3.52825,-3.34334 -6.1875,-5.90625 -0.0722,1.37118 -0.2345,2.55123 -0.4375,3.59375 -0.66062,-1.33727 -1.21242,-2.43922 -2.34375,-4.75 -0.0805,3.24015 -0.35328,5.47048 -0.75,7.0625 -1.39602,0.008 -2.66831,-0.0241 -3.96875,-0.0312 -0.2355,-0.001 -0.48729,0.002 -0.71875,0 -0.49175,-0.003 -0.97665,4.1e-4 -1.46875,0 -0.93027,-0.0171 -1.8195,-0.0546 -2.65625,-0.0937 -0.83176,-1.65767 -1.7838,-3.55976 -3.4375,-6.9375 -0.0515,2.07202 -0.18413,3.6856 -0.375,5.03125 -0.80624,-4.09005 -0.002,-11.40906 -0.9375,-15.0625 -0.24514,-2.01671 -0.75901,-3.37879 -1.8125,-3.375 -0.67985,0.002 -1.50396,1.68192 -2.375,4.0625 -1.65612,3.45211 -3.52041,9.24699 -5.21875,13.28125 -1.85374,-1.40904 -2.68327,-3.06125 -3.03125,-4.875 -0.0159,-1.54397 -0.0495,-3.12136 -0.0937,-4.59375 0.32109,-3.28289 1.05941,-6.82604 0.3125,-10.34375 -0.29848,2.02071 -0.57519,3.81145 -0.84375,5.5 -0.2623,-1.81279 -0.76235,-3.035 -1.75,-3.03125 -0.67985,0.002 -1.50396,1.68192 -2.375,4.0625 -1.65612,3.45211 -3.52041,9.24699 -5.21875,13.28125 -0.19758,-0.15018 -0.38665,-0.31321 -0.5625,-0.46875 -0.56474,-1.14484 -0.89091,-1.77786 -1.71875,-3.46875 -0.011,0.44236 -0.0449,0.81267 -0.0625,1.21875 -2.41249,-4.69912 0.8326,-10.96483 -0.46875,-17.09375 -1.86323,12.614 -3.07255,18.45348 -4.375,21.15625 -5.37442,-4.6413 -1.84426,-13.02069 -2.8125,-21.15625 -1.08491,13.10373 -1.79922,18.8193 -2.5625,21.375 -0.72895,-1.46399 -1.40675,-2.82021 -2.71875,-5.5 -0.0856,3.44652 -0.37422,5.74432 -0.8125,7.34375 -0.13588,6.1e-4 -0.27001,-6.1e-4 -0.40625,0 -10.43798,-3.77612 -5.36299,-13.66507 -6.5,-23.21875 -1.45062,17.52089 -2.23075,21.98609 -3.375,23.09375 -4.66078,-0.83339 -9.81619,-4.79921 -11.125,-22.5 -1.66447,9.71359 -3.78579,15.28126 -6.0625,18.5 -1.28855,-1.84345 -2.42132,-4.33005 -3.3125,-7.625 0.38603,-3.26568 1.25632,-6.78707 0.375,-10.28125 -0.44002,2.50772 -0.83396,4.60238 -1.21875,6.59375 -0.32714,-1.8035 -0.58698,-3.78818 -0.78125,-6 -0.10982,0.53953 -0.2305,0.9856 -0.34375,1.5 0.001,-1.09471 -0.0258,-2.18534 -0.15625,-3.28125 -0.19986,2.41392 -0.38657,4.36816 -0.5625,6.3125 -0.0627,0.24328 -0.12404,0.45059 -0.1875,0.6875 -0.30661,-1.91765 -0.57311,-4.01391 -0.75,-6.40625 -1.66447,9.71359 -3.78579,15.28126 -6.0625,18.5 -1.28855,-1.84345 -2.42132,-4.33005 -3.3125,-7.625 0.386,-3.26568 1.25632,-6.78707 0.375,-10.28125 -0.44002,2.50772 -0.83396,4.60238 -1.21875,6.59375 -0.32714,-1.8035 -0.58698,-3.78818 -0.78125,-6 -0.10982,0.53953 -0.2305,0.9856 -0.34375,1.5 0.001,-1.09471 -0.0258,-2.18534 -0.15625,-3.28125 z m -5.53125,17 c 0.16434,0.28916 0.33275,0.60627 0.5,0.90625 -0.13524,0.22376 -0.26972,0.41578 -0.40625,0.625 -0.0337,-0.48686 -0.0766,-0.95952 -0.0937,-1.53125 z m 455.0625,0 c -0.0171,0.57173 -0.06,1.04439 -0.0937,1.53125 -0.13653,-0.20922 -0.27101,-0.40124 -0.40625,-0.625 0.16725,-0.29998 0.33566,-0.61709 0.5,-0.90625 z"
       id="path3219"
       inkscape:connector-curvature="0" />
    <text
       xml:space="preserve"
       style="font-size:86.43238831px;font-style:normal;font-weight:normal;line-height:125%;letter-spacing:0px;word-spacing:0px;fill:#000000;fill-opacity:1;stroke:none;font-family:Sans"
       x="535.70789"
       y="182.31369"
       id="text3236"
       sodipodi:linespacing="125%"
       transform="scale(0.61576635,1.6239926)"><tspan
         sodipodi:role="line"
         id="tspan3238"
         x="535.70789"
         y="182.31369"
         style="font-style:normal;font-variant:normal;font-weight:bold;font-stretch:normal;letter-spacing:-6.82815599px;font-family:Segoe Print;-inkscape-font-specification:Segoe Print Bold">The Key to Keys</tspan></text>
    <text
       transform="scale(0.61576635,1.6239926)"
       sodipodi:linespacing="125%"
       id="text3240"
       y="174.92447"
       x="548.69983"
       style="font-size:86.43238831px;font-style:normal;font-weight:normal;line-height:125%;letter-spacing:0px;word-spacing:0px;fill:#ddff55;fill-opacity:1;stroke:none;font-family:Sans"
       xml:space="preserve"><tspan
         style="font-style:normal;font-variant:normal;font-weight:bold;font-stretch:normal;letter-spacing:-6.82815599px;fill:#ddff55;font-family:Segoe Print;-inkscape-font-specification:Segoe Print Bold"
         y="174.92447"
         x="548.69983"
         id="tspan3242"
         sodipodi:role="line">The Key to Keys</tspan></text>
    <text
       xml:space="preserve"
       style="font-size:40px;font-style:normal;font-weight:normal;line-height:125%;letter-spacing:0px;word-spacing:0px;fill:#000000;fill-opacity:1;stroke:none;font-family:Sans"
       x="369"
       y="754.36218"
       id="text3244"
       sodipodi:linespacing="125%"><tspan
         sodipodi:role="line"
         id="tspan3246"
         x="369"
         y="754.36218"
         style="font-style:normal;font-variant:normal;font-weight:normal;font-stretch:normal;font-family:Segoe Print;-inkscape-font-specification:Segoe Print">maryanne peters</tspan></text>
    <text
       sodipodi:linespacing="125%"
       id="text3248"
       y="752.36218"
       x="371"
       style="font-size:40px;font-style:normal;font-weight:normal;line-height:125%;letter-spacing:0px;word-spacing:0px;fill:#ff2a2a;fill-opacity:1;stroke:none;font-family:Sans"
       xml:space="preserve"><tspan
         style="font-style:normal;font-variant:normal;font-weight:normal;font-stretch:normal;fill:#ff2a2a;font-family:Segoe Print;-inkscape-font-specification:Segoe Print"
         y="752.36218"
         x="371"
         id="tspan3250"
         sodipodi:role="line">maryanne peters</tspan></text>
    <text
       xml:space="preserve"
       style="font-size:181.69065857px;font-style:normal;font-weight:normal;line-height:125%;letter-spacing:0px;word-spacing:0px;fill:#000000;fill-opacity:1;stroke:none;font-family:Sans"
       x="17.247379"
       y="499.54706"
       id="text3252"
       sodipodi:linespacing="125%"
       transform="scale(0.96335702,1.0380368)"><tspan
         sodipodi:role="line"
         id="tspan3254"
         x="17.247379"
         y="499.54706">#</tspan></text>
    <text
       xml:space="preserve"
       style="font-size:180.06652832px;font-style:normal;font-weight:normal;line-height:125%;letter-spacing:0px;word-spacing:0px;fill:#000000;fill-opacity:1;stroke:none;font-family:Sans"
       x="16.876339"
       y="652.15729"
       id="text3256"
       sodipodi:linespacing="125%"
       transform="scale(0.92766667,1.0779734)"><tspan
         sodipodi:role="line"
         id="tspan3258"
         x="16.876339"
         y="652.15729"
         style="font-style:normal;font-variant:normal;font-weight:normal;font-stretch:normal;font-family:MV Boli;-inkscape-font-specification:MV Boli">b</tspan></text>
    <path
       style="font-size:253.21080017px;font-style:normal;font-weight:normal;line-height:125%;letter-spacing:0px;word-spacing:0px;fill:#000000;fill-opacity:1;stroke:none;font-family:Sans"
       d="m 46.200706,215.25 -2.769948,10.4322 0.726103,0 -18.071896,67.56091 -0.349605,-0.0248 -5.297862,19.8957 17.372685,0 0.107571,-0.37258 36.708538,0 -10.057871,38.10237 17.534042,0 2.016952,-7.52609 -0.376497,0 13.82285,-51.66423 -0.914352,0 10.192334,-38.15204 -16.431442,0 -0.02689,0.12419 -36.816109,0 10.165442,-38.37559 -17.534042,0 z m 3.872549,51.68907 36.816109,0 -8.767021,32.46401 -36.708538,0 8.65945,-32.46401 z"
       id="text3260"
       inkscape:connector-curvature="0" />
    <path
       inkscape:connector-curvature="0"
       id="path3284"
       d="m 52.200706,205.25 -2.769948,10.4322 0.726103,0 -18.071896,67.56091 -0.349605,-0.0248 -5.297862,19.8957 17.372685,0 0.107571,-0.37258 36.708538,0 -10.057871,38.10237 17.534042,0 2.016952,-7.52609 -0.376497,0 13.822852,-51.66423 -0.91435,0 10.19233,-38.15204 -16.431442,0 -0.02689,0.12419 -36.816109,0 10.165442,-38.37559 -17.534042,0 z m 3.872549,51.68907 36.816109,0 -8.767021,32.46401 -36.708538,0 8.65945,-32.46401 z"
       style="font-size:253.21080016999997000px;font-style:normal;font-weight:normal;line-height:125%;letter-spacing:0px;word-spacing:0px;fill:#ffdd55;fill-opacity:1;stroke:none;font-family:Sans" />
    <text
       transform="scale(0.96335699,1.0380368)"
       sodipodi:linespacing="125%"
       id="text3286"
       y="492.80356"
       x="26.58971"
       style="font-size:181.69065857px;font-style:normal;font-weight:normal;line-height:125%;letter-spacing:0px;word-spacing:0px;fill:#ffdd55;fill-opacity:1;stroke:none;font-family:Sans"
       xml:space="preserve"><tspan
         y="492.80356"
         x="26.58971"
         id="tspan3288"
         sodipodi:role="line">#</tspan></text>
    <text
       transform="scale(0.92766667,1.0779734)"
       sodipodi:linespacing="125%"
       id="text3290"
       y="644.73596"
       x="23.344179"
       style="font-size:180.06652832000000000px;font-style:normal;font-weight:normal;line-height:125%;letter-spacing:0px;word-spacing:0px;fill:#ffdd55;fill-opacity:1;stroke:none;font-family:Sans"
       xml:space="preserve"><tspan
         style="font-style:normal;font-variant:normal;font-weight:normal;font-stretch:normal;font-family:MV Boli;-inkscape-font-specification:MV Boli;fill:#ffdd55"
         y="644.73596"
         x="23.344179"
         id="tspan3292"
         sodipodi:role="line">b</tspan></text>
  </g>
</svg>
